SplineFontDB: 3.2
FontName: Sostenuto
FullName: Sostenuto
FamilyName: Sostenuto
Weight: Regular
Copyright: Copyright (c) 2024, Valerie Thibault
UComments: "2024-8-28: Created with FontForge (http://fontforge.org)"
Version: 001.000
ItalicAngle: 0
UnderlinePosition: -100
UnderlineWidth: 50
Ascent: 1000
Descent: 0
InvalidEm: 0
LayerCount: 2
Layer: 0 0 "Back" 1
Layer: 1 0 "Fore" 0
XUID: [1021 258 -616603033 7795472]
StyleMap: 0x0000
FSType: 0
OS2Version: 0
OS2_WeightWidthSlopeOnly: 0
OS2_UseTypoMetrics: 1
CreationTime: 1724837497
ModificationTime: 1725291331
OS2TypoAscent: 0
OS2TypoAOffset: 1
OS2TypoDescent: 0
OS2TypoDOffset: 1
OS2TypoLinegap: 90
OS2WinAscent: 0
OS2WinAOffset: 1
OS2WinDescent: 0
OS2WinDOffset: 1
HheadAscent: 0
HheadAOffset: 1
HheadDescent: 0
HheadDOffset: 1
OS2Vendor: 'PfEd'
Lookup: 1 0 0 "salt01" { "salt01"  } []
Lookup: 258 0 0 "mfkern" { "mfkern-1" [150,15,4] "mfkern-2" [150,15,0] } []
MarkAttachClasses: 1
DEI: 91125
KernClass2: 1 1 "mfkern-2"
 0 {}
KernClass2: 1 1 "mfkern-1"
 0 {}
Encoding: UnicodeBmp
UnicodeInterp: none
NameList: AGL For New Fonts
DisplaySize: -48
AntiAlias: 1
FitToEm: 0
WinInfo: 57324 34 13
BeginPrivate: 0
EndPrivate
Grid
-1000 -498 m 4
 2000 -498 l 1028
  Named: "-2sp"
-1000 -258 m 0
 2000 -258 l 1024
  Named: "-1sp"
-1000 1000 m 0
 2000 1000 l 1024
  Named: "4sp"
-1000 750 m 0
 2000 750 l 1024
  Named: "3sp"
-1000 500 m 0
 2000 500 l 1024
  Named: "2sp"
-1000 250 m 0
 2000 250 l 1024
  Named: "1sp"
EndSplineSet
BeginChars: 65537 119

StartChar: gClef
Encoding: 57424 57424 0
Width: 616
Flags: W
HStem: -668.329 20.5127<199.948 312.418> -258.56 17.9873<274.468 401.996> 117.648 137.956<381.971 473.408>
VStem: 0.40918 91.498<-50.0163 140.99> 81.6631 191.607<-568.855 -445.348> 181.43 42.0117<-75.9646 47.6293> 283.33 26.4814<576.271 775.553> 432.508 26.7119<-540.976 -355.545> 523.197 35.6191<806.322 999.73> 545.186 70.4072<-110.075 45.936>
LayerCount: 2
Fore
SplineSet
385.486328125 255.604492188 m 0xf380
 508.66796875 255.604492188 615.592773438 144.595703125 615.592773438 -0.3955078125 c 0
 615.592773438 -63.7548828125 594.887695312 -120.724609375 568.630859375 -156.68359375 c 0
 537.150452526 -199.794137001 487.609952847 -229.075864775 431.082067142 -244.807185824 c 1
 440.822176517 -316.404702961 449.612871291 -380.932316618 456.551757812 -431.708007812 c 0
 458.282226562 -448.993164062 459.219726562 -464.2734375 459.219726562 -478.116210938 c 0
 459.219726562 -529.287109375 446.4140625 -560.815429688 422 -590.948242188 c 0
 376.57421875 -647.016601562 315.293945312 -668.329101562 257.122070312 -668.329101562 c 4
 123.9765625 -668.329101562 81.6630859375 -568.172851562 81.6630859375 -510.217773438 c 0
 81.6630859375 -437.26171875 140.266601562 -406.526367188 181.686523438 -406.526367188 c 0
 238.484375 -406.526367188 273.270507812 -453.567382812 273.270507812 -506.740234375 c 0xeb40
 273.270507812 -589.275390625 186.791015625 -616.428710938 175.002929688 -619.747070312 c 1
 186.899414062 -637.51171875 216.765625 -647.81640625 252.126953125 -647.81640625 c 0
 329.247070312 -647.81640625 432.5078125 -598.805664062 432.5078125 -471.301757812 c 0
 432.5078125 -467.581685866 427.293496074 -408.107936178 405.818186337 -250.850477297 c 1
 380.298289787 -255.997641323 353.751745865 -258.559570312 327.10546875 -258.559570312 c 0
 215.603515625 -258.559570312 102.357421875 -213.698242188 47.1005859375 -117.060546875 c 0
 21.361328125 -72.0458984375 0.4091796875 27.4765625 0.4091796875 79.67578125 c 0
 0.4091796875 273.951171875 169.842773438 416.6328125 261.759765625 515.110351562 c 0
 272.873664652 527.017351373 283.400003364 538.084422305 293.400064184 548.448177514 c 1
 284.569561539 635.012824491 283.330078211 681.865906702 283.330078125 722.966796875 c 0
 283.330078125 891.556640625 324.0234375 958.405273438 377.366210938 1046.03222656 c 1
 424.301757812 1105.42578125 439.869140625 1119.35058594 472.193359375 1130.85351562 c 1
 484.529296875 1121.56835938 558.81640625 1042.01855469 558.81640625 855.059570312 c 0
 558.81640625 701.046291058 526.722216374 617.962012151 341.293369448 416.363865585 c 1
 347.47979109 370.800048897 354.999516539 315.392940733 363.274082057 254.425933028 c 1
 370.559379851 255.207411229 377.969623466 255.604492188 385.486328125 255.604492188 c 0xf380
312.956366819 385.895326443 m 1
 305.016860011 377.44459296 296.828176147 368.793938787 288.3828125 359.931640625 c 0
 175.043945312 240.99609375 91.9072265625 170.254882812 91.9072265625 32.2578125 c 0
 91.9072265625 -99.4267578125 174.217773438 -240.572265625 338.403320312 -240.572265625 c 0
 347.013620821 -240.572265625 372.709666041 -239.81062557 403.193932435 -231.736081568 c 1
 391.802595125 -149.192971813 376.235269082 -41.7792638745 355.110351562 95.76171875 c 0
 354.119652334 102.211950441 353.142540189 108.59036497 352.178830175 114.897951212 c 1
 283.05656583 103.174777339 223.44140625 54.4496165532 223.44140625 -22.17578125 c 0
 223.44140625 -39.3447265625 226.901367188 -99.1826171875 272.763671875 -138.408203125 c 1
 271.78515625 -142.495117188 l 1
 206.661132812 -116.966796875 181.4296875 -45.7333984375 181.4296875 24.583984375 c 0xf7
 181.4296875 141.205211931 244.460810654 224.635660606 332.198776218 248.578322995 c 1
 324.700692142 300.067223832 318.343906486 345.53292421 312.956366819 385.895326443 c 1
428.204977084 -223.655743504 m 1
 484.362583212 -201.984817093 545.185546875 -152.719659874 545.185546875 -40.97265625 c 0xe340
 545.185546875 -2.9248046875 533.466796875 117.6484375 384.913085938 117.6484375 c 0
 383.889134509 117.6484375 382.865541801 117.640417217 381.842458961 117.624404106 c 1
 397.250800158 4.1182539158 413.655026178 -116.676723183 428.204977084 -223.655743504 c 1
319.422351366 575.080111768 m 1
 397.738397461 654.291823264 441.153438709 690.552538307 488.813476562 771.127929688 c 0
 519.374023438 822.796875 523.197265625 862.362304688 523.197265625 917.66796875 c 0xe380
 523.197265625 949.137695312 519.572265625 1003.55566406 496.633789062 1032.74707031 c 1
 472.719726562 1021.02832031 460.265625 1010.39257812 445.307617188 995.341796875 c 0
 354.193359375 903.659179688 309.811523438 773.544921875 309.811523438 680.583007812 c 0
 309.811523438 651.662560684 313.484424283 617.67863126 319.422351366 575.080111768 c 1
EndSplineSet
Validated: 1
EndChar

StartChar: fClef
Encoding: 57442 57442 1
Width: 681
Flags: W
HStem: -174 97<592.382 672.856> -100 193<52.7726 173.173> 69 98<592.382 672.856> 208 42<133.892 294.179>
VStem: 0 214<-43.6605 51.8231> 400 132<-191.553 65.7696> 584 97<-165.618 -85.1435 77.3848 158.615>
LayerCount: 2
Fore
SplineSet
214 -7.81399495893 m 0x5e
 214 -60.3841933248 170.286006427 -100 117.642442459 -100 c 0
 54.0824829911 -100 0 -42.2509079926 0 26.8184207934 c 0
 0 78.2871677437 30.0312453064 144.031245306 74.4965871759 188.496587176 c 0
 116.763166747 230.763166747 168.268236424 250 239.728531297 250 c 0
 349.546117107 250 436.277119622 204.569474873 490.088234186 121.628143051 c 0
 520.275521397 75.0992089148 532 28.7875184332 532 -39.9711432506 c 0
 532 -162.962149941 494.486686983 -268.133402505 418.205512424 -356.380349075 c 0
 322.942186873 -466.587063227 131.786911626 -591.555402977 7 -624 c 1
 6 -614 l 1
 53.3395318417 -597.884414692 110.432895028 -564.666457929 170.204135072 -518.390259351 c 0
 330.185893947 -394.528889951 400 -260.3882495 400 -79.472399522 c 0
 400 0.796234682988 386.256995322 61.7027326871 356.196435519 116.368786797 c 0
 320.509163596 181.267190245 277.912928272 208 218.328657938 208 c 0
 132.756074083 208 64.1399532997 152.862045799 43 73 c 1
 64.0128226208 87.0085484138 83.7846128551 93 105.916133209 93 c 0
 167.718680149 93 214 46.2779056743 214 -7.81399495893 c 0x5e
584 118 m 0
 584 145 606 167 632.949098181 167 c 0
 659.725037653 167 681 145.281809271 681 118 c 0
 681 90.7181907291 659.725037653 69 632.949098181 69 c 0x3e
 606 69 584 91 584 118 c 0
584 -125.050901819 m 0
 584 -98.2749623469 605.718190729 -77 632.947360443 -77 c 0
 660 -77 681 -98 681 -125.052639557 c 0
 681 -152.281809271 659.725037653 -174 632.949098181 -174 c 0x9e
 606 -174 584 -152 584 -125.050901819 c 0
EndSplineSet
Validated: 1
EndChar

StartChar: noteheadBlack
Encoding: 57508 57508 2
Width: 285
Flags: W
HStem: -134 267<94.2063 191.562>
VStem: 0 285<-42.9019 41.9019>
LayerCount: 2
Fore
SplineSet
112 -134 m 4
 46 -134 0 -89 0 -29 c 4
 0 54 85 133 174 133 c 4
 240 133 285 88 285 28 c 4
 285 -55 201 -134 112 -134 c 4
EndSplineSet
Validated: 1
EndChar

StartChar: noteheadHalf
Encoding: 57507 57507 3
Width: 285
Flags: W
HStem: -124 42<39.7644 160.842> 80 41<147.704 244.302>
VStem: 250 35<5.48135 76.9376>
LayerCount: 2
Fore
SplineSet
173 121 m 4
 235 121 285 86 285 27 c 4
 285 -50 200 -124 111 -124 c 4
 45 -124 0 -83 0 -27 c 4
 0 49 82 121 173 121 c 4
212 80 m 6
 208 80 l 6
 177 80 104 44 66 -1 c 4
 42 -29 35 -53 34 -60 c 5
 35 -66 46 -82 69 -82 c 4
 79 -82 182 -83 234 5 c 4
 250 32 250 53 250 61 c 5
 249 64 241 80 216 80 c 4
 215 80 213 80 212 80 c 6
EndSplineSet
Validated: 33
EndChar

StartChar: flag8thUp
Encoding: 57920 57920 4
Width: 308
Flags: HW
LayerCount: 2
Fore
SplineSet
308 -476 m 0
 308 -514.666992188 303.833007812 -549 295.5 -579 c 128
 287.166992188 -609 271.666992188 -640 249 -672 c 0
 237.666992188 -688 224 -705 208 -723 c 128
 192 -741 176.333007812 -755 161 -765 c 0
 159 -766.333007812 157.5 -767 156.5 -767 c 128
 155.5 -767 154.5 -766.333007812 153.5 -765 c 128
 152.5 -763.666992188 152 -762.333007812 152 -761 c 0
 152 -758.333007812 158.666992188 -750.166992188 172 -736.5 c 128
 185.333007812 -722.833007812 199.833007812 -705.5 215.5 -684.5 c 128
 231.166992188 -663.5 244.5 -639.5 255.5 -612.5 c 128
 266.5 -585.5 272.333007812 -555 273 -521 c 0
 273 -483 264.833007812 -448 248.5 -416 c 128
 232.166992188 -384 210.666992188 -355.666992188 184 -331 c 128
 157.333007812 -306.333007812 127.833007812 -284.333007812 95.5 -265 c 128
 63.1669921875 -245.666992188 31.3330078125 -228.666992188 0 -214 c 1
 0 1 l 2
 0 2.3330078125 0.6669921875 3.6669921875 2 5 c 0
 4.6669921875 7.6669921875 9 9 15 9 c 0
 18.3330078125 9 21 8.6669921875 23 8 c 128
 25 7.3330078125 26.6669921875 6.3330078125 28 5 c 256
 29.3330078125 3.6669921875 30 2.3330078125 30 1 c 0
 34.6669921875 -23 40.3330078125 -43.5 47 -60.5 c 128
 53.6669921875 -77.5 61.8330078125 -93 71.5 -107 c 128
 81.1669921875 -121 91.6669921875 -133.833007812 103 -145.5 c 128
 114.333007812 -157.166992188 127.666992188 -170.333007812 143 -185 c 2
 162 -204 l 2
 184 -225.333007812 203.166992188 -245.166992188 219.5 -263.5 c 128
 235.833007812 -281.833007812 251 -302.5 265 -325.5 c 128
 279 -348.5 289.666992188 -372.333007812 297 -397 c 128
 304.333007812 -421.666992188 308 -448 308 -476 c 0
EndSplineSet
EndChar

StartChar: flag8thDown
Encoding: 57921 57921 5
Width: 310
Flags: HW
LayerCount: 2
Fore
SplineSet
310 502 m 0
 310 466 306.833007812 434.166992188 300.5 406.5 c 128
 294.166992188 378.833007812 284.833007812 353.5 272.5 330.5 c 128
 260.166992188 307.5 244.5 285.166992188 225.5 263.5 c 128
 206.5 241.833007812 184.666992188 219 160 195 c 0
 141.333007812 177 125.5 161.666992188 112.5 149 c 128
 99.5 136.333007812 88 123.5 78 110.5 c 128
 68 97.5 59.3330078125 82.6669921875 52 66 c 128
 44.6669921875 49.3330078125 37.3330078125 27.6669921875 30 1 c 0
 29.3330078125 -1 28 -2.6669921875 26 -4 c 0
 23.3330078125 -6 19.6669921875 -7 15 -7 c 0
 9.6669921875 -7 5.6669921875 -5.6669921875 3 -3 c 0
 1.6669921875 -1.6669921875 0.6669921875 -0.3330078125 0 1 c 2
 0 212 l 1
 34.6669921875 228 68.5 245.833007812 101.5 265.5 c 128
 134.5 285.166992188 164.5 307.666992188 191.5 333 c 128
 218.5 358.333007812 240 387.333007812 256 420 c 128
 272 452.666992188 280.333007812 490.666992188 281 534 c 0
 280.333007812 571.333007812 274.5 604.5 263.5 633.5 c 128
 252.5 662.5 240.166992188 687.333007812 226.5 708 c 128
 212.833007812 728.666992188 200.166992188 745.5 188.5 758.5 c 128
 176.833007812 771.5 171 779 171 781 c 0
 171 784.333007812 172.666992188 786.333007812 176 787 c 0
 179.333007812 787 182.333007812 785.666992188 185 783 c 0
 199.666992188 771 213.5 756.5 226.5 739.5 c 128
 239.5 722.5 250.333007812 707 259 693 c 0
 277.666992188 663.666992188 290.833007812 633 298.5 601 c 128
 306.166992188 569 310 536 310 502 c 0
EndSplineSet
EndChar

StartChar: flag16thUp
Encoding: 57922 57922 6
Width: 304
Flags: HW
HStem: -20 20G<0 48>
VStem: 0 34<-50.5511 0> 259 42<-759.946 -585.898> 269 35<-502.285 -391.737>
LayerCount: 2
Fore
SplineSet
163 -883 m 5xe0
 244 -794 259 -734 259 -685 c 4xe0
 259 -606 220 -536 179 -504 c 4
 146 -478 69 -442 0 -425 c 5
 0 0 l 5
 34 0 l 5
 62 -108 107 -153 179 -223 c 4
 209 -252 226 -268 234 -277 c 4
 281 -326 304 -381 304 -444 c 4xd0
 304 -477 298 -517 287 -550 c 5
 296 -578 301 -609 301 -648 c 4
 301 -745 270 -806 174 -893 c 5
 163 -883 l 5xe0
54 -237 m 5
 61 -313 96 -341 99 -344 c 4
 202 -430 240 -463 265 -503 c 5
 268 -491 269 -481 269 -469 c 4xd0
 269 -402 241 -356 172 -303 c 4
 133 -273 90 -248 54 -237 c 5
EndSplineSet
EndChar

StartChar: flag16thDown
Encoding: 57923 57923 7
Width: 304
Flags: W
VStem: 0 34<0 50.5511> 259 42<585.898 759.946> 269 35<391.737 502.285>
LayerCount: 2
Fore
SplineSet
163 883 m 1xc0
 244 794 259 734 259 685 c 0xc0
 259 606 220 536 179 504 c 0
 146 478 69 442 0 425 c 1
 0 0 l 1
 34 0 l 1
 62 108 107 153 179 223 c 0
 209 252 226 268 234 277 c 0
 281 326 304 381 304 444 c 0xa0
 304 477 298 517 287 550 c 1
 296 578 301 609 301 648 c 0
 301 745 270 806 174 893 c 1
 163 883 l 1xc0
54 237 m 1
 61 313 96 341 99 344 c 0
 202 430 240 463 265 503 c 1
 268 491 269 481 269 469 c 0xa0
 269 402 241 356 172 303 c 0
 133 273 90 248 54 237 c 1
EndSplineSet
Validated: 9
EndChar

StartChar: flag32ndUp
Encoding: 57924 57924 8
Width: 304
Flags: W
HStem: -19 20G<0 45.2144>
VStem: 0 34<-48.4093 1> 259 42<-898.789 -724.301> 259 35<-444 -355.667> 269 35<-640.991 -530.231>
LayerCount: 2
Fore
SplineSet
163 -1022 m 1xe0
 229.827148438 -948.573242188 259 -888.403320312 259 -823.044921875 c 0xe0
 259 -753.870117188 226.321289062 -679.93359375 178.674804688 -642.59375 c 0
 143.044921875 -614.671875 63.9091796875 -579.74609375 0 -564 c 1
 0 1 l 1
 34 1 l 1
 56.4287109375 -85.5107421875 89.765625 -115.556640625 139.149414062 -160.067382812 c 0
 194.8515625 -210.270507812 294 -299.6328125 294 -405.03125 c 3xd0
 294 -426.486328125 294 -460 288 -492 c 1
 300 -524 304 -549.305664062 304 -584.571289062 c 0xc8
 304 -617.305664062 297.603515625 -657.189453125 287 -689 c 1
 296.521484375 -718.622070312 301 -749.97265625 301 -786.799804688 c 0
 301 -884.599609375 269.416015625 -945.529296875 174 -1032 c 1
 163 -1022 l 1xe0
54 -376 m 1
 58.365234375 -423.3984375 72.1318359375 -456.131835938 99 -483 c 1
 216.416015625 -581.037109375 242.532226562 -606.051757812 265 -642 c 1
 267.8359375 -630.65625 269 -620.76171875 269 -607.208007812 c 0xc8
 269 -541.955078125 242.020507812 -495.784179688 172.057617188 -442.015625 c 0
 130.709960938 -410.23828125 88.154296875 -386.435546875 54 -376 c 1
50 -190 m 1
 60.498046875 -263.484375 70.1640625 -281.680664062 127.729492188 -325.333007812 c 0
 179.31640625 -364.451171875 241.478515625 -420.397460938 258 -444 c 1
 258.793945312 -440.030273438 259 -436.733398438 259 -431.490234375 c 0xd0
 259 -366.021484375 226.876953125 -306.772460938 152.333007812 -248.745117188 c 0
 121.220703125 -224.526367188 85.4814453125 -202.90234375 50 -190 c 1
EndSplineSet
Validated: 1
EndChar

StartChar: flag32ndDown
Encoding: 57925 57925 9
Width: 304
Flags: W
VStem: 0 34<0 49.5422> 259 42<724.712 899.933> 259 35<356.696 444.376> 269 35<530.983 642.105>
LayerCount: 2
Fore
SplineSet
163 1023 m 1xc0
 230 950 259 889 259 824 c 0xc0
 259 755 227 681 179 644 c 0
 143 616 64 581 0 565 c 1
 0 0 l 1
 34 0 l 1
 56 87 90 116 139 161 c 0
 195 211 294 301 294 406 c 0xa0
 294 427 293 460 286 496 c 1
 301 531 304 551 304 586 c 0x90
 304 619 298 658 287 690 c 1
 297 720 301 751 301 788 c 0
 301 886 269 947 174 1033 c 1
 163 1023 l 1xc0
54 377 m 1
 58 424 72 457 99 484 c 1
 216 582 243 607 265 643 c 1
 268 632 269 622 269 608 c 0x90
 269 543 242 497 172 443 c 0
 131 411 88 387 54 377 c 1
50 191 m 1
 60 264 70 282 128 326 c 0
 180 365 241 421 258 445 c 1
 259 441 259 437 259 432 c 0xa0
 259 367 227 308 152 250 c 0
 121 226 85 204 50 191 c 1
EndSplineSet
Validated: 9
EndChar

StartChar: rest8th
Encoding: 58598 58598 10
Width: 232
Flags: W
HStem: 57.125 26.25<60.1641 149.227>
VStem: 0 118<89.6393 177.299> 72 36<-198.257 -184.469>
LayerCount: 2
Fore
SplineSet
173 81.5 m 1xa0
 137 63.6875 121 57.125 92 57.125 c 0
 29 57.125 0 86.1875 0 126.5 c 0
 0 163.0625 27 194 61 194 c 0
 91 194 118 170.5625 118 138.6875 c 0xc0
 118 117.125 107 91.8125 91 86.1875 c 1
 98 83.375 105 83.375 113 83.375 c 0
 129 83.375 173 90.875 199 153.6875 c 2
 212 184.625 l 1
 232 180.625 l 1
 108 -206.3125 l 1
 72 -196.3125 l 5
 173 81.5 l 1xa0
EndSplineSet
Validated: 1
EndChar

StartChar: rest16th
Encoding: 58599 58599 11
Width: 309
Flags: W
HStem: -193 26<90.1985 148.268> 51 25<167.222 226.664>
VStem: 0 118<-160.564 -75.8121> 77 119<81.989 166.325>
LayerCount: 2
Fore
SplineSet
253 75 m 1xe0
 214 56 195 51 170 51 c 0
 110 51 77 76 77 116 c 0
 77 153 105 183 140 183 c 0
 171 183 196 159 196 129 c 0xd0
 196 107 183 84 167 78 c 1
 172 76 179 76 186 76 c 0
 213 76 252 88 278 144 c 2
 291 173 l 1
 309 169 l 1
 108 -458 l 1
 71 -447 l 1
 173 -169 l 1
 132 -189 117 -193 93 -193 c 0
 32 -193 0 -166 0 -126 c 0
 0 -89 28 -59 62 -59 c 0
 93 -59 118 -83 118 -114 c 0
 118 -136 106 -158 90 -164 c 1
 95 -166 101 -167 108 -167 c 0
 168 -167 192 -118 198 -98 c 2
 253 75 l 1xe0
EndSplineSet
Validated: 1
EndChar

StartChar: restQuarter
Encoding: 58597 58597 12
Width: 238
Flags: W
HStem: -156 52<37.5 155.118>
VStem: 0 76<-216.68 -149.375>
LayerCount: 2
Fore
SplineSet
122 203 m 1
 111 253 46 379 20 406 c 1
 29 415 l 1
 97 342 153 262 208 158 c 1
 194 82 141 5 135 -37 c 1
 144 -69 168 -103 237 -188 c 1
 228 -201 l 1
 203 -187 148 -156 111 -156 c 0
 93 -156 76 -164 76 -196 c 0
 76 -240 126 -282 145 -298 c 1
 122 -298 l 1
 73 -270 30 -234 13 -204 c 0
 5 -191 0 -173 0 -158 c 0
 0 -141 7 -104 68 -104 c 0
 89 -104 112 -109 127 -119 c 1
 130 -115 l 1
 60 -43 43 -23 24 7 c 1
 56 94 113 169 122 203 c 1
EndSplineSet
Validated: 1
EndChar

StartChar: rest32nd
Encoding: 58600 58600 13
Width: 388
Flags: W
HStem: -193 26<90.1985 148.268> 51 25<167.222 227.262> 301 25<246.222 305.664>
VStem: 0 118<-160.564 -75.8121> 77 119<81.989 166.325> 156 119<331.989 416.325>
LayerCount: 2
Fore
SplineSet
332 325 m 1xe8
 293 306 274 301 249 301 c 0
 189 301 156 326 156 366 c 0
 156 403 184 433 219 433 c 0
 250 433 275 409 275 379 c 0
 275 357 262 334 246 328 c 1
 251 326 258 326 265 326 c 0
 292 326 331 338 357 394 c 2
 370 423 l 1
 388 419 l 1
 108 -458 l 1
 70 -450 l 1
 173 -169 l 1
 132 -189 117 -193 93 -193 c 0
 32 -193 0 -166 0 -126 c 0
 0 -89 28 -59 62 -59 c 0
 93 -59 118 -83 118 -114 c 0xf4
 118 -136 106 -158 90 -164 c 1
 95 -166 101 -167 108 -167 c 0
 168 -167 192 -118 198 -98 c 2
 253 75 l 1
 214 56 195 51 170 51 c 0
 110 51 77 76 77 116 c 0
 77 153 105 183 140 183 c 0
 171 183 196 159 196 129 c 0
 196 107 183 84 167 78 c 1
 172 76 179 76 186 76 c 0
 213 76 257 88 273 138 c 2
 332 325 l 1xe8
EndSplineSet
Validated: 1
EndChar

StartChar: tuplet3
Encoding: 59523 59523 14
Width: 297
Flags: W
HStem: 163 26<97 156.033> 306 27<131.994 192.629>
VStem: 0 87<34.87 102.578> 77 84<229.62 291.766> 166 68<61.4425 157.312> 203 69<210.457 302.152>
LayerCount: 2
Fore
SplineSet
176 333 m 3xd4
 200 333 272 331 272 257 c 3xd4
 272 219 242 184 202 170 c 1
 221 161 234 143 234 112 c 3
 234 56 166 3 97 -1 c 0
 43.0812662299 -4.12572369682 0 18 0 59 c 3
 0 87 18.9814878278 110 46 110 c 3
 76 110 87 87.0380859375 87 74 c 3xe8
 87 53 77 36 56 30 c 1
 59 27 69 24 77 24 c 3
 138 24 166 89.939453125 166 123 c 3xd8
 166 157 142 163 97 163 c 1
 97 189 l 1
 98 189 142 190 162 190 c 1
 181 207 203 233 203 264 c 3
 203 287.021728866 188 306 165 306 c 3
 151.96159519 306 138 303 131 295 c 1
 149 292 161 276 161 259 c 0
 161 242 140 224 119 224 c 0
 94 224 77 241 77 265 c 0
 77 307 130 333 176 333 c 3xd4
EndSplineSet
Validated: 33
EndChar

StartChar: tuplet4
Encoding: 59524 59524 15
Width: 292
Flags: W
HStem: 0.0849609 30.8896<180.028 222.258> 0.0849609 14.7637<44.5049 66.3152> 71.0186 27.458<56.3203 104.869 193.725 249.65>
VStem: -0.301758 267.073
LayerCount: 2
Fore
SplineSet
-0.3017578125 100.764648438 m 1x70
 79.0361328125 170.947265625 123.615234375 216.545898438 223.401367188 329.58203125 c 1
 266.771484375 329.58203125 l 1
 266.055664062 327.278320312 211.3984375 166.315429688 193.724609375 99.62109375 c 1
 249.650390625 98.4765625 l 1
 249.650390625 71.0185546875 l 1
 188.133789062 71.0185546875 l 1
 183.133789062 53.7177734375 181.877929688 47.5126953125 180.028320312 30.974609375 c 1
 222.2578125 30.974609375 l 1
 222.2578125 0.0849609375 l 1xb0
 44.208984375 0.0849609375 l 1
 44.5048828125 14.8486328125 l 1
 53.31640625 16.9775390625 72.357421875 24.056640625 90.474609375 31.939453125 c 1
 97.3369140625 46.8095703125 103.366210938 63.2568359375 105.030273438 71.646484375 c 1
 101.715820312 72.169921875 90.4765735938 69.5774977746 81.1742880868 69.5774977746 c 0
 56.4734154362 69.5774977746 20.2412109375 71.0185546875 20.2412109375 71.0185546875 c 1
 -0.3017578125 100.764648438 l 1x70
113.0546875 98.9072265625 m 1
 139.831054688 155.577148438 155.526367188 190.430664062 161.224609375 205.877929688 c 1
 148.555664062 206.268554688 l 1
 127.04296875 183.807617188 127.04296875 183.807617188 50.517578125 108.048828125 c 1
 56.3203125 98.9072265625 l 1
 113.0546875 98.9072265625 l 1
EndSplineSet
Validated: 1
EndChar

StartChar: tupletColon
Encoding: 59530 59530 16
Width: 122
Flags: W
HStem: 67.2129 63.8271<1.38285 61.8573> 196.486 63.8281<36.1505 96.625>
VStem: -0.293945 63.8281<68.8897 129.363> 34.4736 63.8281<198.163 258.638>
LayerCount: 2
Fore
SplineSet
-0.2939453125 99.1259765625 m 0xe0
 -0.2939453125 116.751953125 13.994140625 131.040039062 31.6201171875 131.040039062 c 0
 49.2451171875 131.040039062 63.5341796875 116.751953125 63.5341796875 99.1259765625 c 0
 63.5341796875 81.5009765625 49.2451171875 67.212890625 31.6201171875 67.212890625 c 0
 13.994140625 67.212890625 -0.2939453125 81.5009765625 -0.2939453125 99.1259765625 c 0xe0
34.4736328125 228.400390625 m 0xd0
 34.4736328125 246.025390625 48.7626953125 260.314453125 66.3876953125 260.314453125 c 0
 84.013671875 260.314453125 98.3017578125 246.025390625 98.3017578125 228.400390625 c 0
 98.3017578125 210.774414062 84.013671875 196.486328125 66.3876953125 196.486328125 c 0
 48.7626953125 196.486328125 34.4736328125 210.774414062 34.4736328125 228.400390625 c 0xd0
EndSplineSet
Validated: 1
EndChar

StartChar: tuplet5
Encoding: 59525 59525 17
Width: 298
Flags: W
HStem: -1.40234 25.835<56.6641 115.059> 175.222 33.0527<85.5358 147.928> 251.09 62.4033<111.938 250.056>
VStem: 0.419922 86.459<34.8665 101.667> 157.756 80.3281<62.44 169.934>
LayerCount: 2
Fore
SplineSet
77.3748641342 24.4326794639 m 0
 120.527209129 24.4326794639 157.755859375 72.7060546875 157.755859375 127.521484375 c 0
 157.755859375 157.604492188 141.250976562 175.221679688 113.06640625 175.221679688 c 0
 98.1875 175.221679688 78.892578125 171.403320312 71.0185546875 166.900390625 c 1
 67.7783203125 161.182617188 61.42578125 151.490234375 55.68359375 143.5 c 1
 34.6767578125 157.493164062 l 1
 72.2568359375 230.069335938 78.4033203125 244.80078125 106.291992188 329.12890625 c 1
 126.88671875 319.969726562 159.23046875 313.493164062 184.375976562 313.493164062 c 0
 212.569335938 313.493164062 251.487304688 319.065429688 278.33203125 326.9453125 c 1
 267.9765625 272.607421875 236.623046875 251.08984375 167.803710938 251.08984375 c 0
 153.512695312 251.08984375 131.9921875 256.575195312 115.848632812 264.333007812 c 1
 110.7421875 249.069335938 93.8115234375 212.17578125 84.998046875 197.107421875 c 1
 103.493164062 204.978515625 120.19140625 208.274414062 141.58203125 208.274414062 c 0
 201.994140625 208.274414062 238.083984375 177.506835938 238.083984375 126.004882812 c 0
 238.083984375 60.3974609375 170.234375 -1.40234375 98.2041015625 -1.40234375 c 0
 36.3447265625 -1.40234375 0.419921875 20.796875 0.419921875 59.0244140625 c 0
 0.419921875 85.47265625 20.9599609375 109.259765625 43.7978515625 109.259765625 c 0
 69.919921875 109.259765625 86.87890625 95.0869140625 86.87890625 73.2578125 c 0
 86.87890625 53.3310546875 74.0439453125 35.1357421875 56.296875 29.9033203125 c 1
 60.5859375 27.2353515625 67.4144151558 24.4326794639 77.3748641342 24.4326794639 c 0
EndSplineSet
Validated: 1
EndChar

StartChar: timeSig4
Encoding: 57476 57476 18
Width: 376
Flags: W
HStem: 1 27<104 181.007 298.384 366> 119 30<38 186 294 362>
VStem: 186 108<29.8296 119 149 291.533>
LayerCount: 2
Fore
SplineSet
104 1 m 5
 104 28 l 5
 154 28 l 6
 156 28 159 28.5 163 29.5 c 4
 167 30.5 171.166992188 32.6669921875 175.5 36 c 4
 179.833007812 39.3330078125 182.666992188 43 184 47 c 4
 185.333007812 50.3330078125 186 53 186 55 c 6
 186 119 l 5
 6 119 l 5
 6 149 l 5
 23.3330078125 175.666992188 39.8330078125 202.166992188 55.5 228.5 c 4
 71.1669921875 254.833007812 84.8330078125 281.333007812 96.5 308 c 4
 108.166992188 334.666992188 117.5 361.833007812 124.5 389.5 c 4
 131.5 417.166992188 135 445.666992188 135 475 c 4
 135 481.666992188 134.833007812 488.166992188 134.5 494.5 c 4
 134.166992188 500.833007812 133.666992188 507.333007812 133 514 c 5
 143 507.333007812 154.5 503.333007812 167.5 502 c 4
 180.5 500.666992188 191.333007812 500 200 500 c 6
 220 500 l 6
 227.333007812 500 237.833007812 500.833007812 251.5 502.5 c 4
 265.166992188 504.166992188 279 508.666992188 293 516 c 5
 281.666992188 489.333007812 266.166992188 459 246.5 425 c 4
 226.833007812 391 205.166992188 356.833007812 181.5 322.5 c 4
 157.833007812 288.166992188 133.5 255.666992188 108.5 225 c 4
 83.5 194.333007812 60 169 38 149 c 5
 186 149 l 5
 186 270 l 5
 204.666992188 287.333007812 223.166992188 307.333007812 241.5 330 c 4
 259.833007812 352.666992188 277.333007812 377 294 403 c 5
 294 149 l 5
 362 149 l 5
 362 119 l 5
 294 119 l 5
 294 55 l 6
 294 53.6669921875 294.333007812 51.5 295 48.5 c 4
 295.666992188 45.5 297.666992188 42 301 38 c 4
 305 33.3330078125 309.5 30.5 314.5 29.5 c 4
 319.5 28.5 323 28 325 28 c 6
 366 28 l 5
 366 1 l 5
 104 1 l 5
EndSplineSet
Validated: 1
EndChar

StartChar: timeSig7
Encoding: 57479 57479 19
Width: 362
Flags: W
HStem: 394 100<62.1857 149.795>
VStem: 0 30<294 369.949 413 510> 94 118<12.204 116.374> 348 28<470.889 513.487>
LayerCount: 2
Fore
SplineSet
376 489 m 6
 374.666992188 471.666992188 369.666992188 453.666992188 361 435 c 4
 352.333007812 416.333007812 342 397.166992188 330 377.5 c 4
 318 357.833007812 305.166992188 337.166992188 291.5 315.5 c 4
 277.833007812 293.833007812 265 270.833007812 253 246.5 c 4
 241 222.166992188 231.166992188 196.833007812 223.5 170.5 c 4
 215.833007812 144.166992188 212 116.333007812 212 87 c 4
 212 73.6669921875 212.833007812 60.1669921875 214.5 46.5 c 4
 216.166992188 32.8330078125 219 19 223 5 c 5
 211 7 199.666992188 8.6669921875 189 10 c 4
 178.333007812 11.3330078125 168 12 158 12 c 260
 148 12 137.833007812 11.3330078125 127.5 10 c 4
 117.166992188 8.6669921875 106 7 94 5 c 5
 94 46.3330078125 101.833007812 85.1669921875 117.5 121.5 c 4
 133.166992188 157.833007812 152.5 191.5 175.5 222.5 c 4
 198.5 253.5 222.166992188 283.166992188 246.5 311.5 c 4
 270.833007812 339.833007812 292.666992188 369 312 399 c 5
 306.666992188 395 302 390.5 298 385.5 c 4
 294 380.5 289.5 375.666992188 284.5 371 c 4
 279.5 366.333007812 273 362 265 358 c 4
 257 354 247 351.333007812 235 350 c 6
 224 349 l 6
 210.666992188 349 198 351.333007812 186 356 c 4
 174 360.666992188 162.333007812 365.833007812 151 371.5 c 4
 139.666992188 377.166992188 128.833007812 382.333007812 118.5 387 c 4
 108.166992188 391.666992188 98 394 88 394 c 4
 83.3330078125 394 80 393.666992188 78 393 c 4
 63.3330078125 389.666992188 51.6669921875 382.166992188 43 370.5 c 4
 34.3330078125 358.833007812 30 342 30 320 c 6
 30 294 l 5
 0 294 l 5
 0 510 l 5
 30 510 l 5
 30 413 l 5
 31 416 l 6
 33 422 35.6669921875 429.333007812 39 438 c 4
 42.3330078125 446.666992188 47.1669921875 455 53.5 463 c 4
 59.8330078125 471 67.6669921875 478 77 484 c 4
 86.3330078125 490 98 493.333007812 112 494 c 6
 116 494 l 6
 130 494 143.833007812 491.166992188 157.5 485.5 c 4
 171.166992188 479.833007812 184.166992188 473.5 196.5 466.5 c 4
 208.833007812 459.5 220.666992188 453.166992188 232 447.5 c 4
 243.333007812 441.833007812 254 439 264 439 c 4
 272 439 280.5 440.5 289.5 443.5 c 4
 298.5 446.5 307.166992188 450.5 315.5 455.5 c 4
 323.833007812 460.5 330.833007812 466.333007812 336.5 473 c 4
 342.166992188 479.666992188 346 486.333007812 348 493 c 4
 352 507 357.666992188 514 365 514 c 4
 372.333007812 513.333007812 376 506.333007812 376 493 c 6
 376 489 l 6
EndSplineSet
Validated: 1
EndChar

StartChar: timeSig8
Encoding: 57480 57480 20
Width: 377
Flags: W
HStem: 0 31<117.706 244.323> 488 30<144.006 258.255>
VStem: 8 52<75.9358 204.734> 30 82<356.252 454.757> 287 80<81.195 178.841> 304 47<342.906 455.172>
LayerCount: 2
Fore
SplineSet
367 157 m 4xc8
 367 136.333007812 362.666992188 116.5 354 97.5 c 4
 345.333007812 78.5 333.166992188 61.8330078125 317.5 47.5 c 4
 301.833007812 33.1669921875 282.5 21.6669921875 259.5 13 c 4
 236.5 4.3330078125 211 0 183 0 c 4
 128.333007812 0 85.5 12.6669921875 54.5 38 c 4
 23.5 63.3330078125 8 99.6669921875 8 147 c 4xe8
 8 162.333007812 10.6669921875 176 16 188 c 4
 21.3330078125 200 28.5 210.5 37.5 219.5 c 4
 46.5 228.5 56.1669921875 236.333007812 66.5 243 c 4
 76.8330078125 249.666992188 88.3330078125 256.333007812 101 263 c 5
 84.3330078125 273 68.5 287.666992188 53.5 307 c 4
 38.5 326.333007812 30.6669921875 349.666992188 30 377 c 6
 30 379 l 6
 30.6669921875 407.666992188 36.6669921875 431 48 449 c 4
 59.3330078125 467 73.3330078125 480.833007812 90 490.5 c 4
 106.666992188 500.166992188 124.666992188 507 144 511 c 4
 163.333007812 515 180 517.333007812 194 518 c 6
 200 518 l 6
 214 518 229.666992188 516 247 512 c 4
 264.333007812 508 280.833007812 501.333007812 296.5 492 c 4
 312.166992188 482.666992188 325.166992188 470.166992188 335.5 454.5 c 4
 345.833007812 438.833007812 351 419.666992188 351 397 c 6
 351 394 l 6xd4
 350.333007812 366.666992188 343.333007812 345.5 330 330.5 c 4
 316.666992188 315.5 298.333007812 303 275 293 c 5
 299.666992188 281 321 264 339 242 c 4
 357 220 366.333007812 191.666992188 367 157 c 4xc8
304 399 m 4xd4
 304 413 301.166992188 425.5 295.5 436.5 c 4
 289.833007812 447.5 282 456.833007812 272 464.5 c 4
 262 472.166992188 250.5 478 237.5 482 c 4
 224.5 486 210.666992188 488 196 488 c 6
 191 488 l 6
 169 487.333007812 150.333007812 480.166992188 135 466.5 c 4
 119.666992188 452.833007812 112 431.333007812 112 402 c 6
 112 397 l 6
 112 386.333007812 115.5 376.666992188 122.5 368 c 4
 129.5 359.333007812 138.666992188 351.333007812 150 344 c 4
 161.333007812 336.666992188 174.166992188 330 188.5 324 c 4
 202.833007812 318 217.333007812 312.333007812 232 307 c 5
 252.666992188 316.333007812 269.833007812 328.666992188 283.5 344 c 4
 297.166992188 359.333007812 304 377.666992188 304 399 c 4xd4
287 128 m 6xe8
 287 142.666992188 283.333007812 155.5 276 166.5 c 4
 268.666992188 177.5 258.833007812 187.166992188 246.5 195.5 c 4
 234.166992188 203.833007812 220.166992188 211.5 204.5 218.5 c 4
 188.833007812 225.5 172.666992188 232.333007812 156 239 c 6
 145 244 l 5
 121.666992188 234.666992188 102.166992188 223.166992188 86.5 209.5 c 4
 70.8330078125 195.833007812 62 174.333007812 60 145 c 6
 60 138 l 6
 60 107.333007812 71.6669921875 81.8330078125 95 61.5 c 4
 118.333007812 41.1669921875 147.666992188 31 183 31 c 4
 212.333007812 31 236.666992188 38.6669921875 256 54 c 4
 275.333007812 69.3330078125 285.666992188 93 287 125 c 6
 287 128 l 6xe8
EndSplineSet
Validated: 1
EndChar

StartChar: cClef
Encoding: 57436 57436 21
Width: 601
Flags: W
HStem: -508 27<333.449 416.475> -441 146<310.145 366.667> -93 50<366.699 451.321> 42 50<366.584 451.321> 294 147<310.229 365.307> 480 28<331.229 416.475>
VStem: 0 129<-499 501> 159 140<-63.8045 63.6773> 159 36<-499 -65 64 501> 237 148<-423.495 -316.931 317.625 420.547> 497 105<-381.657 -154.539 151.585 380.826>
LayerCount: 2
Fore
SplineSet
0 -499 m 5xfe20
 0 501 l 5
 129 501 l 5
 129 -499 l 5
 0 -499 l 5xfe20
237 378 m 4xfe60
 237 452 306 508 392 508 c 4
 452 508 511 480 544 443 c 4
 583 400 602 329 602 260 c 4
 602 129 532 42 428 42 c 4
 371 42 337 79 329 89 c 5
 306 60 299 34 299 0 c 7xff20
 299 -27 306 -60 329 -89 c 5
 339 -76 370 -43 428 -43 c 4
 532 -43 602 -129 602 -260 c 4
 602 -329 583 -401 544 -444 c 4
 511 -481 452 -508 392 -508 c 4
 306 -508 237 -452 237 -378 c 4
 237 -329 267 -295 311 -295 c 4
 328 -295 385 -300 385 -370 c 4xfe60
 385 -415 350 -441 326 -441 c 4
 322 -441 313 -440 310 -438 c 5
 323 -467 345 -481 372 -481 c 4
 443 -481 497 -389 497 -272 c 4
 497 -176 461 -93 410 -93 c 4
 379 -93 349 -123 299 -209 c 5xff20
 282 -208 l 5
 272 -168 265 -143 249 -116 c 4
 236 -93 212 -75 195 -65 c 5
 195 -499 l 5
 159 -499 l 5
 159 501 l 5
 195 501 l 5
 195 64 l 5xfea0
 212 74 231 92 249 115 c 4
 267 138 272 168 282 208 c 5
 299 209 l 5xff20
 349 123 379 92 410 92 c 4
 461 92 497 175 497 271 c 4
 497 388 443 480 372 480 c 4
 345 480 323 467 310 438 c 5
 313 440 319 441 323 441 c 4
 347 441 385 415 385 370 c 4
 385 352 380 294 317 294 c 4
 268 294 237 329 237 378 c 4xfe60
EndSplineSet
Validated: 1
EndChar

StartChar: tuplet6
Encoding: 59526 59526 22
Width: 284
Flags: W
HStem: -2 35<80.5872 127.232> 155 37<103.328 146.086> 288 34<151.132 192.915>
VStem: 0 79<44.8488 139.266> 147 80<47.165 154.279> 173 91<218.684 287.854>
LayerCount: 2
Fore
SplineSet
0 120 m 0xf8
 0 217 96 322 191 322 c 4
 232 322 264 295 264 262 c 4
 264 232 245 212 219 212 c 0
 193 212 173 231 173 254 c 0xf4
 173 275 187 285 194 288 c 1
 172 288 129 281 103 186 c 1
 114 191 127 192 140 192 c 0
 196 192 227 157 227 111 c 0
 227 48 169 -2 111 -2 c 0
 96 -2 0 10 0 120 c 0xf8
125 155 m 0
 108 155 97.8679900417 143.037965146 87 105 c 0
 83 91 79 77 79 63 c 0
 79 48 83 33 101 33 c 0
 118 33 126 41 137 75 c 0
 143 93 147 121 147 136 c 0xf8
 147 149 140 155 125 155 c 0
EndSplineSet
Validated: 1
EndChar

StartChar: tuplet7
Encoding: 59527 59527 23
Width: 289
Flags: W
HStem: 0.0166016 21G<44.4019 69.5645> 269.551 54.5433<54.3632 185.232>
VStem: 13.5039 85.4521<4.6725 93.2152>
LayerCount: 2
Fore
SplineSet
13.50390625 40.2646484375 m 0
 13.50390625 104.619152685 183.684027441 261.72898072 185.921875 263.4453125 c 1
 171.247181262 268.342095595 153.629064971 269.551060588 137.249433334 269.551060588 c 0
 62.0109147696 269.551060588 55.9050911477 261.590848464 33.0778955648 231.830847148 c 0
 27.3367546438 224.34607484 22 218 15.759765625 210.82421875 c 1
 0.162109375 221.416992188 l 1
 23.3880963808 266.496305938 31.9268477349 284.795647915 51.4619140625 331.825195312 c 1
 113.87717544 326.151914228 142.330355922 324.094353271 256.957077976 324.094353271 c 0
 257.961238892 324.094353271 258.498046875 324.094726562 258.498046875 324.094726562 c 1
 269.146484375 300.25390625 l 1
 269.146484375 300.25390625 211.364257812 244.740234375 185.34765625 218.088867188 c 0
 157.663085938 189.728515625 120.901367188 134.915039062 113.30859375 106.466796875 c 0
 106.413820865 80.6366856078 101.826350723 40.429457098 98.9560546875 27.9931640625 c 0
 96.13671875 15.7734375 82.966796875 0.0166015625 56.162109375 0.0166015625 c 0
 32.6416015625 0.0166015625 13.50390625 14.9189453125 13.50390625 40.2646484375 c 0
EndSplineSet
Validated: 1
EndChar

StartChar: tuplet8
Encoding: 59528 59528 24
Width: 255
Flags: W
HStem: -2.40039 30.5127<66.2996 147.399> 314.601 31.0615<84.5552 157.854>
VStem: -0.144531 49.6738<39.2207 138.007> 17.3418 53.4443<228.888 305.817> 167.674 67.832<51.2971 133.05 223.678 308.026>
LayerCount: 2
Fore
SplineSet
128.998046875 345.662109375 m 0xd8
 174.795898438 345.662109375 228.84375 317.624023438 228.84375 268.22265625 c 3
 228.84375 226.588867188 204.697265625 214.930664062 182.21484375 196.611328125 c 1
 203.864257812 187.530273438 235.505859375 162.471679688 235.505859375 114.17578125 c 0
 235.505859375 56.44140625 183.879882812 -2.400390625 100.611328125 -2.400390625 c 0
 56.4794921875 -2.400390625 -0.14453125 17.7509765625 -0.14453125 73.541015625 c 0xe8
 -0.14453125 134.618164062 46.02734375 164.3203125 64.2177734375 172.297851562 c 1
 42.802734375 184.625 17.341796875 207.790039062 17.341796875 245.740234375 c 0
 17.341796875 317.98046875 77.5166015625 345.662109375 128.998046875 345.662109375 c 0xd8
120.072265625 314.600585938 m 0
 94.25390625 314.600585938 70.7861328125 297.061523438 70.7861328125 260.893554688 c 0xd8
 70.7861328125 222.669921875 124.975585938 217.693359375 141.486328125 215.935546875 c 1
 150.266601562 221.555664062 173.454101562 240.288085938 173.454101562 267.3359375 c 3
 173.454101562 294.38378908 145.890625 314.600585938 120.072265625 314.600585938 c 0
167.673828125 87.80078125 m 0
 167.673828125 136.197265625 120.708984375 148.422851562 94.509765625 152.62109375 c 1
 70.7685546875 141.208007812 49.529296875 126.818359375 49.529296875 81.701171875 c 0xe8
 49.529296875 51.0693359375 72.517578125 28.1123046875 107.436523438 28.1123046875 c 0
 142.356445312 28.1123046875 167.673828125 56.86328125 167.673828125 87.80078125 c 0
EndSplineSet
Validated: 1
EndChar

StartChar: timeSig3
Encoding: 57475 57475 25
Width: 360
Flags: W
HStem: 0 38<89.7339 193.096> 253 39<97.736 212.535> 486 33<104.739 207.405>
VStem: 1 134<81.388 172.888> 19 130<359.006 447.621> 239 97<322.36 459.498> 244 105<83.8926 232.781>
LayerCount: 2
Fore
SplineSet
349 164 m 6xe2
 349 142 344.666992188 121 336 101 c 4xe4
 327.333007812 81 315.333007812 63.6669921875 300 49 c 4
 284.666992188 34.3330078125 265.833007812 22.5 243.5 13.5 c 4
 221.166992188 4.5 196.666992188 0 170 0 c 4
 120 0 80 11 50 33 c 4
 20 55 3.6669921875 84.3330078125 1 121 c 5
 1 125 l 6
 1 144.333007812 7.1669921875 160.5 19.5 173.5 c 4
 31.8330078125 186.5 47 193.666992188 65 195 c 6
 67 195 l 6
 83.6669921875 195 99 189.5 113 178.5 c 4
 127 167.5 134.333007812 153 135 135 c 6
 135 132 l 6
 135 114 131.166992188 100.333007812 123.5 91 c 4
 115.833007812 81.6669921875 107.333007812 75.3330078125 98 72 c 4
 91.3330078125 69.3330078125 88 65.6669921875 88 61 c 4
 88 55.6669921875 91.5 50.6669921875 98.5 46 c 4
 105.5 41.3330078125 112.666992188 38.6669921875 120 38 c 6
 128 38 l 6
 136.666992188 38 147.666992188 39.6669921875 161 43 c 4
 174.333007812 46.3330078125 187.166992188 52.3330078125 199.5 61 c 4
 211.833007812 69.6669921875 222.166992188 81.6669921875 230.5 97 c 4
 238.833007812 112.333007812 243.333007812 133 244 159 c 6
 244 161 l 6xf2
 244 179.666992188 241.666992188 195.333007812 237 208 c 4
 232.333007812 220.666992188 226 230.333007812 218 237 c 4
 210 243.666992188 200.5 248.166992188 189.5 250.5 c 4
 178.5 252.833007812 166.333007812 254 153 254 c 6
 120 253 l 6
 118 253 118 253 117 253 c 4
 110.333007812 253 104.166992188 255 98.5 259 c 4
 92.8330078125 263 90 267.666992188 90 273 c 260
 90 278.333007812 92.5 282.833007812 97.5 286.5 c 4
 102.5 290.166992188 109.666992188 292 119 292 c 6
 123 292 l 5
 146 291 l 6
 156 291 166.5 292 177.5 294 c 4
 188.5 296 198.5 300.333007812 207.5 307 c 4
 216.5 313.666992188 224 323.5 230 336.5 c 4
 236 349.5 239 366.333007812 239 387 c 6
 239 401 l 6
 238.333007812 418.333007812 235 432.666992188 229 444 c 4
 223 455.333007812 215.666992188 464 207 470 c 4
 198.333007812 476 189.166992188 480.166992188 179.5 482.5 c 4
 169.833007812 484.833007812 160.666992188 486 152 486 c 4
 139.333007812 486 129.333007812 485 122 483 c 4
 110 480.333007812 104 475.666992188 104 469 c 4
 104 465 106.333007812 462.666992188 111 462 c 4
 120.333007812 460.666992188 128.833007812 456 136.5 448 c 4
 144.166992188 440 148.333007812 426.333007812 149 407 c 6
 149 405 l 6
 149 389.666992188 143 375.5 131 362.5 c 4
 119 349.5 104.333007812 342.666992188 87 342 c 6
 85 342 l 6
 69.6669921875 342 55.3330078125 347 42 357 c 4
 28.6669921875 367 21 383 19 405 c 6
 19 407 l 6
 19 425 23.8330078125 441 33.5 455 c 4
 43.1669921875 469 55.3330078125 480.666992188 70 490 c 4
 84.6669921875 499.333007812 100.833007812 506.5 118.5 511.5 c 4
 136.166992188 516.5 153 519 169 519 c 4
 187.666992188 519 206.333007812 516.833007812 225 512.5 c 4
 243.666992188 508.166992188 260.833007812 501.5 276.5 492.5 c 4
 292.166992188 483.5 305.333007812 471.833007812 316 457.5 c 4
 326.666992188 443.166992188 333.333007812 426 336 406 c 5
 336 400 l 6xec
 336 394 335.166992188 385 333.5 373 c 4
 331.833007812 361 327.833007812 348.333007812 321.5 335 c 4
 315.166992188 321.666992188 305.666992188 309.833007812 293 299.5 c 4
 280.333007812 289.166992188 263 282.333007812 241 279 c 5
 267 277 287.333007812 270.5 302 259.5 c 4
 316.666992188 248.5 327.333007812 236.333007812 334 223 c 4
 342 207.666992188 347 190.333007812 349 171 c 6
 349 164 l 6xe2
EndSplineSet
Validated: 1
EndChar

StartChar: accidentalFlat
Encoding: 57952 57952 26
Width: 221
Flags: W
HStem: 96.2159 56.7841<67.8312 161.5>
VStem: -1 29<-120 79.1956 101 459> 131 75<9.91708 111.5>
LayerCount: 2
Fore
SplineSet
28 459 m 1
 28 101 l 1
 64 135 103 153 145 153 c 0
 178 153 206 127 206 96 c 0
 206 28 173 -27 93 -93 c 0
 63 -118 24 -144 -1 -157 c 1
 -1 459 l 1
 28 459 l 1
131 48 m 0
 131 63 120.884245573 96.2158553118 86.7804362433 96.2158553118 c 0
 67.7503686214 96.2158553118 52 90 24 64 c 1
 24 -120 l 1
 80 -85 131 -4 131 48 c 0
EndSplineSet
Validated: 1
EndChar

StartChar: accidentalNatural
Encoding: 57953 57953 27
Width: 179
Flags: W
VStem: 0 30<-100 71.1995 169 375> 126 33<-388 -192 -78.236 95>
LayerCount: 2
Fore
SplineSet
518 402 m 1055
0 375 m 1
 30 375 l 1
 30 169 l 1
 91 201 159 216 159 216 c 1
 159 -388 l 1
 126 -388 l 1
 126 -192 l 1
 73 -215 0 -230 0 -230 c 1
 0 375 l 1
129 95 m 1
 94 97 54 81 29 60 c 1
 29 -100 l 1
 61 -101 108 -85 129 -65 c 1
 129 95 l 1
EndSplineSet
Validated: 33
EndChar

StartChar: accidentalSharp
Encoding: 57954 57954 28
Width: 266
Flags: W
VStem: 58 26<-370 -190 -94 60 154 314> 159 27<-308 -156 -61 90 189 376>
LayerCount: 2
Fore
SplineSet
159 376 m 1
 186 376 l 1
 186 189 l 1
 241 207 l 1
 244 195 246 182 246 168 c 0
 246 154 244 139 241 122 c 1
 186 103 l 1
 186 -61 l 1
 241 -43 l 1
 244 -55 246 -68 246 -82 c 0
 246 -96 244 -112 241 -128 c 1
 186 -147 l 1
 186 -308 l 1
 159 -308 l 1
 159 -156 l 1
 84 -181 l 1
 84 -370 l 1
 58 -370 l 1
 58 -190 l 1
 5 -208 l 1
 2 -195 0 -182 0 -168 c 0
 0 -154 2 -139 5 -123 c 1
 58 -105 l 1
 58 60 l 1
 5 42 l 1
 1 48 0 66 0 87 c 0
 0 107 1 123 5 127 c 1
 58 145 l 1
 58 314 l 1
 84 314 l 1
 84 154 l 1
 159 180 l 1
 159 376 l 1
159 90 m 1
 132 90 99 79 84 65 c 1
 84 -94 l 1
 110 -91 146 -77 159 -64 c 1
 159 90 l 1
EndSplineSet
Validated: 1
EndChar

StartChar: brace
Encoding: 57344 57344 29
Width: 85
Flags: W
HStem: -0 21G<83 85>
VStem: 23 24<86.1865 206.968 793.032 913.814> 59 23<306.762 405.58 594.42 693.238>
LayerCount: 2
Fore
SplineSet
83 1000 m 1
 85 998 l 1
 85 998 68 973 63 959 c 0
 59 948 47 922 47 888 c 0
 47 854 59 790 65 762 c 0
 71 734 82 688 82 665 c 0
 82 642 78 609 65 579 c 0
 51 546 24 525 7 500 c 1
 24 475 51 454 65 421 c 0
 78 391 82 358 82 335 c 0
 82 312 71 266 65 238 c 0
 59 210 47 146 47 112 c 0
 47 78 59 52 63 41 c 0
 68 27 85 2 85 2 c 1
 83 -0 l 1
 83 0 62 27 46 58 c 0
 32 86 23 127 23 153 c 0
 23 179 35 254 40 275 c 0
 45 296 59 348 59 377 c 0
 59 406 53 425 42 442 c 0
 32 457 9 484 0 500 c 1
 9 516 32 543 42 558 c 0
 53 575 59 594 59 623 c 0
 59 652 45 704 40 725 c 0
 35 746 23 821 23 847 c 0
 23 873 32 914 46 942 c 0
 62 973 83 1000 83 1000 c 1
EndSplineSet
Validated: 1
Substitution2: "salt01" braceSmall
EndChar

StartChar: dynamicPiano
Encoding: 58656 58656 30
Width: 325
Flags: W
HStem: -136 19<-65.9658 -22.52> -30 29<132.314 183.079> 231 49<46.8384 83.9968> 242 30<181.336 239.016>
VStem: -6 11<147.141 153.377> 244 67<99.269 229.999>
LayerCount: 2
Fore
SplineSet
311 147 m 2xdc
 311 129.666666667 309 111.333333333 305 92 c 0
 301 72.6666666667 293.666666667 54.3333333333 283 37 c 0
 269 15.6666666667 253.5 -0.833333333333 236.5 -12.5 c 0
 219.5 -24.1666666667 200 -30 178 -30 c 2
 175 -30 l 2
 155 -29.3333333333 138.333333333 -25.5 125 -18.5 c 0
 111.666666667 -11.5 103 -2.33333333333 99 9 c 1
 64 -105 l 1
 64 -107 l 2
 64 -109.666666667 65 -111.333333333 67 -112 c 0
 73.6666666667 -114.666666667 79.8333333333 -116.166666667 85.5 -116.5 c 0
 91.1666666667 -116.833333333 96 -118 100 -120 c 0
 103.333333333 -122 106 -124 108 -126 c 0
 110 -128 111 -131.333333333 111 -136 c 1
 -70 -136 l 1
 -68 -128.666666667 -65 -123.833333333 -61 -121.5 c 0
 -57 -119.166666667 -52.8333333333 -117.666666667 -48.5 -117 c 0
 -44.1666666667 -116.333333333 -39.3333333333 -115.333333333 -34 -114 c 0
 -28.6666666667 -112.666666667 -24 -109.666666667 -20 -105 c 0
 -17.3333333333 -97.6666666667 -14.3333333333 -88.8333333333 -11 -78.5 c 0
 -7.66666666667 -68.1666666667 -3.5 -55.1666666667 1.5 -39.5 c 0
 6.5 -23.8333333333 12 -6.83333333333 18 11.5 c 0
 24 29.8333333333 30 48 36 66 c 0
 50 108.666666667 65 155.333333333 81 206 c 0
 83 210 84 214 84 218 c 0
 84 224.666666667 79.6666666667 229 71 231 c 2
 70 231 l 2
 66 231 61.5 228.666666667 56.5 224 c 0
 51.5 219.333333333 46.5 213.666666667 41.5 207 c 0
 36.5 200.333333333 31.6666666667 193.333333333 27 186 c 0
 22.3333333333 178.666666667 18.6666666667 172 16 166 c 0
 14.6666666667 162.666666667 13.3333333333 159.5 12 156.5 c 0
 10.6666666667 153.5 8.33333333333 150 5 146 c 0
 3.66666666667 146 2 146.333333333 0 147 c 0
 -3.33333333333 147.666666667 -5.33333333333 149.666666667 -6 153 c 0
 -4 161 -0.5 172 4.5 186 c 0
 9.5 200 16.3333333333 214.333333333 25 229 c 0
 33.6666666667 243.666666667 43.1666666667 255.666666667 53.5 265 c 0
 63.8333333333 274.333333333 75.3333333333 279.333333333 88 280 c 2
 90 280 l 2xec
 110.666666667 278.666666667 125.333333333 273.833333333 134 265.5 c 0
 142.666666667 257.166666667 148.666666667 248 152 238 c 1
 159.333333333 246.666666667 167.833333333 254.333333333 177.5 261 c 0
 187.166666667 267.666666667 201.333333333 271.333333333 220 272 c 2
 222 272 l 1
 222 272 222 272 223 272 c 1
 223 272 223 272 224 272 c 1
 228 272 l 2
 230 272 232.666666667 271.666666667 236 271 c 0
 244 270.333333333 252.333333333 266.833333333 261 260.5 c 0
 269.666666667 254.166666667 277.666666667 246 285 236 c 0
 292.333333333 226 298.5 213.666666667 303.5 199 c 0
 308.5 184.333333333 311 169.333333333 311 154 c 2
 311 147 l 2xdc
242 216 m 0
 241.333333333 220.666666667 240 225.333333333 238 230 c 0
 236 234.666666667 231.333333333 238.333333333 224 241 c 0
 221.333333333 241.666666667 218 242 214 242 c 0xdc
 202.666666667 242 192.666666667 238 184 230 c 0
 175.333333333 222 168 212.666666667 162 202 c 0
 158.666666667 196.666666667 154.833333333 187.833333333 150.5 175.5 c 0
 146.166666667 163.166666667 141.666666667 149 137 133 c 0
 131.666666667 115 127.5 99.5 124.5 86.5 c 0
 121.5 73.5 120 62.3333333333 120 53 c 2
 120 45 l 2
 121.333333333 28.3333333333 125.333333333 16.5 132 9.5 c 0
 138.666666667 2.5 147.666666667 -1 159 -1 c 0
 166.333333333 -0.333333333333 172.333333333 2.16666666667 177 6.5 c 0
 181.666666667 10.8333333333 187.666666667 18.6666666667 195 30 c 0
 198.333333333 35.3333333333 202.333333333 44.1666666667 207 56.5 c 0
 211.666666667 68.8333333333 216.333333333 82 221 96 c 0
 225.666666667 110 229.666666667 123.333333333 233 136 c 0
 236.333333333 148.666666667 238.666666667 157.666666667 240 163 c 0
 241.333333333 169 242.333333333 174.666666667 243 180 c 0
 243.666666667 185.333333333 244 190.666666667 244 196 c 0
 244 197 244 197 244 198 c 2
 244 199 l 1
 244 200 l 1
 244 200 244 200 244 201 c 2
 244 202 l 1
 244 204 l 1
 244 205 l 2
 244 207 243.333333333 210.666666667 242 216 c 0
EndSplineSet
Validated: 1
EndChar

StartChar: dynamicMezzo
Encoding: 58657 58657 31
Width: 390
Flags: W
HStem: 0 21G<38 98.6187 145 205.619> 183 45<58.979 88.9961 168.808 190.452 277.767 319.833>
VStem: 262 65<12.4146 102.227> 300 62<100.297 182.883>
LayerCount: 2
Fore
SplineSet
389 77 m 1xd0
 385 69 379.833333333 60.1666666667 373.5 50.5 c 0
 367.166666667 40.8333333333 359.833333333 31.3333333333 351.5 22 c 0
 343.166666667 12.6666666667 334.166666667 4.83333333333 324.5 -1.5 c 0
 314.833333333 -7.83333333333 305.333333333 -11 296 -11 c 0
 286 -11 277.833333333 -7.5 271.5 -0.5 c 0
 265.166666667 6.5 262 15 262 25 c 256xe0
 262 35 264 46 268 58 c 0
 272 70 276.333333333 82.1666666667 281 94.5 c 0
 285.666666667 106.833333333 290 119.166666667 294 131.5 c 0
 298 143.833333333 300 155.666666667 300 167 c 0xd0
 300 170.333333333 299.333333333 173.833333333 298 177.5 c 0
 296.666666667 181.166666667 294 183 290 183 c 256
 286 183 281.666666667 181.333333333 277 178 c 0
 272.333333333 174.666666667 267.666666667 170.666666667 263 166 c 0
 258.333333333 161.333333333 254.5 156.5 251.5 151.5 c 0
 248.5 146.5 246.333333333 142.333333333 245 139 c 2
 199 0 l 1
 145 0 l 1
 188 139 l 2
 189.333333333 143 190.333333333 147.5 191 152.5 c 0
 191.666666667 157.5 192 162.333333333 192 167 c 256
 192 171.666666667 191.5 175.5 190.5 178.5 c 0
 189.5 181.5 186.333333333 183 181 183 c 0
 177 183 172.833333333 181.5 168.5 178.5 c 0
 164.166666667 175.5 159.833333333 171.666666667 155.5 167 c 0
 151.166666667 162.333333333 147.5 157.5 144.5 152.5 c 0
 141.5 147.5 139.333333333 143 138 139 c 2
 92 0 l 1
 38 0 l 1
 40.6666666667 8 44.6666666667 19.3333333333 50 34 c 0
 55.3333333333 48.6666666667 60.8333333333 64 66.5 80 c 0
 72.1666666667 96 77.3333333333 112.166666667 82 128.5 c 0
 86.6666666667 144.833333333 89 157 89 165 c 0
 89 177 83.6666666667 183.333333333 73 184 c 0
 67 184 60.6666666667 180.833333333 54 174.5 c 0
 47.3333333333 168.166666667 41.3333333333 160.666666667 36 152 c 0
 30.6666666667 143.333333333 25.6666666667 134.666666667 21 126 c 0
 16.3333333333 117.333333333 13 110.333333333 11 105 c 1
 3 105 l 1
 6.33333333333 115 11 126.833333333 17 140.5 c 0
 23 154.166666667 30.3333333333 167.666666667 39 181 c 0
 47.6666666667 194.333333333 57.1666666667 205.333333333 67.5 214 c 0
 77.8333333333 222.666666667 89.3333333333 227.333333333 102 228 c 0
 111.333333333 228 120.5 224 129.5 216 c 0
 138.5 208 146 200.333333333 152 193 c 1
 161.333333333 201.666666667 172.333333333 209.333333333 185 216 c 0
 197.666666667 222.666666667 210.333333333 226 223 226 c 0
 229.666666667 225.333333333 237.166666667 220.833333333 245.5 212.5 c 0
 253.833333333 204.166666667 259.333333333 198 262 194 c 1
 270 201.333333333 280 208.166666667 292 214.5 c 0
 304 220.833333333 315.666666667 224.333333333 327 225 c 0xe0
 339.666666667 225 348.666666667 220.833333333 354 212.5 c 0
 359.333333333 204.166666667 362 193.666666667 362 181 c 0xd0
 362 169 360.166666667 157.333333333 356.5 146 c 0
 352.833333333 134.666666667 348.833333333 123.333333333 344.5 112 c 0
 340.166666667 100.666666667 336.166666667 89.3333333333 332.5 78 c 0
 328.833333333 66.6666666667 327 55 327 43 c 0xe0
 327 39.6666666667 327.5 36.6666666667 328.5 34 c 0
 329.5 31.3333333333 331 30 333 30 c 0
 337.666666667 30 342.5 32 347.5 36 c 0
 352.5 40 357.333333333 45 362 51 c 0
 366.666666667 57 370.833333333 62.8333333333 374.5 68.5 c 0
 378.166666667 74.1666666667 381 79 383 83 c 1
 389 77 l 1xd0
EndSplineSet
Validated: 1
EndChar

StartChar: dynamicForte
Encoding: 58658 58658 32
Width: 230
Flags: W
HStem: -158 103<-161.723 -107.093> -158 18<-106 -73.0531> 218 30<9 78 174 238> 386 18<225.348 266.282>
VStem: -172 66<-139.718 -101.508> 78 90<141.764 218> 87 87<248 306.137> 267 53<367.691 385.166>
LayerCount: 2
Fore
SplineSet
234 404 m 4x7b
 272.61487606 404 320 389.395645203 320 344 c 4
 320 318.31211937 304.401289132 295 274 295 c 4
 250.212699037 295 229 308.760799244 229 333 c 4
 229 373.29380992 263.775279701 373.162919552 267 378 c 4
 267 385.711064051 252.217338622 386 250 386 c 4
 222.94828101 386 190.010609783 360.074268481 174 248 c 5x7b
 238 248 l 5
 238 218 l 5
 168 218 l 5
 157.901619484 175.182866613 121.738735227 35.615741601 63 -41 c 4
 58.8796807235 -46.3743294911 -27.7027569327 -158 -111 -158 c 6
 -114 -158 l 6
 -134.986468754 -158 -172 -145.203523713 -172 -105 c 4
 -172 -98.0151748113 -170.088355044 -55 -123 -55 c 4xbd
 -101.044633709 -55 -77 -74.1238803607 -77 -98 c 4
 -77 -130.980216304 -106 -129.504458025 -106 -136 c 260
 -106 -137.444444444 -106 -140 -98 -140 c 4
 -21.0090265321 -140 48.3535783521 99.4143134082 78 218 c 5x7d
 9 218 l 5
 9 248 l 5
 87 248 l 5
 110.256456534 320.095015254 144.248856883 404 234 404 c 4x7b
EndSplineSet
Validated: 1
EndChar

StartChar: dynamicMF
Encoding: 58669 58669 33
Width: 620
Flags: W
HStem: -185 103<228.277 282.907> -185 18<284 316.947> -11 41<285.341 338.546> 0 21G<38 98.6187 145 205.619> 183 45<60.2053 88.9961 168.829 191.997 278.126 328.039> 191 30<399 468 564 628> 359 18<615.348 656.282>
VStem: 218 66<-166.718 -128.508> 262 65<8.14797 101.433> 300 62<101.433 202.994> 468 90<114.764 191> 477 87<221 279.137> 657 53<340.691 358.166>
LayerCount: 2
Fore
SplineSet
624 377 m 0x4618
 662.61487606 377 710 362.395645203 710 317 c 0
 710 291.31211937 694.401289132 268 664 268 c 0
 640.212699037 268 619 281.760799244 619 306 c 0
 619 346.29380992 653.775279701 346.162919552 657 351 c 0
 657 358.711064051 642.217338622 359 640 359 c 0
 612.94828101 359 580.010609783 333.074268481 564 221 c 1x4618
 628 221 l 1
 628 191 l 1
 558 191 l 1
 547.901619484 148.182866613 511.738735227 8.61574160102 453 -68 c 0
 448.879680723 -73.3743294911 362.297243067 -185 279 -185 c 2
 276 -185 l 2
 255.013531246 -185 218 -172.203523713 218 -132 c 0
 218 -125.015174811 219.911644956 -82 267 -82 c 0x8728
 288.955366291 -82 313 -101.123880361 313 -125 c 0
 313 -157.980216304 284 -156.504458025 284 -163 c 256
 284 -164.444444444 284 -167 292 -167 c 0
 368.990973468 -167 438.353578352 72.4143134083 468 191 c 1x4728
 399 191 l 1
 399 221 l 1
 477 221 l 1
 500.256456534 293.095015254 534.248856883 377 624 377 c 0x4618
333 30 m 0x2a88
 355.068941972 30 382.674147273 82.3482945451 383 83 c 1
 389 77 l 1
 388.427409396 75.8548187916 344.24634307 -11 296 -11 c 0
 274.681559611 -11 262 6.11162167682 262 25 c 256x2a88
 262 65.8147355903 300 121.938188386 300 167 c 0x2a48
 300 171.103372477 299.206182329 183 290 183 c 256
 277.74680999 183 253.879603966 161.199009916 245 139 c 1
 199 0 l 1
 145 0 l 1
 188 139 l 2
 189.051152068 142.153456203 192 152.3330091 192 167 c 256
 192 181.508169005 188.193088129 183 181 183 c 0
 166.058218391 183 144.054748025 157.164244075 138 139 c 2
 92 0 l 1
 38 0 l 1
 49.5191152441 34.5573457323 68.5700196723 81.495068853 82 128.5 c 0
 86.6666666667 144.833333333 89 157 89 165 c 0
 89 177 83.6666666667 183.333333333 73 184 c 0
 44.4496107573 184 11.3526125585 105.940300156 11 105 c 2
 3 105 l 1
 11.370356754 130.111070262 46.6315548549 225.085871308 102 228 c 0
 107.034632035 228 123.363636364 228 152 193 c 1
 160.724656966 201.101467183 190.205518677 226 223 226 c 0
 239.766779386 224.323322061 261.720164884 194.419752674 262 194 c 1
 264.584948914 196.369536504 294.403197491 223.082541029 327 225 c 0x1a88
 356.077982005 225 362 200.753664296 362 181 c 0x1a48
 362 132.696220797 327 91.3037792029 327 43 c 0
 327 42.2095358893 327.095576981 30 333 30 c 0x2a88
EndSplineSet
Validated: 1
EndChar

StartChar: dynamicPP
Encoding: 58667 58667 34
Width: 647
Flags: W
HStem: -136 31<-28.4285 -15.63 294.571 307.37> -30 29<129.825 180.61 452.825 503.61> 231 49<46.9781 83.9968 369.978 406.997> 242 30<181.596 237.802 504.596 560.802>
VStem: -6 11<146.586 154.566> 244 67<96.8769 229.243> 317 11<146.586 154.566> 567 67<96.8769 229.243>
LayerCount: 2
Fore
SplineSet
551 272 m 2xdf
 592.975621996 272 634 214.30067096 634 154 c 2
 634 147 l 2
 634 42.4178951908 571.613502766 -30 501 -30 c 2
 498 -30 l 2
 482.272861584 -29.4757620528 434.023254331 -25.0658872724 422 9 c 1
 387 -105 l 1
 387 -107 l 2
 387 -121.668657392 434 -108.594935989 434 -136 c 1
 253 -136 l 1
 260.9836941 -106.726454965 286.095251066 -124.72220709 303 -105 c 1
 315.876868138 -69.5886126201 407 214.606697774 407 218 c 0
 407 224.666666667 402.666666667 229 394 231 c 1
 393 231 l 2
 369.602954831 231 332.469322282 151.363186738 328 146 c 0
 327.007129471 146 318.360759153 146.196204236 317 153 c 0
 317.383213963 154.532855851 348.450025603 276.707896084 411 280 c 1
 413 280 l 2xef
 427.024612814 279.09518627 462.054945055 276.835164835 475 238 c 1
 501.968001425 269.871274411 524.78645721 271.349516329 543 272 c 2
 551 272 l 2xdf
228 272 m 2xdf
 269.975621996 272 311 214.30067096 311 154 c 2
 311 147 l 2
 311 42.4178951908 248.613502766 -30 178 -30 c 2
 175 -30 l 2
 159.272861584 -29.4757620528 111.023254331 -25.0658872724 99 9 c 1
 64 -105 l 1
 64 -107 l 2
 64 -121.668657392 111 -108.594935989 111 -136 c 1
 -70 -136 l 1
 -62.0163058997 -106.726454965 -36.9047489341 -124.72220709 -20 -105 c 1
 -7.12313186186 -69.5886126201 84 214.606697774 84 218 c 0
 84 224.666666667 79.6666666667 229 71 231 c 1
 70 231 l 2
 46.6029548308 231 9.46932228194 151.363186738 5 146 c 0
 4.00712947135 146 -4.63924084715 146.196204236 -6 153 c 0
 -5.61678603734 154.532855851 25.4500256033 276.707896084 88 280 c 1
 90 280 l 2xef
 104.024612814 279.09518627 139.054945055 276.835164835 152 238 c 1
 178.968001425 269.871274411 201.78645721 271.349516329 220 272 c 2
 228 272 l 2xdf
567 205 m 2
 567 213.256733785 564.989962081 242 537 242 c 0xdf
 491.791666667 242 472.595878136 176.185867896 460 133 c 0
 444.200428492 79.6764461618 443 63.992564783 443 53 c 2
 443 45 l 1
 444.392720656 27.5909917979 449.14371056 -1 482 -1 c 0
 530.04407757 3.36764341542 567 167.339193942 567 196 c 2
 567 205 l 2
244 205 m 2
 244 213.256733785 241.989962081 242 214 242 c 0
 168.791666667 242 149.595878136 176.185867896 137 133 c 0
 121.200428492 79.6764461618 120 63.992564783 120 53 c 2
 120 45 l 1
 121.392720656 27.5909917979 126.14371056 -1 159 -1 c 0
 207.04407757 3.36764341542 244 167.339193942 244 196 c 2
 244 205 l 2
EndSplineSet
Validated: 1
EndChar

StartChar: dynamicFF
Encoding: 58671 58671 35
Width: 460
Flags: W
HStem: -158 103<-161.723 -107.093 68.2767 122.907> -158 18<-106 -73.0531 124 156.947> 218 30<9 78 174 238 239 308 404 468> 386 18<225.348 266.282 455.348 496.282>
VStem: -172 66<-139.718 -101.508> 58 66<-139.718 -101.508> 78 90<141.764 218> 87 87<248 306.137> 267 53<367.691 385.166> 308 90<141.764 218> 317 87<248 306.137> 497 53<367.691 385.166>
LayerCount: 2
Fore
SplineSet
464 404 m 0x7830
 502.61487606 404 550 389.395645203 550 344 c 0
 550 318.31211937 534.401289132 295 504 295 c 0
 480.212699037 295 459 308.760799244 459 333 c 0
 459 373.29380992 493.775279701 373.162919552 497 378 c 0
 497 385.711064051 482.217338622 386 480 386 c 0
 452.94828101 386 420.010609783 360.074268481 404 248 c 1x7830
 468 248 l 1
 468 218 l 1
 398 218 l 1
 387.901619484 175.182866613 351.738735227 35.615741601 293 -41 c 0
 288.879680723 -46.3743294911 202.297243067 -158 119 -158 c 2
 116 -158 l 2
 95.0135312461 -158 58 -145.203523713 58 -105 c 0
 58 -98.0151748113 59.9116449564 -55 107 -55 c 0xbc50
 128.955366291 -55 153 -74.1238803607 153 -98 c 0
 153 -130.980216304 124 -129.504458025 124 -136 c 256
 124 -137.444444444 124 -140 132 -140 c 0
 208.990973468 -140 278.353578352 99.4143134083 308 218 c 1x7c50
 239 218 l 1
 239 248 l 1
 317 248 l 1
 340.256456534 320.095015254 374.248856883 404 464 404 c 0x7830
234 404 m 0
 272.61487606 404 320 389.395645203 320 344 c 0
 320 318.31211937 304.401289132 295 274 295 c 0
 250.212699037 295 229 308.760799244 229 333 c 0
 229 373.29380992 263.775279701 373.162919552 267 378 c 0
 267 385.711064051 252.217338622 386 250 386 c 0
 222.94828101 386 190.010609783 360.074268481 174 248 c 1x7990
 238 248 l 1
 238 218 l 1
 168 218 l 1
 157.901619484 175.182866613 121.738735227 35.615741601 63 -41 c 0
 58.8796807235 -46.3743294911 -27.7027569327 -158 -111 -158 c 2
 -114 -158 l 2
 -134.986468754 -158 -172 -145.203523713 -172 -105 c 0
 -172 -98.0151748113 -170.088355044 -55 -123 -55 c 0xba10
 -101.044633709 -55 -77 -74.1238803607 -77 -98 c 0
 -77 -130.980216304 -106 -129.504458025 -106 -136 c 256
 -106 -137.444444444 -106 -140 -98 -140 c 0
 -21.0090265321 -140 48.3535783521 99.4143134082 78 218 c 1x7a10
 9 218 l 1
 9 248 l 1
 87 248 l 1x7910
 110.256456534 320.095015254 144.248856883 404 234 404 c 0
EndSplineSet
Validated: 1
EndChar

StartChar: dynamicPPP
Encoding: 58666 58666 36
Width: 977
Flags: W
HStem: -136 31<-28.4285 -15.63 298.571 311.37 624.571 637.37> -30 29<129.825 180.61 456.825 507.61 782.825 833.61> 231 49<46.9781 83.9968 373.978 410.997 699.978 736.997> 242 30<181.596 237.802 508.596 564.802 834.596 890.802>
VStem: -6 11<146.586 154.566> 244 67<96.8769 229.243> 321 11<146.586 154.566> 571 67<96.8769 229.243> 647 11<146.586 154.566> 897 67<96.8769 229.243>
LayerCount: 2
Fore
SplineSet
881 272 m 2xdfc0
 922.975621996 272 964 214.30067096 964 154 c 2
 964 147 l 2
 964 42.4178951908 901.613502766 -30 831 -30 c 2
 828 -30 l 2
 812.272861584 -29.4757620528 764.023254331 -25.0658872724 752 9 c 1
 717 -105 l 1
 717 -107 l 2
 717 -121.668657392 764 -108.594935989 764 -136 c 1
 583 -136 l 1
 590.9836941 -106.726454965 616.095251066 -124.72220709 633 -105 c 1
 645.876868138 -69.5886126201 737 214.606697774 737 218 c 0
 737 224.666666667 732.666666667 229 724 231 c 1
 723 231 l 2
 699.602954831 231 662.469322282 151.363186738 658 146 c 0
 657.007129471 146 648.360759153 146.196204236 647 153 c 0
 647.383213963 154.532855851 678.450025603 276.707896084 741 280 c 1
 743 280 l 2xefc0
 757.024612814 279.09518627 792.054945055 276.835164835 805 238 c 1
 831.968001425 269.871274411 854.78645721 271.349516329 873 272 c 2
 881 272 l 2xdfc0
555 272 m 2xdfc0
 596.975621996 272 638 214.30067096 638 154 c 2
 638 147 l 2
 638 42.4178951908 575.613502766 -30 505 -30 c 2
 502 -30 l 2
 486.272861584 -29.4757620528 438.023254331 -25.0658872724 426 9 c 1
 391 -105 l 1
 391 -107 l 2
 391 -121.668657392 438 -108.594935989 438 -136 c 1
 257 -136 l 1
 264.9836941 -106.726454965 290.095251066 -124.72220709 307 -105 c 1
 319.876868138 -69.5886126201 411 214.606697774 411 218 c 0
 411 224.666666667 406.666666667 229 398 231 c 1
 397 231 l 2
 373.602954831 231 336.469322282 151.363186738 332 146 c 0
 331.007129471 146 322.360759153 146.196204236 321 153 c 0
 321.383213963 154.532855851 352.450025603 276.707896084 415 280 c 1
 417 280 l 2xefc0
 431.024612814 279.09518627 466.054945055 276.835164835 479 238 c 1
 505.968001425 269.871274411 528.78645721 271.349516329 547 272 c 2
 555 272 l 2xdfc0
228 272 m 2xdfc0
 269.975621996 272 311 214.30067096 311 154 c 2
 311 147 l 2
 311 42.4178951908 248.613502766 -30 178 -30 c 2
 175 -30 l 2
 159.272861584 -29.4757620528 111.023254331 -25.0658872724 99 9 c 1
 64 -105 l 1
 64 -107 l 2
 64 -121.668657392 111 -108.594935989 111 -136 c 1
 -70 -136 l 1
 -62.0163058997 -106.726454965 -36.9047489341 -124.72220709 -20 -105 c 1
 -7.12313186186 -69.5886126201 84 214.606697774 84 218 c 0
 84 224.666666667 79.6666666667 229 71 231 c 1
 70 231 l 2
 46.6029548308 231 9.46932228194 151.363186738 5 146 c 0
 4.00712947135 146 -4.63924084715 146.196204236 -6 153 c 0
 -5.61678603734 154.532855851 25.4500256033 276.707896084 88 280 c 1
 90 280 l 2xefc0
 104.024612814 279.09518627 139.054945055 276.835164835 152 238 c 1
 178.968001425 269.871274411 201.78645721 271.349516329 220 272 c 2
 228 272 l 2xdfc0
897 205 m 2
 897 213.256733785 894.989962081 242 867 242 c 0xdfc0
 821.791666667 242 802.595878136 176.185867896 790 133 c 0
 774.200428492 79.6764461618 773 63.992564783 773 53 c 2
 773 45 l 1
 774.392720656 27.5909917979 779.14371056 -1 812 -1 c 0
 860.04407757 3.36764341542 897 167.339193942 897 196 c 2
 897 205 l 2
571 205 m 2
 571 213.256733785 568.989962081 242 541 242 c 0
 495.791666667 242 476.595878136 176.185867896 464 133 c 0
 448.200428492 79.6764461618 447 63.992564783 447 53 c 2
 447 45 l 1
 448.392720656 27.5909917979 453.14371056 -1 486 -1 c 0
 534.04407757 3.36764341542 571 167.339193942 571 196 c 2
 571 205 l 2
244 205 m 2
 244 213.256733785 241.989962081 242 214 242 c 0
 168.791666667 242 149.595878136 176.185867896 137 133 c 0
 121.200428492 79.6764461618 120 63.992564783 120 53 c 2
 120 45 l 1
 121.392720656 27.5909917979 126.14371056 -1 159 -1 c 0
 207.04407757 3.36764341542 244 167.339193942 244 196 c 2
 244 205 l 2
EndSplineSet
Validated: 1
EndChar

StartChar: articTenutoAbove
Encoding: 58532 58532 37
Width: 334
Flags: W
HStem: 0 33<0 334>
LayerCount: 2
Fore
SplineSet
0 0 m 5
 0 33 l 5
 334 33 l 5
 334 0 l 5
 0 0 l 5
EndSplineSet
Validated: 1
EndChar

StartChar: articTenutoBelow
Encoding: 58533 58533 38
Width: 334
Flags: W
HStem: -33 33
LayerCount: 2
Fore
SplineSet
0 0 m 1
 0 -33 l 1
 334 -33 l 1
 334 0 l 1
 0 0 l 1
EndSplineSet
Validated: 9
EndChar

StartChar: articStaccatoAbove
Encoding: 58530 58530 39
Width: 95
Flags: W
HStem: -0 95<8.01562 86.668>
VStem: 0 95<8.01562 86.668>
LayerCount: 2
Fore
SplineSet
0 47 m 4
 0 73 21 95 47 95 c 4
 73 95 95 73 95 47 c 4
 95 21 73 0 47 -0 c 4
 21 0 0 21 0 47 c 4
EndSplineSet
Validated: 1
EndChar

StartChar: articStaccatoBelow
Encoding: 58531 58531 40
Width: 95
Flags: W
HStem: -95 95<8.01562 86.668>
VStem: 0 95<-86.9844 -8.33203>
LayerCount: 2
Fore
SplineSet
0 -48 m 0
 0 -22 21 0 47 0 c 0
 73 0 95 -22 95 -48 c 0
 95 -74 73 -95 47 -95 c 0
 21 -95 0 -74 0 -48 c 0
EndSplineSet
Validated: 1
EndChar

StartChar: articAccentAbove
Encoding: 58528 58528 41
Width: 334
Flags: W
HStem: 0 244
LayerCount: 2
Fore
SplineSet
6 244 m 1
 334 128 l 1
 334 115 l 1
 6 0 l 1
 0 23 l 1
 279 121 l 1
 0 220 l 1
 6 244 l 1
EndSplineSet
Validated: 1
EndChar

StartChar: NameMe.58534
Encoding: 65536 -1 42
Width: 150
Flags: W
HStem: 0 226.929
VStem: 0 150.035
LayerCount: 2
Fore
SplineSet
75.017578125 0 m 1
 42.858512559 60.8389566877 20 128 0 226.928710938 c 1
 28.0130454276 221.5170039 54.0602403213 218.847523505 78.8513990858 218.847523505 c 0
 103.682612511 218.847523505 127.336342453 221.532830276 150.03515625 226.928710938 c 1
 130.032138509 129.824911989 107.786652635 62.5321579498 75.017578125 0 c 1
EndSplineSet
Validated: 1
EndChar

StartChar: articAccentBelow
Encoding: 58529 58529 43
Width: 334
Flags: W
HStem: -244 244
LayerCount: 2
Fore
SplineSet
6 0 m 5
 334 -116 l 5
 334 -129 l 5
 6 -244 l 5
 0 -221 l 5
 279 -123 l 5
 0 -24 l 5
 6 0 l 5
EndSplineSet
Validated: 1
EndChar

StartChar: articStaccatissimoAbove
Encoding: 58534 58534 44
Width: 143
Flags: W
VStem: 57 29<0.0273428 60.386>
LayerCount: 2
Fore
SplineSet
143 306 m 5
 121.666992188 290 97.6669921875 281.333007812 71 280 c 4
 63.6669921875 280 56.3330078125 281 49 283 c 4
 30.3330078125 287.666992188 14 295.333007812 0 306 c 5
 57 26 l 6
 61 8.6669921875 65.6669921875 0 71 0 c 4
 77 0 82 9.3330078125 86 28 c 6
 143 306 l 5
EndSplineSet
Validated: 9
EndChar

StartChar: articStaccatissimoBelow
Encoding: 58535 58535 45
Width: 143
Flags: W
HStem: -306 306
VStem: 57 29<-60.386 -0.0273428>
LayerCount: 2
Fore
SplineSet
143 -306 m 5
 121.666992188 -290 97.6669921875 -281.333007812 71 -280 c 4
 63.6669921875 -280 56.3330078125 -281 49 -283 c 4
 30.3330078125 -287.666992188 14 -295.333007812 0 -306 c 5
 57 -26 l 6
 61 -8.6669921875 65.6669921875 0 71 0 c 4
 77 0 82 -9.3330078125 86 -28 c 6
 143 -306 l 5
EndSplineSet
Validated: 1
EndChar

StartChar: articAccentStaccatoAbove
Encoding: 58544 58544 46
Width: 334
Flags: W
HStem: 0 95<128.016 206.668>
VStem: 120 95<8.01562 86.668>
LayerCount: 2
Fore
SplineSet
120 47 m 0
 120 73 141 95 167 95 c 0
 193 95 215 73 215 47 c 0
 215 21 193 0 167 0 c 0
 141 0 120 21 120 47 c 0
6 359 m 1
 334 243 l 1
 334 230 l 1
 6 115 l 1
 0 138 l 1
 279 236 l 1
 0 335 l 1
 6 359 l 1
EndSplineSet
Validated: 1
EndChar

StartChar: articAccentStaccatoBelow
Encoding: 58545 58545 47
Width: 334
Flags: W
HStem: -95 95<128.016 206.668>
VStem: 120 95<-86.668 -8.01562>
LayerCount: 2
Fore
SplineSet
120 -47 m 4
 120 -73 141 -95 167 -95 c 4
 193 -95 215 -73 215 -47 c 4
 215 -21 193 0 167 0 c 4
 141 0 120 -21 120 -47 c 4
6 -359 m 5
 334 -243 l 5
 334 -230 l 5
 6 -115 l 5
 0 -138 l 5
 279 -236 l 5
 0 -335 l 5
 6 -359 l 5
EndSplineSet
Validated: 9
EndChar

StartChar: articAccentTenutoAbove
Encoding: 58548 58548 48
Width: 334
Flags: W
HStem: 0 33<0 334>
LayerCount: 2
Fore
SplineSet
0 0 m 1
 0 33 l 1
 334 33 l 1
 334 0 l 1
 0 0 l 1
6 324 m 5
 334 208 l 5
 334 195 l 5
 6 80 l 5
 0 103 l 5
 279 201 l 5
 0 300 l 5
 6 324 l 5
EndSplineSet
Validated: 1
EndChar

StartChar: articAccentTenutoBelow
Encoding: 58549 58549 49
Width: 334
Flags: W
LayerCount: 2
Fore
SplineSet
0 0 m 1
 0 -33 l 1
 334 -33 l 1
 334 0 l 1
 0 0 l 1
6 -324 m 1
 334 -208 l 1
 334 -195 l 1
 6 -80 l 1
 0 -103 l 1
 279 -201 l 1
 0 -300 l 1
 6 -324 l 1
EndSplineSet
Validated: 9
EndChar

StartChar: timeSig0
Encoding: 57472 57472 50
Width: 367
Flags: W
HStem: 0 36<153.012 215.565> 480 36<151.742 215.763>
VStem: 8 106<129.031 386.785> 254 103<125.863 390.156>
LayerCount: 2
Fore
SplineSet
357 258 m 260
 357 228 353.666992188 197.666992188 347 167 c 4
 340.333007812 136.333007812 330 108.666992188 316 84 c 4
 302 59.3330078125 284 39.1669921875 262 23.5 c 4
 240 7.8330078125 213.666992188 0 183 0 c 4
 153 0 127 7.8330078125 105 23.5 c 4
 83 39.1669921875 64.8330078125 59.5 50.5 84.5 c 4
 36.1669921875 109.5 25.5 137.166992188 18.5 167.5 c 4
 11.5 197.833007812 8 228 8 258 c 260
 8 288 11.5 318.166992188 18.5 348.5 c 4
 25.5 378.833007812 35.8330078125 406.333007812 49.5 431 c 4
 63.1669921875 455.666992188 81.3330078125 476 104 492 c 4
 126.666992188 508 153 516 183 516 c 4
 213.666992188 516 240 508.166992188 262 492.5 c 4
 284 476.833007812 302 456.666992188 316 432 c 4
 330 407.333007812 340.333007812 379.666992188 347 349 c 4
 353.666992188 318.333007812 357 288 357 258 c 260
254 255 m 4
 254 278.333007812 253 303 251 329 c 4
 249 355 245.5 379.333007812 240.5 402 c 4
 235.5 424.666992188 228.333007812 443.333007812 219 458 c 4
 209.666992188 472.666992188 198 480 184 480 c 4
 168.666992188 479.333007812 156.666992188 471.833007812 148 457.5 c 4
 139.333007812 443.166992188 132.5 424.666992188 127.5 402 c 4
 122.5 379.333007812 119 355 117 329 c 4
 115 303 114 278.333007812 114 255 c 4
 114 233 115 209.166992188 117 183.5 c 4
 119 157.833007812 122.666992188 134 128 112 c 4
 133.333007812 90 140.5 72 149.5 58 c 4
 158.5 44 170 36.6669921875 184 36 c 4
 198 36.6669921875 209.5 44 218.5 58 c 4
 227.5 72 234.666992188 90.3330078125 240 113 c 4
 245.333007812 135.666992188 249 159.5 251 184.5 c 4
 253 209.5 254 233 254 255 c 4
EndSplineSet
Validated: 1
EndChar

StartChar: timeSig1
Encoding: 57473 57473 51
Width: 324
Flags: W
HStem: 5 28<20 102.367 228.837 306>
VStem: 112 108<37.9991 462>
LayerCount: 2
Fore
SplineSet
20 5 m 5
 20 33 l 5
 72 33 l 6
 74 33 77.3330078125 33.5 82 34.5 c 4
 86.6669921875 35.5 91.6669921875 38 97 42 c 4
 102.333007812 46.6669921875 106.166992188 50.5 108.5 53.5 c 4
 110.833007812 56.5 112 60.6669921875 112 66 c 6
 112 462 l 5
 100 442.666992188 87.5 426.333007812 74.5 413 c 4
 61.5 399.666992188 46.3330078125 385.666992188 29 371 c 4
 27 369 23.3330078125 366 18 362 c 5
 0 380 l 5
 13.3330078125 393.333007812 24.6669921875 404.5 34 413.5 c 4
 43.3330078125 422.5 52 431.5 60 440.5 c 4
 68 449.5 75.6669921875 459.666992188 83 471 c 4
 90.3330078125 482.333007812 98 496.666992188 106 514 c 5
 124 508 142.666992188 505 162 505 c 4
 182.666992188 505 202 508 220 514 c 5
 220 66 l 6
 220 63.3330078125 221 59.8330078125 223 55.5 c 4
 225 51.1669921875 228.333007812 47 233 43 c 4
 239.666992188 38.3330078125 247.333007812 35.3330078125 256 34 c 4
 260 33.3330078125 264 33 268 33 c 6
 306 33 l 5
 306 5 l 5
 20 5 l 5
EndSplineSet
Validated: 1
EndChar

StartChar: timeSig2
Encoding: 57474 57474 52
Width: 374
Flags: W
HStem: 1 21G<6 10.6665> 3 93<215.631 289.411> 68 80<60.9157 147.667> 473 35<102.036 225.313>
VStem: 22 67<369.333 447.409> 261 93<304.6 442.219>
LayerCount: 2
Fore
SplineSet
366 171 m 4x5c
 366 157.666992188 362.5 141.5 355.5 122.5 c 4
 348.5 103.5 339 85 327 67 c 4
 315 49 301.166992188 33.8330078125 285.5 21.5 c 4
 269.833007812 9.1669921875 254 3 238 3 c 4x5c
 224.666992188 3 210.833007812 6.3330078125 196.5 13 c 4
 182.166992188 19.6669921875 168.333007812 27.1669921875 155 35.5 c 4
 141.666992188 43.8330078125 128.833007812 51.1669921875 116.5 57.5 c 4
 104.166992188 63.8330078125 91.3330078125 67.3330078125 78 68 c 4
 62 67.3330078125 50.5 63.6669921875 43.5 57 c 4
 36.5 50.3330078125 31.5 42.6669921875 28.5 34 c 4
 25.5 25.3330078125 22.6669921875 17.6669921875 20 11 c 4
 17.3330078125 4.3330078125 13.3330078125 1 8 1 c 4
 4 1 1.3330078125 3.1669921875 0 7.5 c 4
 -1.3330078125 11.8330078125 -2 16 -2 20 c 4
 -2 40.6669921875 3.5 63.5 14.5 88.5 c 4
 25.5 113.5 38.3330078125 134 53 150 c 4
 66.3330078125 164 84.5 178.833007812 107.5 194.5 c 4
 130.5 210.166992188 153.666992188 226.666992188 177 244 c 4
 200.333007812 261.333007812 220 280 236 300 c 4
 252 320 260.333007812 341.666992188 261 365 c 4
 261 397 253.666992188 422.833007812 239 442.5 c 4
 224.333007812 462.166992188 200 472.333007812 166 473 c 4
 161.333007812 473 154.666992188 472.333007812 146 471 c 4
 137.333007812 469.666992188 128.666992188 467.5 120 464.5 c 4
 111.333007812 461.5 104 457.5 98 452.5 c 4
 92 447.5 89 441.666992188 89 435 c 4
 89 431 90.8330078125 428.5 94.5 427.5 c 4
 98.1669921875 426.5 102 425.666992188 106 425 c 4
 121.333007812 422.333007812 132.333007812 415.333007812 139 404 c 4
 145.666992188 392.666992188 149 379.666992188 149 365 c 4
 149 348.333007812 142.666992188 334.166992188 130 322.5 c 4
 117.333007812 310.833007812 102.666992188 305 86 305 c 4
 65.3330078125 305.666992188 49.5 313.333007812 38.5 328 c 4
 27.5 342.666992188 22 359.666992188 22 379 c 4
 22 400.333007812 26.6669921875 419.166992188 36 435.5 c 4
 45.3330078125 451.833007812 58.1669921875 465.5 74.5 476.5 c 4
 90.8330078125 487.5 108.833007812 495.5 128.5 500.5 c 4
 148.166992188 505.5 167.666992188 508 187 508 c 4
 207.666992188 508 228 505.166992188 248 499.5 c 4
 268 493.833007812 286 485.333007812 302 474 c 4
 318 462.666992188 330.666992188 448.333007812 340 431 c 4
 349.333007812 413.666992188 354 393.333007812 354 370 c 4
 353.333007812 346 347.333007812 325 336 307 c 4
 324.666992188 289 309.833007812 273 291.5 259 c 4
 273.166992188 245 253.166992188 232.333007812 231.5 221 c 4
 209.833007812 209.666992188 188.833007812 199 168.5 189 c 4
 148.166992188 179 129.666992188 168.5 113 157.5 c 4
 96.3330078125 146.5 84.3330078125 135 77 123 c 5
 85 132.333007812 94.8330078125 138.833007812 106.5 142.5 c 4
 118.166992188 146.166992188 129.666992188 148 141 148 c 4xbc
 154.333007812 148 166.5 145.333007812 177.5 140 c 4
 188.5 134.666992188 199 128.666992188 209 122 c 4
 219 115.333007812 229.166992188 109.333007812 239.5 104 c 4
 249.833007812 98.6669921875 260.666992188 96 272 96 c 4
 288 96.6669921875 300.333007812 101.333007812 309 110 c 4
 317.666992188 118.666992188 324.833007812 128.666992188 330.5 140 c 4
 336.166992188 151.333007812 340.666992188 161.166992188 344 169.5 c 4
 347.333007812 177.833007812 351.666992188 182.666992188 357 184 c 4
 360.333007812 184 362.666992188 182.666992188 364 180 c 4
 365.333007812 177.333007812 366 174.333007812 366 171 c 4x5c
EndSplineSet
Validated: 1
EndChar

StartChar: timeSig5
Encoding: 57477 57477 53
Width: 358
Flags: W
HStem: 0 32<92.5483 200.563> 291 40<109.302 206.151> 406 84<67.5462 267.497>
VStem: 8 122<94.4709 174.467> 8 66<56.4308 81.6697> 37 30.5<272 416> 254 94<93.1251 243.118>
LayerCount: 2
Fore
SplineSet
348 173 m 4xe6
 348 149 342.833007812 126.333007812 332.5 105 c 4
 322.166992188 83.6669921875 308.333007812 65.1669921875 291 49.5 c 4
 273.666992188 33.8330078125 254 21.6669921875 232 13 c 4
 210 4.3330078125 187.333007812 0 164 0 c 4
 144.666992188 0 125.666992188 2.3330078125 107 7 c 4
 88.3330078125 11.6669921875 71.6669921875 19.1669921875 57 29.5 c 4
 42.3330078125 39.8330078125 30.5 53.1669921875 21.5 69.5 c 4
 12.5 85.8330078125 8 105 8 127 c 6
 8 129 l 6
 8 145 13.8330078125 159.333007812 25.5 172 c 4
 37.1669921875 184.666992188 52 191.333007812 70 192 c 4
 86.6669921875 192 100.833007812 186.333007812 112.5 175 c 4
 124.166992188 163.666992188 130 149.666992188 130 133 c 4xf2
 130 117 125 104 115 94 c 4
 105 84 93.3330078125 79 80 79 c 4
 76 79 74 77 74 73 c 4
 74 67 77.3330078125 61 84 55 c 6
 92 48 l 6
 96.6669921875 44 103.333007812 40.3330078125 112 37 c 4
 120.666992188 33.6669921875 133 32 149 32 c 6
 154 32 l 6
 181.333007812 32.6669921875 204.666992188 45.6669921875 224 71 c 4
 243.333007812 96.3330078125 253.333007812 130 254 172 c 4
 254 188 251.166992188 203.166992188 245.5 217.5 c 4
 239.833007812 231.833007812 232.333007812 244.5 223 255.5 c 4
 213.666992188 266.5 203 275.166992188 191 281.5 c 4
 179 287.833007812 166.666992188 291 154 291 c 6
 153 291 l 6
 133.666992188 289.666992188 117 283.833007812 103 273.5 c 4
 89 263.166992188 79.3330078125 253.333007812 74 244 c 4xea
 67.3330078125 232 59.6669921875 226 51 226 c 4
 46.3330078125 226 42.3330078125 228.166992188 39 232.5 c 4
 35.6669921875 236.833007812 34 242.666992188 34 250 c 6
 34 255 l 6
 35.3330078125 264.333007812 36.1669921875 277.333007812 36.5 294 c 4
 36.8330078125 310.666992188 37 329 37 349 c 4
 37 379 36.5 409.333007812 35.5 440 c 4
 34.5 470.666992188 33.3330078125 495.333007812 32 514 c 5
 79.3330078125 498 125 490 169 490 c 4
 223.666992188 490 278.666992188 502.333007812 334 527 c 5
 330 509 324.333007812 492.833007812 317 478.5 c 4
 309.666992188 464.166992188 299.5 451.5 286.5 440.5 c 4
 273.5 429.5 257.166992188 421 237.5 415 c 4
 217.833007812 409 194 406 166 406 c 4
 152 406 136.833007812 406.833007812 120.5 408.5 c 4
 104.166992188 410.166992188 86.3330078125 412.666992188 67 416 c 5
 67 408.666992188 67.1669921875 400.166992188 67.5 390.5 c 4
 67.8330078125 380.833007812 68 370.333007812 68 359 c 4
 68 343.666992188 67.8330078125 328.166992188 67.5 312.5 c 4
 67.1669921875 296.833007812 66.6669921875 283.333007812 66 272 c 5
 78 289.333007812 94.3330078125 303.5 115 314.5 c 4
 135.666992188 325.5 156 331 176 331 c 4
 200.666992188 330.333007812 223.333007812 326.166992188 244 318.5 c 4
 264.666992188 310.833007812 282.666992188 300.166992188 298 286.5 c 4
 313.333007812 272.833007812 325.5 256.333007812 334.5 237 c 4
 343.5 217.666992188 348 196.333007812 348 173 c 4xe6
EndSplineSet
Validated: 1
EndChar

StartChar: timeSig6
Encoding: 57478 57478 54
Width: 363
Flags: W
HStem: 0 28<145.861 223.789> 265 48<132.828 241.479> 479 33<165.805 248.847>
VStem: 0 110<130.454 242.582 274 360.296> 249 89<167.154 255.779 407.333 475.281> 259 84<77.1675 248.235>
LayerCount: 2
Fore
SplineSet
343 166 m 0xf4
 343 118.666992188 329 80 301 50 c 0
 273 20 241 0 181 0 c 7
 168.222981771 0 135.999511719 0 104 21 c 4
 82.6669921875 35 64.3330078125 53.5 49 76.5 c 0
 33.6669921875 99.5 21.6669921875 126.166992188 13 156.5 c 0
 4.3330078125 186.833007812 0 218 0 250 c 0
 0 286 6 319.833007812 18 351.5 c 0
 30 383.166992188 45.5 410.666992188 64.5 434 c 0
 83.5 457.333007812 104.833007812 476 128.5 490 c 0
 152.166992188 504 175.333007812 511.333007812 198 512 c 2
 208 512 l 2
 251.333007812 512 283.833007812 503.166992188 305.5 485.5 c 0
 327.166992188 467.833007812 338 445 338 417 c 0
 338 397.666992188 332.5 381.666992188 321.5 369 c 0
 310.5 356.333007812 297 350 281 350 c 0
 261.666992188 350 246.166992188 355.5 234.5 366.5 c 0
 222.833007812 377.5 217 388.666992188 217 400 c 2
 217 401 l 2
 217.666992188 414.333007812 219.666992188 424.833007812 223 432.5 c 0
 226.333007812 440.166992188 232 447 240 453 c 0
 246 458.333007812 249 462.666992188 249 466 c 0xf8
 249 474.666992188 239.666992188 479 221 479 c 2
 213 479 l 2
 193 477 176.666992188 471.166992188 164 461.5 c 0
 151.333007812 451.833007812 141.166992188 438.166992188 133.5 420.5 c 0
 125.833007812 402.833007812 120.5 381.833007812 117.5 357.5 c 0
 114.5 333.166992188 112.333007812 305.333007812 111 274 c 1
 122.333007812 287.333007812 135.833007812 297 151.5 303 c 0
 167.166992188 309 184 312.333007812 202 313 c 2
 208 313 l 2
 225.333007812 313 242.166992188 310 258.5 304 c 0
 274.833007812 298 289.166992188 289 301.5 277 c 0
 313.833007812 265 323.833007812 249.666992188 331.5 231 c 0
 339.166992188 212.333007812 343 190.666992188 343 166 c 0xf4
259 156 m 256xf4
 259 193.333007812 254.166992188 220.833007812 244.5 238.5 c 0
 234.833007812 256.166992188 216 265 188 265 c 2
 186 265 l 2
 176 265 166.5 263 157.5 259 c 0
 148.5 255 140.5 250 133.5 244 c 0
 126.5 238 120.833007812 231.333007812 116.5 224 c 0
 112.166992188 216.666992188 110 209.666992188 110 203 c 2
 110 178 l 2
 110 132 115.833007812 95.5 127.5 68.5 c 0
 139.166992188 41.5 157.666992188 28 183 28 c 0
 210.333007812 28 229.833007812 40 241.5 64 c 0
 253.166992188 88 259 118.666992188 259 156 c 256xf4
EndSplineSet
Validated: 1
EndChar

StartChar: timeSig9
Encoding: 57481 57481 55
Width: 361
Flags: W
HStem: 0 35<104.741 181.32> 205 46<115.911 224.416> 486 28<129.603 207.438>
VStem: 8 86<270.577 435.059> 13 89<39.3105 73.9558> 246 105<209.984 382.894>
LayerCount: 2
Fore
SplineSet
177 514 m 6xf4
 272.6691054 514 351 401.455611206 351 264 c 4
 351 131.76382931 254.415290199 2.98421624256 153 0 c 5
 144 0 l 6
 62.0478085554 0 13 37.8154859855 13 101 c 4
 13 138.879864971 36.7822722558 166 70 166 c 4
 103.887532617 166 134 141.533620252 134 114 c 6
 134 113 l 5
 131.152166953 56.0725262302 102 65.194620974 102 48 c 4xec
 102.666984625 40.0000907039 111.99979591 35.6669997501 130 35 c 6
 138 35 l 5
 200.873856492 39.6561856614 229.652568117 96.9368905312 242 242 c 5
 220.784751975 218.428077695 190.93925894 206.554064337 149 205 c 5
 145 205 l 6
 64.188199644 205 8 262.82873102 8 346 c 4
 8 445.034964343 68.2955448923 507.563677564 170 514 c 5
 177 514 l 6xf4
94 358 m 4xf4
 94 284.003689471 115.899644416 251 165 251 c 4
 208.951757958 251 240.576598074 272.488673412 243 304 c 4
 244.999979655 323.332811151 246 340.999837239 246 357 c 4
 246 440.333007812 220 483.333007812 168 486 c 5
 164 486 l 6
 117.674606095 486 94 442.709291712 94 358 c 4xf4
EndSplineSet
Validated: 1
EndChar

StartChar: noteheadWhole
Encoding: 57506 57506 56
Width: 367
Flags: W
HStem: -131 29<159.406 246.267> 101 30<116.933 208.067>
VStem: 0 97<-38.9953 63.9567> 271 96<-63.8708 39.2786>
LayerCount: 2
Fore
SplineSet
183 131 m 4
 267.973632812 131 367 89.208984375 367 0 c 260
 367 -81.2724609375 282.55078125 -131 182 -131 c 260
 81.927734375 -131 0 -81.083984375 0 0 c 260
 0 86.5888671875 94.5458984375 131 183 131 c 4
271 -36 m 4
 271 6.544921875 235.892578125 101 165 101 c 4
 136.9296875 101 97 91.43359375 97 37 c 4
 97 -9.9619140625 134.200195312 -102 203 -102 c 4
 206.82421875 -102 271 -101.03125 271 -36 c 4
EndSplineSet
Validated: 1
EndChar

StartChar: dynamicMP
Encoding: 58668 58668 57
Width: 712
Flags: W
HStem: -154 31<359.571 372.37> -48 29<517.825 568.61> -11 41<285.341 338.546> 0 21G<38 98.6187 145 205.619> 183 45<60.2053 88.9961 168.829 191.997 278.126 328.039> 213 49<434.978 471.997> 224 30<569.596 625.802>
VStem: 262 65<8.14797 101.433> 300 62<101.433 202.994> 382 11<128.586 136.566> 632 67<78.8769 211.243>
LayerCount: 2
Fore
SplineSet
616 254 m 2xc260
 657.975621996 254 699 196.30067096 699 136 c 2
 699 129 l 2
 699 24.4178951908 636.613502766 -48 566 -48 c 2
 563 -48 l 2
 547.272861584 -47.4757620528 499.023254331 -43.0658872724 487 -9 c 1
 452 -123 l 1
 452 -125 l 2
 452 -139.668657392 499 -126.594935989 499 -154 c 1
 318 -154 l 1
 325.9836941 -124.726454965 351.095251066 -142.72220709 368 -123 c 1
 380.876868138 -87.5886126201 472 196.606697774 472 200 c 0
 472 206.666666667 467.666666667 211 459 213 c 1
 458 213 l 2
 434.602954831 213 397.469322282 133.363186738 393 128 c 0
 392.007129471 128 383.360759153 128.196204236 382 135 c 0
 382.383213963 136.532855851 413.450025603 258.707896084 476 262 c 1
 478 262 l 2xc460
 492.024612814 261.09518627 527.054945055 258.835164835 540 220 c 1
 566.968001425 251.871274411 589.78645721 253.349516329 608 254 c 2
 616 254 l 2xc260
333 30 m 0xe960
 355.068941972 30 382.674147273 82.3482945451 383 83 c 1
 389 77 l 1
 388.427409396 75.8548187916 344.24634307 -11 296 -11 c 0
 274.681559611 -11 262 6.11162167682 262 25 c 256xe960
 262 65.8147355903 300 121.938188386 300 167 c 0xe8e0
 300 171.103372477 299.206182329 183 290 183 c 256
 277.74680999 183 253.879603966 161.199009916 245 139 c 1
 199 0 l 1
 145 0 l 1
 188 139 l 2
 189.051152068 142.153456203 192 152.3330091 192 167 c 256
 192 181.508169005 188.193088129 183 181 183 c 0
 166.058218391 183 144.054748025 157.164244075 138 139 c 2
 92 0 l 1
 38 0 l 1
 49.5191152441 34.5573457323 68.5700196723 81.495068853 82 128.5 c 0
 86.6666666667 144.833333333 89 157 89 165 c 0
 89 177 83.6666666667 183.333333333 73 184 c 0
 44.4496107573 184 11.3526125585 105.940300156 11 105 c 2
 3 105 l 1
 11.370356754 130.111070262 46.6315548549 225.085871308 102 228 c 0
 107.034632035 228 123.363636364 228 152 193 c 1
 160.724656966 201.101467183 190.205518677 226 223 226 c 0
 239.766779386 224.323322061 261.720164884 194.419752674 262 194 c 1
 264.584948914 196.369536504 294.403197491 223.082541029 327 225 c 0xd960
 356.077982005 225 362 200.753664296 362 181 c 0xd8e0
 362 132.696220797 327 91.3037792029 327 43 c 0
 327 42.2095358893 327.095576981 30 333 30 c 0xe960
632 187 m 2
 632 195.256733785 629.989962081 224 602 224 c 0xc260
 556.791666667 224 537.595878136 158.185867896 525 115 c 0
 509.200428492 61.6764461618 508 45.992564783 508 35 c 2
 508 27 l 1
 509.392720656 9.59099179795 514.14371056 -19 547 -19 c 0
 595.04407757 -14.6323565846 632 149.339193942 632 178 c 2
 632 187 l 2
EndSplineSet
Validated: 1
EndChar

StartChar: dynamicNiente
Encoding: 58662 58662 58
Width: 311
Flags: W
HStem: 0 21G<38 98.6187> 185 45<167.896 199>
VStem: 183 65<12.4146 107.787> 216 62<89.7539 183.936>
LayerCount: 2
Fore
SplineSet
310 77 m 1xe0
 306 69 300.666666667 59.8333333333 294 49.5 c 0
 287.333333333 39.1666666667 280 29.6666666667 272 21 c 0
 264 12.3333333333 255.166666667 4.83333333333 245.5 -1.5 c 0
 235.833333333 -7.83333333333 226.333333333 -11 217 -11 c 0
 207 -11 198.833333333 -7.5 192.5 -0.5 c 0
 186.166666667 6.5 183 15 183 25 c 256xe0
 183 35 184.666666667 45.6666666667 188 57 c 0
 191.333333333 68.3333333333 195.166666667 80 199.5 92 c 0
 203.833333333 104 207.666666667 115.833333333 211 127.5 c 0
 214.333333333 139.166666667 216 150.666666667 216 162 c 0
 216 165.333333333 214.333333333 169.5 211 174.5 c 0
 207.666666667 179.5 203.666666667 182.666666667 199 184 c 2
 190 185 l 2
 179.333333333 185 169.5 181.666666667 160.5 175 c 0
 151.5 168.333333333 144 156.333333333 138 139 c 2
 92 0 l 1
 38 0 l 1
 40.6666666667 8 44.6666666667 19.3333333333 50 34 c 0
 55.3333333333 48.6666666667 61 64.5 67 81.5 c 0
 73 98.5 78.1666666667 114.666666667 82.5 130 c 0
 86.8333333333 145.333333333 89 157 89 165 c 0
 89 177 83.6666666667 183.333333333 73 184 c 0
 67 184 60.6666666667 180.833333333 54 174.5 c 0
 47.3333333333 168.166666667 41.3333333333 160.666666667 36 152 c 0
 30.6666666667 143.333333333 25.6666666667 134.666666667 21 126 c 0
 16.3333333333 117.333333333 13 110.333333333 11 105 c 1
 3 105 l 1
 6.33333333333 115.666666667 11.3333333333 128.166666667 18 142.5 c 0
 24.6666666667 156.833333333 32 170.166666667 40 182.5 c 0
 48 194.833333333 57.1666666667 205.333333333 67.5 214 c 0
 77.8333333333 222.666666667 89.3333333333 227.333333333 102 228 c 0
 111.333333333 228 120.833333333 224 130.5 216 c 0
 140.166666667 208 147.333333333 200.333333333 152 193 c 1
 165.333333333 207 176.833333333 216.666666667 186.5 222 c 0
 196.166666667 227.333333333 206.666666667 230 218 230 c 2
 218 230 218 230 219 230 c 1
 220 230 220 230 220 230 c 257
 221 230 221 230 221 230 c 257
 224 230 l 1
 225 230 l 2
 227 230 229.333333333 229.666666667 232 229 c 0
 245.333333333 227 256.333333333 221.833333333 265 213.5 c 0
 273.666666667 205.166666667 278 194 278 180 c 2
 278 178 l 2xd0
 278 166.666666667 276.5 155.333333333 273.5 144 c 0
 270.5 132.666666667 267 121.5 263 110.5 c 0
 259 99.5 255.5 88.3333333333 252.5 77 c 0
 249.5 65.6666666667 248 54.3333333333 248 43 c 0
 248 41 248.333333333 38.5 249 35.5 c 0
 249.666666667 32.5 251.333333333 30.6666666667 254 30 c 0
 258 30 262.5 31.8333333333 267.5 35.5 c 0
 272.5 39.1666666667 277 43.5 281 48.5 c 0
 285 53.5 288.666666667 58.5 292 63.5 c 0
 295.333333333 68.5 298.666666667 73.6666666667 302 79 c 2
 304 83 l 1
 310 77 l 1xe0
EndSplineSet
Validated: 1
EndChar

StartChar: dynamicZ
Encoding: 58661 58661 59
Width: 202
Flags: W
HStem: -10 61<94.1446 132.383> 36 53<19.9417 78.1964> 187 51<100.449 166.889> 211 50<52.1307 109.561>
VStem: -34 234
LayerCount: 2
Fore
SplineSet
187 257 m 0x28
 195.162631439 257 200 252.906841987 200 246 c 0
 200 244.666666667 199.666666667 243 199 241 c 2
 199 240 l 1
 198 239 l 257
 198 237 l 257
 197 236 l 257
 197 235 l 1
 187.165318564 205.495955692 151.885155571 162.491733345 112.5 132 c 0
 90.5297885858 114.990804066 74.3394639557 100.599404395 63 88 c 1
 64.3333333333 88.6666666667 66.3333333333 89 69 89 c 0x68
 87.3927460685 89 105.607253932 51 124 51 c 0
 144.061085285 51 154.938914715 93 175 93 c 0
 179.666666667 92.3333333333 182 90.3333333333 182 87 c 2
 182 86 l 1
 178.408159097 57.2652727795 120.25172534 -10 99 -10 c 0x88
 79.5637113642 -10 55.4362886358 36 36 36 c 0
 9.46506071583 36 1.53493928417 -3 -25 -3 c 256
 -30.3333333333 -3 -33.3333333333 2.6645352591e-15 -34 6 c 1
 -27.8659254543 48.93852182 20.385911019 107.714421392 87.5 154 c 0
 117.450192584 174.655305231 124.836173692 180.737877908 130 189 c 1
 126 187.666666667 122.666666667 187 120 187 c 0x68
 101.224210262 187 83.7757897385 211 65 211 c 2
 64 211 l 1
 57.3357786805 209.889296447 49.0789011416 204.078901142 37 192 c 2
 23 178 l 2
 18.3333333333 173.333333333 13.3333333333 170 8 168 c 0
 4 168.666666667 2 170.666666667 2 174 c 0
 2 197.821679028 66.6306961665 261 91 261 c 0x18
 116.239362563 261 124.760637437 238 150 238 c 0
 168.245235618 238 168.754764382 257 187 257 c 0x28
EndSplineSet
Validated: 1
EndChar

StartChar: dynamicS
Encoding: 58660 58660 60
Width: 231
Flags: W
HStem: 0 19<61.4073 108.219> 247 18<121.189 158.142>
VStem: 3 54<22.7499 75.6667> 62 49<163.191 240.118> 124 50<29.041 115.111> 160 60<189.055 246.448>
LayerCount: 2
Fore
SplineSet
220 204 m 0xf4
 220 193.333333333 216.5 184.5 209.5 177.5 c 0
 202.5 170.5 193.666666667 167 183 167 c 0
 174.333333333 167 166.333333333 170 159 176 c 0
 151.666666667 182 147.666666667 190 147 200 c 0
 147 206 147.666666667 210.833333333 149 214.5 c 0
 150.333333333 218.166666667 151.833333333 221 153.5 223 c 0
 155.166666667 225 156.666666667 226.5 158 227.5 c 0
 159.333333333 228.5 160 230 160 232 c 0xf4
 160 236 158 239.5 154 242.5 c 0
 150 245.5 146 247 142 247 c 0
 132.666666667 247 125.166666667 243.5 119.5 236.5 c 0
 113.833333333 229.5 111 221.333333333 111 212 c 0
 111 203.333333333 114.5 193.166666667 121.5 181.5 c 0
 128.5 169.833333333 136 158 144 146 c 0
 152 134 158.833333333 122.5 164.5 111.5 c 0
 170.166666667 100.5 173.333333333 89 174 77 c 0
 173.333333333 50.3333333333 164.166666667 30.8333333333 146.5 18.5 c 0
 128.833333333 6.16666666667 107.666666667 0 83 0 c 0
 73 0 63.3333333333 1.66666666667 54 5 c 0
 44.6666666667 8.33333333333 36.1666666667 13.1666666667 28.5 19.5 c 0
 20.8333333333 25.8333333333 14.6666666667 33.3333333333 10 42 c 0
 5.33333333333 50.6666666667 3 60 3 70 c 0
 3 81.3333333333 6.5 91.3333333333 13.5 100 c 0
 20.5 108.666666667 30.6666666667 113.333333333 44 114 c 0
 54.6666666667 114 63.8333333333 110.333333333 71.5 103 c 0
 79.1666666667 95.6666666667 83 86.6666666667 83 76 c 0
 83 69.3333333333 81.8333333333 63.6666666667 79.5 59 c 0
 77.1666666667 54.3333333333 74.5 50.6666666667 71.5 48 c 0
 68.5 45.3333333333 65.3333333333 43 62 41 c 0
 58.6666666667 39 57 37.3333333333 57 36 c 0
 57 32 60.3333333333 28.1666666667 67 24.5 c 0
 73.6666666667 20.8333333333 79 19 83 19 c 0
 95.6666666667 19 105.666666667 23.8333333333 113 33.5 c 0
 120.333333333 43.1666666667 124 53.6666666667 124 65 c 0xf8
 124 74.3333333333 120.833333333 84.5 114.5 95.5 c 0
 108.166666667 106.5 101 117.5 93 128.5 c 0
 85 139.5 77.8333333333 150.666666667 71.5 162 c 0
 65.1666666667 173.333333333 62 184.666666667 62 196 c 0
 63.3333333333 219.333333333 72.1666666667 236.666666667 88.5 248 c 0
 104.833333333 259.333333333 124 265 146 265 c 0
 154.666666667 265 163.166666667 263.666666667 171.5 261 c 0
 179.833333333 258.333333333 187.833333333 254.166666667 195.5 248.5 c 0
 203.166666667 242.833333333 209.166666667 236.333333333 213.5 229 c 0
 217.833333333 221.666666667 220 213.333333333 220 204 c 0xf4
EndSplineSet
Validated: 1
EndChar

StartChar: dynamicR
Encoding: 58659 58659 61
Width: 249
Flags: W
HStem: 219 36<148.803 191.721> 225 20<26 57.8397>
VStem: 3 238
LayerCount: 2
Fore
SplineSet
196 255 m 4xa0
 211.64088264 255 241 245.861588752 241 215 c 4
 241 199.748658254 233.792702731 174 204 174 c 4
 160.665625489 174 177.318942412 219 165 219 c 4xa0
 149.590254258 219 101.772128232 160.202448813 82 91 c 4
 76.6666666667 72.3333333333 71.6666666667 53.3333333333 67 34 c 6
 64 21 l 5
 3 21 l 5
 47 164 l 5
 47 165 l 6
 47.6666666667 165.666666667 48 166.666666667 48 168 c 6
 49 169 l 5
 49 171 l 6
 49.6666666667 171.666666667 50 172.333333333 50 173 c 4
 54.1199208271 185.359762481 59 201.209207096 59 207 c 4
 59 213.666666667 59 225 34 225 c 6
 20 225 l 5
 26 245 l 5x60
 123 251 l 5
 107 189 l 5
 108 188 l 5
 124.532998375 217.523211384 153.360091105 253.578669703 196 255 c 4xa0
EndSplineSet
Validated: 1
EndChar

StartChar: dynamicFortePiano
Encoding: 58676 58676 62
Width: 502
Flags: W
HStem: -158 103<-161.723 -107.093> -158 18<-106 -73.0531> -3 25<344.78 387.98> 218 30<9 78 174 238> 220 41<272.014 304.997> 229 26<388.424 436.9> 386 18<225.348 266.282>
VStem: -172 66<-139.718 -101.508> 78 90<141.764 218> 87 87<248 306.137> 229 10<147.459 157> 267 53<367.691 385.166> 442 57<99.3538 222.621>
LayerCount: 2
Fore
SplineSet
234 404 m 0x7378
 272.61487606 404 320 389.395645203 320 344 c 0
 320 318.31211937 304.401289132 295 274 295 c 0
 250.212699037 295 229 308.760799244 229 333 c 0
 229 373.29380992 263.775279701 373.162919552 267 378 c 0
 267 385.711064051 252.217338622 386 250 386 c 0
 222.94828101 386 190.010609783 360.074268481 174 248 c 1x7378
 238 248 l 1
 238 218 l 1
 168 218 l 1
 157.901619484 175.182866613 121.738735227 35.615741601 63 -41 c 0
 58.8796807235 -46.3743294911 -27.7027569327 -158 -111 -158 c 2
 -114 -158 l 2
 -134.986468754 -158 -172 -145.203523713 -172 -105 c 0
 -172 -98.0151748113 -170.088355044 -55 -123 -55 c 0xb3b8
 -101.044633709 -55 -77 -74.1238803607 -77 -98 c 0
 -77 -130.980216304 -106 -129.504458025 -106 -136 c 256
 -106 -137.444444444 -106 -140 -98 -140 c 0
 -21.0090265321 -140 48.3535783521 99.4143134082 78 218 c 1x73b8
 9 218 l 1
 9 248 l 1
 87 248 l 1
 110.256456534 320.095015254 144.248856883 404 234 404 c 0x7378
427 255 m 2x2778
 462.154670773 255 499 207.030202381 499 154 c 2
 499 148 l 2
 499 64.0464944837 448.797507946 -3 385 -3 c 2
 383 -3 l 2
 362.824786081 -2.22403023388 329.055839139 3.36040215242 318 31 c 1
 288 -67 l 1
 288 -68 l 2
 288 -82.4518901106 328 -67.8467210005 328 -93 c 1
 174 -93 l 1
 182.37618617 -67.8714414885 199.601909814 -84.3980901856 217 -67 c 1
 217.832416621 -64.2252779294 305 202.634848417 305 209 c 0
 305 215 301.333333333 218.666666667 294 220 c 1
 293 220 l 2
 273.230234156 220 240.482130747 149.976174329 239 148 c 0
 238.333333333 147.333333333 237.333333333 147 236 147 c 0
 235.907804555 147 229 147.72683853 229 153 c 0
 234.182925838 178.914629191 264.514992804 261 309 261 c 2
 310 261 l 2x2b78
 320.497385625 260.596254399 352.736526946 259.356287425 363 226 c 1
 386.485363399 251.833899739 401.931193578 254.205466399 421 255 c 2
 427 255 l 2x2778
442 196 m 2
 442 200.402298295 441.03651203 229 416 229 c 0x2738
 355.249787848 229 336 69.7978042163 336 68 c 2
 336 61 l 1
 337.236731516 48.0143190799 341.143416868 22 369 22 c 0
 395.071929192 24.8968810213 408.426956602 64.2808698071 422 105 c 0
 422.276134025 105.828402076 442 165.453492159 442 190 c 2
 442 196 l 2
EndSplineSet
Validated: 1
EndChar

StartChar: dynamicFFF
Encoding: 58672 58672 63
Width: 690
Flags: W
HStem: -158 103<-161.723 -107.093 68.2767 122.907 298.277 352.907> -158 18<-106 -73.0531 124 156.947 354 386.947> 218 30<9 78 174 238 239 308 404 468 469 538 634 698> 386 18<225.348 266.282 455.348 496.282 685.348 726.282>
VStem: -172 66<-139.718 -101.508> 58 66<-139.718 -101.508> 78 90<141.764 218> 87 87<248 306.137> 267 53<367.691 385.166> 288 66<-139.718 -101.508> 308 90<141.764 218> 317 87<248 306.137> 497 53<367.691 385.166> 538 90<141.764 218> 547 87<248 306.137> 727 53<367.691 385.166>
LayerCount: 2
Fore
SplineSet
694 404 m 0x7803
 732.61487606 404 780 389.395645203 780 344 c 0
 780 318.31211937 764.401289132 295 734 295 c 0
 710.212699037 295 689 308.760799244 689 333 c 0
 689 373.29380992 723.775279701 373.162919552 727 378 c 0
 727 385.711064051 712.217338622 386 710 386 c 0
 682.94828101 386 650.010609783 360.074268481 634 248 c 1x7803
 698 248 l 1
 698 218 l 1
 628 218 l 1
 617.901619484 175.182866613 581.738735227 35.615741601 523 -41 c 0
 518.879680723 -46.3743294911 432.297243067 -158 349 -158 c 2
 346 -158 l 2
 325.013531246 -158 288 -145.203523713 288 -105 c 0
 288 -98.0151748113 289.911644956 -55 337 -55 c 0xb845
 358.955366291 -55 383 -74.1238803607 383 -98 c 0
 383 -130.980216304 354 -129.504458025 354 -136 c 256
 354 -137.444444444 354 -140 362 -140 c 0
 438.990973468 -140 508.353578352 99.4143134082 538 218 c 1x7845
 469 218 l 1
 469 248 l 1
 547 248 l 1
 570.256456534 320.095015254 604.248856883 404 694 404 c 0x7803
464 404 m 0
 502.61487606 404 550 389.395645203 550 344 c 0
 550 318.31211937 534.401289132 295 504 295 c 0
 480.212699037 295 459 308.760799244 459 333 c 0
 459 373.29380992 493.775279701 373.162919552 497 378 c 0
 497 385.711064051 482.217338622 386 480 386 c 0
 452.94828101 386 420.010609783 360.074268481 404 248 c 1x7819
 468 248 l 1
 468 218 l 1
 398 218 l 1
 387.901619484 175.182866613 351.738735227 35.615741601 293 -41 c 0
 288.879680723 -46.3743294911 202.297243067 -158 119 -158 c 2
 116 -158 l 2
 95.0135312461 -158 58 -145.203523713 58 -105 c 0
 58 -98.0151748113 59.9116449564 -55 107 -55 c 0xbc21
 128.955366291 -55 153 -74.1238803607 153 -98 c 0
 153 -130.980216304 124 -129.504458025 124 -136 c 256
 124 -137.444444444 124 -140 132 -140 c 0
 208.990973468 -140 278.353578352 99.4143134083 308 218 c 1x7c21
 239 218 l 1
 239 248 l 1
 317 248 l 1x7811
 340.256456534 320.095015254 374.248856883 404 464 404 c 0
234 404 m 0
 272.61487606 404 320 389.395645203 320 344 c 0
 320 318.31211937 304.401289132 295 274 295 c 0
 250.212699037 295 229 308.760799244 229 333 c 0
 229 373.29380992 263.775279701 373.162919552 267 378 c 0
 267 385.711064051 252.217338622 386 250 386 c 0
 222.94828101 386 190.010609783 360.074268481 174 248 c 1x7981
 238 248 l 1
 238 218 l 1
 168 218 l 1
 157.901619484 175.182866613 121.738735227 35.615741601 63 -41 c 0
 58.8796807235 -46.3743294911 -27.7027569327 -158 -111 -158 c 2
 -114 -158 l 2
 -134.986468754 -158 -172 -145.203523713 -172 -105 c 0
 -172 -98.0151748113 -170.088355044 -55 -123 -55 c 0xba01
 -101.044633709 -55 -77 -74.1238803607 -77 -98 c 0
 -77 -130.980216304 -106 -129.504458025 -106 -136 c 256
 -106 -137.444444444 -106 -140 -98 -140 c 0
 -21.0090265321 -140 48.3535783521 99.4143134082 78 218 c 1x7a01
 9 218 l 1
 9 248 l 1
 87 248 l 1x7901
 110.256456534 320.095015254 144.248856883 404 234 404 c 0
EndSplineSet
Validated: 1
EndChar

StartChar: dynamicFFFF
Encoding: 58673 58673 64
Width: 920
Flags: W
HStem: -158 103<-161.723 -107.093 68.2767 122.907 298.277 352.907 528.277 582.907> -158 18<-106 -73.0531 124 156.947 354 386.947 584 616.947> 218 30<9 78 174 238 239 308 404 468 469 538 634 698 699 768 864 928> 386 18<225.348 266.282 455.348 496.282 685.348 726.282 915.348 956.282>
VStem: -172 66<-139.718 -101.508> 58 66<-139.718 -101.508> 78 90<141.764 218> 87 87<248 306.137> 267 53<367.691 385.166> 288 66<-139.718 -101.508> 308 90<141.764 218> 317 87<248 306.137> 497 53<367.691 385.166> 518 66<-139.718 -101.508> 538 90<141.764 218> 547 87<248 306.137> 727 53<367.691 385.166> 768 90<141.764 218> 777 87<248 306.137> 957 53<367.691 385.166>
LayerCount: 2
Fore
SplineSet
924 404 m 0x780030
 962.61487606 404 1010 389.395645203 1010 344 c 0
 1010 318.31211937 994.401289132 295 964 295 c 0
 940.212699037 295 919 308.760799244 919 333 c 0
 919 373.29380992 953.775279701 373.162919552 957 378 c 0
 957 385.711064051 942.217338622 386 940 386 c 0
 912.94828101 386 880.010609783 360.074268481 864 248 c 1x780030
 928 248 l 1
 928 218 l 1
 858 218 l 1
 847.901619484 175.182866613 811.738735227 35.615741601 753 -41 c 0
 748.879680723 -46.3743294911 662.297243067 -158 579 -158 c 2
 576 -158 l 2
 555.013531246 -158 518 -145.203523713 518 -105 c 0
 518 -98.0151748113 519.911644956 -55 567 -55 c 0xb80450
 588.955366291 -55 613 -74.1238803607 613 -98 c 0
 613 -130.980216304 584 -129.504458025 584 -136 c 256
 584 -137.444444444 584 -140 592 -140 c 0
 668.990973468 -140 738.353578352 99.4143134082 768 218 c 1x780450
 699 218 l 1
 699 248 l 1
 777 248 l 1
 800.256456534 320.095015254 834.248856883 404 924 404 c 0x780030
694 404 m 0
 732.61487606 404 780 389.395645203 780 344 c 0
 780 318.31211937 764.401289132 295 734 295 c 0
 710.212699037 295 689 308.760799244 689 333 c 0
 689 373.29380992 723.775279701 373.162919552 727 378 c 0
 727 385.711064051 712.217338622 386 710 386 c 0
 682.94828101 386 650.010609783 360.074268481 634 248 c 1x780190
 698 248 l 1
 698 218 l 1
 628 218 l 1
 617.901619484 175.182866613 581.738735227 35.615741601 523 -41 c 0
 518.879680723 -46.3743294911 432.297243067 -158 349 -158 c 2
 346 -158 l 2
 325.013531246 -158 288 -145.203523713 288 -105 c 0
 288 -98.0151748113 289.911644956 -55 337 -55 c 0xb84210
 358.955366291 -55 383 -74.1238803607 383 -98 c 0
 383 -130.980216304 354 -129.504458025 354 -136 c 256
 354 -137.444444444 354 -140 362 -140 c 0
 438.990973468 -140 508.353578352 99.4143134082 538 218 c 1x784210
 469 218 l 1
 469 248 l 1
 547 248 l 1x780110
 570.256456534 320.095015254 604.248856883 404 694 404 c 0
464 404 m 0
 502.61487606 404 550 389.395645203 550 344 c 0
 550 318.31211937 534.401289132 295 504 295 c 0
 480.212699037 295 459 308.760799244 459 333 c 0
 459 373.29380992 493.775279701 373.162919552 497 378 c 0
 497 385.711064051 482.217338622 386 480 386 c 0
 452.94828101 386 420.010609783 360.074268481 404 248 c 1x781810
 468 248 l 1
 468 218 l 1
 398 218 l 1
 387.901619484 175.182866613 351.738735227 35.615741601 293 -41 c 0
 288.879680723 -46.3743294911 202.297243067 -158 119 -158 c 2
 116 -158 l 2
 95.0135312461 -158 58 -145.203523713 58 -105 c 0
 58 -98.0151748113 59.9116449564 -55 107 -55 c 0xbc2010
 128.955366291 -55 153 -74.1238803607 153 -98 c 0
 153 -130.980216304 124 -129.504458025 124 -136 c 256
 124 -137.444444444 124 -140 132 -140 c 0
 208.990973468 -140 278.353578352 99.4143134083 308 218 c 1x7c2010
 239 218 l 1
 239 248 l 1
 317 248 l 1x781010
 340.256456534 320.095015254 374.248856883 404 464 404 c 0
234 404 m 0
 272.61487606 404 320 389.395645203 320 344 c 0
 320 318.31211937 304.401289132 295 274 295 c 0
 250.212699037 295 229 308.760799244 229 333 c 0
 229 373.29380992 263.775279701 373.162919552 267 378 c 0
 267 385.711064051 252.217338622 386 250 386 c 0
 222.94828101 386 190.010609783 360.074268481 174 248 c 1x798010
 238 248 l 1
 238 218 l 1
 168 218 l 1
 157.901619484 175.182866613 121.738735227 35.615741601 63 -41 c 0
 58.8796807235 -46.3743294911 -27.7027569327 -158 -111 -158 c 2
 -114 -158 l 2
 -134.986468754 -158 -172 -145.203523713 -172 -105 c 0
 -172 -98.0151748113 -170.088355044 -55 -123 -55 c 0xba0010
 -101.044633709 -55 -77 -74.1238803607 -77 -98 c 0
 -77 -130.980216304 -106 -129.504458025 -106 -136 c 256
 -106 -137.444444444 -106 -140 -98 -140 c 0
 -21.0090265321 -140 48.3535783521 99.4143134082 78 218 c 1x7a0010
 9 218 l 1
 9 248 l 1
 87 248 l 1x790010
 110.256456534 320.095015254 144.248856883 404 234 404 c 0
EndSplineSet
Validated: 1
EndChar

StartChar: dynamicSforzando1
Encoding: 58678 58678 65
Width: 551
Flags: W
HStem: -158 103<69.2767 123.907> -158 18<125 157.947> 0 19<61.4772 107.889> 218 30<240 309 405 469> 247 18<120.701 157.796> 386 18<456.348 497.282>
VStem: 3 54<22.9167 71.7771> 59 66<-139.718 -101.508> 62 49<163.301 244.053> 124 50<24.4 114.35> 160 60<185.641 246.612> 309 90<141.764 218> 318 87<248 306.137> 498 53<367.691 385.166>
LayerCount: 2
Fore
SplineSet
465 404 m 4x760c
 503.61487606 404 551 389.395645203 551 344 c 4
 551 318.31211937 535.401289132 295 505 295 c 4
 481.212699037 295 460 308.760799244 460 333 c 4
 460 373.29380992 494.775279701 373.162919552 498 378 c 4
 498 385.711064051 483.217338622 386 481 386 c 4
 453.94828101 386 421.010609783 360.074268481 405 248 c 5x760c
 469 248 l 5
 469 218 l 5
 399 218 l 5
 388.901619484 175.182866613 352.738735227 35.615741601 294 -41 c 4
 289.879680723 -46.3743294911 203.297243067 -158 120 -158 c 6
 117 -158 l 6
 96.0135312461 -158 59 -145.203523713 59 -105 c 4
 59 -98.0151748113 60.9116449564 -55 108 -55 c 4xb714
 129.955366291 -55 154 -74.1238803607 154 -98 c 4
 154 -130.980216304 125 -129.504458025 125 -136 c 260
 125 -137.444444444 125 -140 133 -140 c 4
 209.990973468 -140 279.353578352 99.4143134083 309 218 c 5x7714
 240 218 l 5
 240 248 l 5
 318 248 l 5
 341.256456534 320.095015254 375.248856883 404 465 404 c 4x760c
146 265 m 4x2ec4
 180.313803613 265 220 241.284350202 220 204 c 4
 220 182.496921128 204.501683131 167 183 167 c 4
 168.800917303 167 148.534963905 176.975541418 147 200 c 4
 147 225.584796177 160 224.705802113 160 232 c 4x2ea4
 160 240.826220536 149.190783344 247 142 247 c 4
 121.070437942 247 111 228.21706026 111 212 c 4
 111 176.266078024 171.164915508 128.031520849 174 77 c 4
 173.509750449 57.390017944 165.064903984 0 83 0 c 4
 40.4247128795 0 3 31.7909900282 3 70 c 4
 3 73.5541801742 3.92736966519 111.996368483 44 114 c 4
 65.0399026302 114 83 98.0206915254 83 76 c 4
 83 45.6254963282 57 41.6522814495 57 36 c 4
 57 26.9191885705 76.4000871711 19 83 19 c 4
 113.118239497 19 124 48.13023558 124 65 c 4
 124 105.853479161 62 149.299746646 62 196 c 4
 62.7459940457 209.0548958 70.3556487378 265 146 265 c 4x2ec4
EndSplineSet
Validated: 1
EndChar

StartChar: dynamicSforzandoPiano
Encoding: 58679 58679 66
Width: 733
Flags: W
HStem: -158 103<69.2767 123.907> -158 18<125 157.947> 0 19<61.4772 107.889 580.407 612.261> 218 30<240 309 405 469> 220 41<503.014 535.997> 229 26<619.424 667.9> 247 18<120.701 157.796> 386 18<456.348 497.282>
VStem: 3 54<22.9167 71.7771> 59 66<-139.718 -101.508> 62 49<163.301 244.053> 124 50<24.4 114.35> 160 60<185.641 246.612> 309 90<141.764 218> 318 87<248 306.137> 460 10<147.459 157> 498 53<367.691 385.166> 673 57<99.3538 222.621>
LayerCount: 2
Fore
SplineSet
465 404 m 4x7183c0
 503.61487606 404 551 389.395645203 551 344 c 4
 551 318.31211937 535.401289132 295 505 295 c 4
 481.212699037 295 460 308.760799244 460 333 c 4
 460 373.29380992 494.775279701 373.162919552 498 378 c 4
 498 385.711064051 483.217338622 386 481 386 c 4
 453.94828101 386 421.010609783 360.074268481 405 248 c 5x7183c0
 469 248 l 5
 469 218 l 5
 399 218 l 5
 388.901619484 175.182866613 352.738735227 35.615741601 294 -41 c 4
 289.879680723 -46.3743294911 203.297243067 -158 120 -158 c 6
 117 -158 l 6
 96.0135312461 -158 59 -145.203523713 59 -105 c 4
 59 -98.0151748113 60.9116449564 -55 108 -55 c 4xb1c5c0
 129.955366291 -55 154 -74.1238803607 154 -98 c 4
 154 -130.980216304 125 -129.504458025 125 -136 c 260
 125 -137.444444444 125 -140 133 -140 c 4
 209.990973468 -140 279.353578352 99.4143134083 309 218 c 5x71c5c0
 240 218 l 5
 240 248 l 5
 318 248 l 5
 341.256456534 320.095015254 375.248856883 404 465 404 c 4x7183c0
146 265 m 4x23b1c0
 180.313803613 265 220 241.284350202 220 204 c 4
 220 182.496921128 204.501683131 167 183 167 c 4
 168.800917303 167 148.534963905 176.975541418 147 200 c 4
 147 225.584796177 160 224.705802113 160 232 c 4x23a9c0
 160 240.826220536 149.190783344 247 142 247 c 4
 121.070437942 247 111 228.21706026 111 212 c 4
 111 176.266078024 171.164915508 128.031520849 174 77 c 4
 173.509750449 57.390017944 165.064903984 0 83 0 c 4
 40.4247128795 0 3 31.7909900282 3 70 c 4
 3 73.5541801742 3.92736966519 111.996368483 44 114 c 4
 65.0399026302 114 83 98.0206915254 83 76 c 4
 83 45.6254963282 57 41.6522814495 57 36 c 4
 57 26.9191885705 76.4000871711 19 83 19 c 4
 113.118239497 19 124 48.13023558 124 65 c 4
 124 105.853479161 62 149.299746646 62 196 c 4
 62.7459940457 209.0548958 70.3556487378 265 146 265 c 4x23b1c0
658 255 m 6x2583c0
 693.154670773 255 730 207.030202381 730 154 c 6
 730 148 l 6
 730 64.0464944837 679.797507946 -3 616 -3 c 6
 614 -3 l 6
 593.824786081 -2.22403023388 560.055839139 3.36040215242 549 31 c 5
 519 -67 l 5
 519 -68 l 6
 519 -82.4518901106 559 -67.8467210005 559 -93 c 5
 405 -93 l 5
 413.37618617 -67.8714414885 430.601909814 -84.3980901856 448 -67 c 5
 448.832416621 -64.2252779294 536 202.634848417 536 209 c 4
 536 215 532.333333333 218.666666667 525 220 c 5
 524 220 l 6
 504.230234156 220 471.482130747 149.976174329 470 148 c 4
 469.333333333 147.333333333 468.333333333 147 467 147 c 4
 466.907804555 147 460 147.72683853 460 153 c 4
 465.182925838 178.914629191 495.514992804 261 540 261 c 6
 541 261 l 6x2983c0
 551.497385625 260.596254399 583.736526946 259.356287425 594 226 c 5
 617.485363399 251.833899739 632.931193578 254.205466399 652 255 c 6
 658 255 l 6x2583c0
600 22 m 4
 645.267341107 27.0297045674 673 179.492989112 673 190 c 6
 673 197 l 6
 673 198.76892801 672.62517982 229 647 229 c 4x2581c0
 586.249787848 229 567 69.7978042163 567 68 c 6
 567 61 l 5
 568.236731516 48.0143190799 572.143416868 22 600 22 c 4
EndSplineSet
Validated: 1
EndChar

StartChar: dynamicSforzandoPianissimo
Encoding: 58680 58680 67
Width: 1005
Flags: W
HStem: -158 103<69.2767 123.907> -158 18<125 157.947> 0 19<61.4772 107.889 580.407 614.422 852.407 886.422> 218 30<240 309 405 469> 220 41<503.014 535.997 775.014 807.997> 229 26<619.424 667.9 891.424 939.9> 247 18<120.701 157.796> 386 18<456.348 497.282>
VStem: 3 54<22.9167 71.7771> 59 66<-139.718 -101.508> 62 49<163.301 244.053> 124 50<24.4 114.35> 160 60<185.641 246.612> 309 90<141.764 218> 318 87<248 306.137> 460 10<147.459 157> 498 53<367.691 385.166> 673 57<99.3538 222.621> 732 10<147.459 157> 945 57<99.3538 222.621>
LayerCount: 2
Fore
SplineSet
465 404 m 0x7183f0
 503.61487606 404 551 389.395645203 551 344 c 0
 551 318.31211937 535.401289132 295 505 295 c 0
 481.212699037 295 460 308.760799244 460 333 c 0
 460 373.29380992 494.775279701 373.162919552 498 378 c 0
 498 385.711064051 483.217338622 386 481 386 c 0
 453.94828101 386 421.010609783 360.074268481 405 248 c 1x7183f0
 469 248 l 1
 469 218 l 1
 399 218 l 1
 388.901619484 175.182866613 352.738735227 35.615741601 294 -41 c 0
 289.879680723 -46.3743294911 203.297243067 -158 120 -158 c 2
 117 -158 l 2
 96.0135312461 -158 59 -145.203523713 59 -105 c 0
 59 -98.0151748113 60.9116449564 -55 108 -55 c 0xb1c5f0
 129.955366291 -55 154 -74.1238803607 154 -98 c 0
 154 -130.980216304 125 -129.504458025 125 -136 c 256
 125 -137.444444444 125 -140 133 -140 c 0
 209.990973468 -140 279.353578352 99.4143134083 309 218 c 1x71c5f0
 240 218 l 1
 240 248 l 1
 318 248 l 1
 341.256456534 320.095015254 375.248856883 404 465 404 c 0x7183f0
146 265 m 0x23b1f0
 180.313803613 265 220 241.284350202 220 204 c 0
 220 182.496921128 204.501683131 167 183 167 c 0
 168.800917303 167 148.534963905 176.975541418 147 200 c 0
 147 225.584796177 160 224.705802113 160 232 c 0x23a9f0
 160 240.826220536 149.190783344 247 142 247 c 0
 121.070437942 247 111 228.21706026 111 212 c 0
 111 176.266078024 171.164915508 128.031520849 174 77 c 0
 173.509750449 57.390017944 165.064903984 0 83 0 c 0
 40.4247128795 0 3 31.7909900282 3 70 c 0
 3 73.5541801742 3.92736966519 111.996368483 44 114 c 0
 65.0399026302 114 83 98.0206915254 83 76 c 0
 83 45.6254963282 57 41.6522814495 57 36 c 0
 57 26.9191885705 76.4000871711 19 83 19 c 0
 113.118239497 19 124 48.13023558 124 65 c 0
 124 105.853479161 62 149.299746646 62 196 c 0
 62.7459940457 209.0548958 70.3556487378 265 146 265 c 0x23b1f0
658 255 m 2x2583f0
 693.154670773 255 730 207.030202381 730 154 c 2
 730 148 l 2
 730 64.0464944837 679.797507946 -3 616 -3 c 2
 614 -3 l 2
 593.824786081 -2.22403023388 560.055839139 3.36040215242 549 31 c 1
 519 -67 l 1
 519 -68 l 2
 519 -82.4518901106 559 -67.8467210005 559 -93 c 1
 405 -93 l 1
 413.37618617 -67.8714414885 430.601909814 -84.3980901856 448 -67 c 1
 448.832416621 -64.2252779294 536 202.634848417 536 209 c 0
 536 215 532.333333333 218.666666667 525 220 c 1
 524 220 l 2
 504.230234156 220 471.482130747 149.976174329 470 148 c 0
 469.333333333 147.333333333 468.333333333 147 467 147 c 0
 466.907804555 147 460 147.72683853 460 153 c 0
 465.182925838 178.914629191 495.514992804 261 540 261 c 2
 541 261 l 2x2983f0
 551.497385625 260.596254399 583.736526946 259.356287425 594 226 c 1
 617.485363399 251.833899739 632.931193578 254.205466399 652 255 c 2
 658 255 l 2x2583f0
930 255 m 2x2581f0
 965.154670773 255 1002 207.030202381 1002 154 c 2
 1002 148 l 2
 1002 64.0464944837 951.797507946 -3 888 -3 c 2
 886 -3 l 2
 865.824786081 -2.22403023388 832.055839139 3.36040215242 821 31 c 1
 791 -67 l 1
 791 -68 l 2
 791 -82.4518901106 831 -67.8467210005 831 -93 c 1
 677 -93 l 1
 685.37618617 -67.8714414885 702.601909814 -84.3980901856 720 -67 c 1
 720.832416621 -64.2252779294 808 202.634848417 808 209 c 0
 808 215 804.333333333 218.666666667 797 220 c 1
 796 220 l 2
 776.230234156 220 743.482130747 149.976174329 742 148 c 0
 741.333333333 147.333333333 740.333333333 147 739 147 c 0
 738.907804555 147 732 147.72683853 732 153 c 0
 737.182925838 178.914629191 767.514992804 261 812 261 c 2
 813 261 l 2x2981f0
 823.497385625 260.596254399 855.736526946 259.356287425 866 226 c 1
 889.485363399 251.833899739 904.931193578 254.205466399 924 255 c 2
 930 255 l 2x2581f0
945 196 m 2
 945 200.402298295 944.03651203 229 919 229 c 0x2581f0
 858.249787848 229 839 69.7978042163 839 68 c 2
 839 61 l 1
 840.236731516 48.0143190799 844.143416868 22 872 22 c 0
 898.071929192 24.8968810213 911.426956602 64.2808698071 925 105 c 0
 925.276134025 105.828402076 945 165.453492159 945 190 c 2
 945 196 l 2
673 197 m 2
 673 198.76892801 672.62517982 229 647 229 c 0
 586.249787848 229 567 69.7978042163 567 68 c 2
 567 61 l 1
 568.236731516 48.0143190799 572.143416868 22 600 22 c 0
 626.071929192 24.8968810213 639.426956602 64.2808698071 653 105 c 0
 653.276134025 105.828402076 673 165.453492159 673 190 c 2
 673 197 l 2
EndSplineSet
Validated: 1
EndChar

StartChar: dynamicSforzato
Encoding: 58681 58681 68
Width: 664
Flags: W
HStem: -158 103<69.2767 123.907> -158 18<125 157.947> -10 61<557.617 593.621> 0 19<61.4772 107.889> 36 53<479.85 540.803> 187 51<562.429 627.645> 211 50<512.788 568.792> 218 30<240 309 405 469> 247 18<120.701 157.796> 386 18<456.348 497.282>
VStem: 3 54<22.9167 71.7771> 59 66<-139.718 -101.508> 62 49<163.301 244.053> 124 50<24.4 114.35> 160 60<185.641 246.612> 309 90<141.764 218> 318 87<248 306.137> 498 53<367.691 385.166>
LayerCount: 2
Fore
SplineSet
465 404 m 0x4160c0
 503.61487606 404 551 389.395645203 551 344 c 0
 551 318.31211937 535.401289132 295 505 295 c 0
 481.212699037 295 460 308.760799244 460 333 c 0
 460 373.29380992 494.775279701 373.162919552 498 378 c 0
 498 385.711064051 483.217338622 386 481 386 c 0
 453.94828101 386 421.010609783 360.074268481 405 248 c 1x4160c0
 469 248 l 1
 469 218 l 1
 399 218 l 1
 388.901619484 175.182866613 352.738735227 35.615741601 294 -41 c 0
 289.879680723 -46.3743294911 203.297243067 -158 120 -158 c 2
 117 -158 l 2
 96.0135312461 -158 59 -145.203523713 59 -105 c 0
 59 -98.0151748113 60.9116449564 -55 108 -55 c 0x817140
 129.955366291 -55 154 -74.1238803607 154 -98 c 0
 154 -130.980216304 125 -129.504458025 125 -136 c 256
 125 -137.444444444 125 -140 133 -140 c 0
 209.990973468 -140 279.353578352 99.4143134083 309 218 c 1x417140
 240 218 l 1
 240 248 l 1
 318 248 l 1
 341.256456534 320.095015254 375.248856883 404 465 404 c 0x4160c0
146 265 m 0x18ec40
 180.313803613 265 220 241.284350202 220 204 c 0
 220 182.496921128 204.501683131 167 183 167 c 0
 168.800917303 167 148.534963905 176.975541418 147 200 c 0
 147 225.584796177 160 224.705802113 160 232 c 0x18ea40
 160 240.826220536 149.190783344 247 142 247 c 0
 121.070437942 247 111 228.21706026 111 212 c 0
 111 176.266078024 171.164915508 128.031520849 174 77 c 0
 173.509750449 57.390017944 165.064903984 0 83 0 c 0
 40.4247128795 0 3 31.7909900282 3 70 c 0
 3 73.5541801742 3.92736966519 111.996368483 44 114 c 0
 65.0399026302 114 83 98.0206915254 83 76 c 0
 83 45.6254963282 57 41.6522814495 57 36 c 0
 57 26.9191885705 76.4000871711 19 83 19 c 0
 113.118239497 19 124 48.13023558 124 65 c 0
 124 105.853479161 62 149.299746646 62 196 c 0
 62.7459940457 209.0548958 70.3556487378 265 146 265 c 0x18ec40
648 257 m 0
 651.311198771 257 661 256.13413633 661 246 c 0
 661 244.666666667 660.666666667 243 660 241 c 2
 660 240 l 257
 659 239 l 257
 659 237 l 1
 658 236 l 1
 658 235 l 1
 652.128881598 217.386644795 626.502913161 173.034513415 573.5 132 c 0
 551.088888242 114.649461865 535.109563026 100.343958918 524 88 c 1
 525.333333333 88.6666666667 527.333333333 89 530 89 c 0x0c6040
 551.605465367 89 569.81997323 51 585 51 c 0
 610.525701687 51 621.403531117 93 636 93 c 0
 640.666666667 92.3333333333 643 90.3333333333 643 87 c 2
 643 86 l 1
 640.144439472 63.1555157746 585.456357248 -10 560 -10 c 0x206040
 537.876513297 -10 513.749090568 36 497 36 c 0
 467.543052169 36 459.612930737 -3 436 -3 c 256
 430.666666667 -3 427.666666667 0 427 6 c 1
 431.42198748 36.9539123622 464.667186265 96.1842663894 548.5 154 c 0
 580.913093217 176.353857391 586.286901081 181.45904173 591 189 c 1
 587 187.666666667 583.666666667 187 581 187 c 0x0c6040
 558.352682484 187 540.904261961 211 526 211 c 2
 525 211 l 1
 515.4 209.4 503.130555556 197.130555556 498 192 c 2
 484 178 l 2
 479.333333333 173.333333333 474.333333333 170 469 168 c 0
 465 168.666666667 463 170.666666667 463 174 c 0
 463 197.054648734 526.850020266 261 552 261 c 0x026040
 579.926560631 261 588.447835505 238 611 238 c 0x046040
 630.444066027 238 630.953594792 257 648 257 c 0
EndSplineSet
Validated: 1
EndChar

StartChar: dynamicSforzatoFF
Encoding: 58683 58683 69
Width: 894
Flags: W
HStem: -158 103<77.5635 124.399 307.563 354.399> -158 18<125.001 159.431 355.001 389.431> -10 61<787.059 823.927> 0 19<61.4073 108.219> 36 53<709.728 762.667> 187 51<801.52 857.994> 211 50<742.219 799.029> 218 30<240 309 405 469 470 539 635 699> 247 18<121.189 158.142> 295 96.5<477.646 538.107 707.646 768.107> 386 18<455.605 497.924 685.605 727.924>
VStem: 3 54<22.7499 75.6667> 59 66<-139.922 -97.6667> 62 49<163.191 240.118> 124 50<29.041 115.111> 160 60<189.055 246.448> 289 66<-139.922 -97.6667> 318 87<248 306.622> 498 53<368.704 385.852> 548 87<248 306.622> 728 53<368.704 385.852>
LayerCount: 2
Fore
SplineSet
551 344 m 0x005868
 551 330 546.833333333 318.333333333 538.5 309 c 0
 530.166666667 299.666666667 519 295 505 295 c 0x005868
 492.333333333 295 481.666666667 298.5 473 305.5 c 0
 464.333333333 312.5 460 321.666666667 460 333 c 0
 460 338.333333333 461.166666667 344.333333333 463.5 351 c 0
 465.833333333 357.666666667 468.833333333 362.666666667 472.5 366 c 0
 476.166666667 369.333333333 481 371.666666667 487 373 c 0
 493 374.333333333 496.666666667 376 498 378 c 0
 498 381.333333333 495.833333333 383.5 491.5 384.5 c 0
 487.166666667 385.5 483.666666667 386 481 386 c 0
 468.333333333 386 457.333333333 380.833333333 448 370.5 c 0
 438.666666667 360.166666667 431 347.166666667 425 331.5 c 0
 419 315.833333333 414.5 300.333333333 411.5 285 c 0
 408.5 269.666666667 406.333333333 257.333333333 405 248 c 1
 469 248 l 1
 469 218 l 1
 399 218 l 1
 382.333333333 147.333333333 359 79.6666666667 329 15 c 0
 321 -2.33333333333 309.333333333 -21 294 -41 c 0
 278.666666667 -61 261.166666667 -79.8333333333 241.5 -97.5 c 0
 221.833333333 -115.166666667 201.333333333 -129.666666667 180 -141 c 0
 158.666666667 -152.333333333 138.666666667 -158 120 -158 c 0
 118 -158 118 -158 117 -158 c 0
 102.333333333 -158 89 -153.333333333 77 -144 c 0
 65 -134.666666667 59 -121.666666667 59 -105 c 0
 59 -90.3333333333 63.3333333333 -78.3333333333 72 -69 c 0
 80.6666666667 -59.6666666667 92.6666666667 -55 108 -55 c 0x813868
 119.333333333 -55 129.833333333 -59.3333333333 139.5 -68 c 0
 149.166666667 -76.6666666667 154 -86.6666666667 154 -98 c 0
 154 -103.333333333 153 -108.5 151 -113.5 c 0
 149 -118.5 146 -122.666666667 142 -126 c 0
 140 -127.333333333 136.666666667 -128.833333333 132 -130.5 c 0
 127.333333333 -132.166666667 125 -134 125 -136 c 256
 125 -138 126 -139.166666667 128 -139.5 c 0
 130 -139.833333333 131.666666667 -140 133 -140 c 0
 146.333333333 -140 159.333333333 -133.666666667 172 -121 c 0
 184.666666667 -108.333333333 196.666666667 -91.8333333333 208 -71.5 c 0
 219.333333333 -51.1666666667 229.833333333 -28.6666666667 239.5 -4 c 0
 249.166666667 20.6666666667 258.166666667 45.6666666667 266.5 71 c 0
 274.833333333 96.3333333333 282.166666667 120.333333333 288.5 143 c 0
 294.833333333 165.666666667 300 184.666666667 304 200 c 0
 306.666666667 209.333333333 308.333333333 215.333333333 309 218 c 1
 240 218 l 1
 240 248 l 1
 318 248 l 1
 324.666666667 268.666666667 331.666666667 287.666666667 339 305 c 0
 346.333333333 322.333333333 355.666666667 338.5 367 353.5 c 0
 378.333333333 368.5 392 380.666666667 408 390 c 0
 424 399.333333333 443 404 465 404 c 0x413868
 474.333333333 404 484.166666667 403 494.5 401 c 0
 504.833333333 399 514 395.833333333 522 391.5 c 0
 530 387.166666667 536.833333333 381 542.5 373 c 0
 548.166666667 365 551 355.333333333 551 344 c 0x005868
781 344 m 0
 781 330 776.833333333 318.333333333 768.5 309 c 0
 760.166666667 299.666666667 749 295 735 295 c 0x005098
 722.333333333 295 711.666666667 298.5 703 305.5 c 0
 694.333333333 312.5 690 321.666666667 690 333 c 0
 690 338.333333333 691.166666667 344.333333333 693.5 351 c 0
 695.833333333 357.666666667 698.833333333 362.666666667 702.5 366 c 0
 706.166666667 369.333333333 711 371.666666667 717 373 c 0
 723 374.333333333 726.666666667 376 728 378 c 0
 728 381.333333333 725.833333333 383.5 721.5 384.5 c 0
 717.166666667 385.5 713.666666667 386 711 386 c 0
 698.333333333 386 687.333333333 380.833333333 678 370.5 c 0
 668.666666667 360.166666667 661 347.166666667 655 331.5 c 0
 649 315.833333333 644.5 300.333333333 641.5 285 c 0
 638.5 269.666666667 636.333333333 257.333333333 635 248 c 1
 699 248 l 1
 699 218 l 1
 629 218 l 1
 612.333333333 147.333333333 589 79.6666666667 559 15 c 0
 551 -2.33333333333 539.333333333 -21 524 -41 c 0
 508.666666667 -61 491.166666667 -79.8333333333 471.5 -97.5 c 0
 451.833333333 -115.166666667 431.333333333 -129.666666667 410 -141 c 0
 388.666666667 -152.333333333 368.666666667 -158 350 -158 c 0
 348 -158 348 -158 347 -158 c 0
 332.333333333 -158 319 -153.333333333 307 -144 c 0
 295 -134.666666667 289 -121.666666667 289 -105 c 0
 289 -90.3333333333 293.333333333 -78.3333333333 302 -69 c 0
 310.666666667 -59.6666666667 322.666666667 -55 338 -55 c 0x813098
 349.333333333 -55 359.833333333 -59.3333333333 369.5 -68 c 0
 379.166666667 -76.6666666667 384 -86.6666666667 384 -98 c 0
 384 -103.333333333 383 -108.5 381 -113.5 c 0
 379 -118.5 376 -122.666666667 372 -126 c 0
 370 -127.333333333 366.666666667 -128.833333333 362 -130.5 c 0
 357.333333333 -132.166666667 355 -134 355 -136 c 256
 355 -138 356 -139.166666667 358 -139.5 c 0
 360 -139.833333333 361.666666667 -140 363 -140 c 0
 376.333333333 -140 389.333333333 -133.666666667 402 -121 c 0
 414.666666667 -108.333333333 426.666666667 -91.8333333333 438 -71.5 c 0
 449.333333333 -51.1666666667 459.833333333 -28.6666666667 469.5 -4 c 0
 479.166666667 20.6666666667 488.166666667 45.6666666667 496.5 71 c 0
 504.833333333 96.3333333333 512.166666667 120.333333333 518.5 143 c 0
 524.833333333 165.666666667 530 184.666666667 534 200 c 0
 536.666666667 209.333333333 538.333333333 215.333333333 539 218 c 1
 470 218 l 1
 470 248 l 1
 548 248 l 1
 554.666666667 268.666666667 561.666666667 287.666666667 569 305 c 0
 576.333333333 322.333333333 585.666666667 338.5 597 353.5 c 0
 608.333333333 368.5 622 380.666666667 638 390 c 0
 654 399.333333333 673 404 695 404 c 0x413098
 704.333333333 404 714.166666667 403 724.5 401 c 0
 734.833333333 399 744 395.833333333 752 391.5 c 0
 760 387.166666667 766.833333333 381 772.5 373 c 0
 778.166666667 365 781 355.333333333 781 344 c 0
220 204 m 0x021508
 220 193.333333333 216.5 184.5 209.5 177.5 c 0
 202.5 170.5 193.666666667 167 183 167 c 0
 174.333333333 167 166.333333333 170 159 176 c 0
 151.666666667 182 147.666666667 190 147 200 c 0
 147 206 147.666666667 210.833333333 149 214.5 c 0
 150.333333333 218.166666667 151.833333333 221 153.5 223 c 0
 155.166666667 225 156.666666667 226.5 158 227.5 c 0
 159.333333333 228.5 160 230 160 232 c 0
 160 236 158 239.5 154 242.5 c 0
 150 245.5 146 247 142 247 c 0x009508
 132.666666667 247 125.166666667 243.5 119.5 236.5 c 0
 113.833333333 229.5 111 221.333333333 111 212 c 0
 111 203.333333333 114.5 193.166666667 121.5 181.5 c 0
 128.5 169.833333333 136 158 144 146 c 0
 152 134 158.833333333 122.5 164.5 111.5 c 0
 170.166666667 100.5 173.333333333 89 174 77 c 0
 173.333333333 50.3333333333 164.166666667 30.8333333333 146.5 18.5 c 0
 128.833333333 6.16666666667 107.666666667 0 83 0 c 0
 73 0 63.3333333333 1.66666666667 54 5 c 0
 44.6666666667 8.33333333333 36.1666666667 13.1666666667 28.5 19.5 c 0
 20.8333333333 25.8333333333 14.6666666667 33.3333333333 10 42 c 0
 5.33333333333 50.6666666667 3 60 3 70 c 0
 3 81.3333333333 6.5 91.3333333333 13.5 100 c 0
 20.5 108.666666667 30.6666666667 113.333333333 44 114 c 0
 54.6666666667 114 63.8333333333 110.333333333 71.5 103 c 0
 79.1666666667 95.6666666667 83 86.6666666667 83 76 c 0
 83 69.3333333333 81.8333333333 63.6666666667 79.5 59 c 0
 77.1666666667 54.3333333333 74.5 50.6666666667 71.5 48 c 0
 68.5 45.3333333333 65.3333333333 43 62 41 c 0
 58.6666666667 39 57 37.3333333333 57 36 c 0
 57 32 60.3333333333 28.1666666667 67 24.5 c 0
 73.6666666667 20.8333333333 79 19 83 19 c 0
 95.6666666667 19 105.666666667 23.8333333333 113 33.5 c 0
 120.333333333 43.1666666667 124 53.6666666667 124 65 c 0
 124 74.3333333333 120.833333333 84.5 114.5 95.5 c 0
 108.166666667 106.5 101 117.5 93 128.5 c 0
 85 139.5 77.8333333333 150.666666667 71.5 162 c 0
 65.1666666667 173.333333333 62 184.666666667 62 196 c 0
 63.3333333333 219.333333333 72.1666666667 236.666666667 88.5 248 c 0x191608
 104.833333333 259.333333333 124 265 146 265 c 0x009608
 154.666666667 265 163.166666667 263.666666667 171.5 261 c 0
 179.833333333 258.333333333 187.833333333 254.166666667 195.5 248.5 c 0
 203.166666667 242.833333333 209.166666667 236.333333333 213.5 229 c 0
 217.833333333 221.666666667 220 213.333333333 220 204 c 0x021508
891 246 m 0
 891 244.666666667 890.666666667 243 890 241 c 1
 890 240 890 240 890 240 c 257
 889 239 889 239 889 239 c 257
 889 239 889 239 889 238 c 2
 889 238 889 238 889 237 c 1
 889 237 889 237 888 236 c 1
 888 236 888 236 888 235 c 1
 884.666666667 225 880 215.833333333 874 207.5 c 0
 868 199.166666667 861.666666667 190.666666667 855 182 c 0
 849 174 841.5 165.666666667 832.5 157 c 0
 823.5 148.333333333 813.833333333 140 803.5 132 c 0
 793.166666667 124 783.833333333 116.333333333 775.5 109 c 0
 767.166666667 101.666666667 760 94.6666666667 754 88 c 1
 755.333333333 88.6666666667 757.333333333 89 760 89 c 0x0c1008
 765.333333333 89 770.5 87 775.5 83 c 0
 780.5 79 785.333333333 74.6666666667 790 70 c 1
 793 67 l 1
 795 65 l 1
 795 65 795 65 796 64 c 2
 800 60 l 2
 801 59 801 59 801 59 c 1
 803 57 l 1
 807 53 811 51 815 51 c 0
 821 51 826.5 53.1666666667 831.5 57.5 c 0
 836.5 61.8333333333 841 66.8333333333 845 72.5 c 0
 849 78.1666666667 852.666666667 83 856 87 c 0
 859.333333333 91 862.666666667 93 866 93 c 0
 870.666666667 92.3333333333 873 90.3333333333 873 87 c 2
 873 86 l 2
 872.333333333 80.6666666667 868.833333333 72.5 862.5 61.5 c 0
 856.166666667 50.5 848.666666667 39.8333333333 840 29.5 c 0
 831.333333333 19.1666666667 822.5 10 813.5 2 c 0
 804.5 -6 796.666666667 -10 790 -10 c 0x201008
 784.666666667 -10 779.166666667 -7.66666666667 773.5 -3 c 0
 767.833333333 1.66666666667 762.166666667 7 756.5 13 c 0
 750.833333333 19 745.5 24.3333333333 740.5 29 c 0
 735.5 33.6666666667 731 36 727 36 c 0
 719.666666667 36 713.5 34 708.5 30 c 0
 703.5 26 698.833333333 21.5 694.5 16.5 c 0
 690.166666667 11.5 685.666666667 7 681 3 c 0
 676.333333333 -1 671.333333333 -3 666 -3 c 256
 660.666666667 -3 657.666666667 0 657 6 c 2
 658 13 l 2
 661.333333333 27 668 41.1666666667 678 55.5 c 0
 688 69.8333333333 701.333333333 86 718 104 c 0
 728 114.666666667 738.166666667 124 748.5 132 c 0
 758.833333333 140 768.833333333 147.333333333 778.5 154 c 0
 788.166666667 160.666666667 796.833333333 166.833333333 804.5 172.5 c 0
 812.166666667 178.166666667 817.666666667 183.666666667 821 189 c 1
 817 187.666666667 813.666666667 187 811 187 c 0x0c1008
 805.666666667 187 800.5 188.166666667 795.5 190.5 c 0
 790.5 192.833333333 785.833333333 195.5 781.5 198.5 c 0
 777.166666667 201.5 772.666666667 204.333333333 768 207 c 0
 763.333333333 209.666666667 759.333333333 211 756 211 c 2
 755 211 l 2
 751 210.333333333 746.666666667 208.166666667 742 204.5 c 0
 737.333333333 200.833333333 732.666666667 196.666666667 728 192 c 2
 714 178 l 2
 709.333333333 173.333333333 704.333333333 170 699 168 c 0
 695 168.666666667 693 170.666666667 693 174 c 0
 693 180 696.5 187.833333333 703.5 197.5 c 0
 710.5 207.166666667 718.833333333 216.833333333 728.5 226.5 c 0
 738.166666667 236.166666667 748 244.333333333 758 251 c 0
 768 257.666666667 776 261 782 261 c 0x021008
 788.666666667 261 794.5 259.833333333 799.5 257.5 c 0
 804.5 255.166666667 809.166666667 252.5 813.5 249.5 c 0
 817.833333333 246.5 822.166666667 243.833333333 826.5 241.5 c 0
 830.833333333 239.166666667 835.666666667 238 841 238 c 0x041008
 845.666666667 238 849.5 239 852.5 241 c 0
 855.5 243 858.333333333 245.333333333 861 248 c 0x011008
 863.666666667 250.666666667 866.166666667 252.833333333 868.5 254.5 c 0
 870.833333333 256.166666667 874 257 878 257 c 0
 881.333333333 257 884.333333333 256.166666667 887 254.5 c 0
 889.666666667 252.833333333 891 250 891 246 c 0
EndSplineSet
Validated: 5
EndChar

StartChar: dynamicRinforzando2
Encoding: 58719 58719 70
Width: 681
Flags: W
HStem: -158 103<94.5635 141.399> -158 18<142.001 176.431> -10 61<575.059 611.927> 36 53<497.728 550.667> 187 51<589.52 645.994> 211 50<530.219 587.029> 218 30<257 326 422 486> 219 36<148.13 189.644> 225 20<26 51.265> 386 18<472.605 514.924>
VStem: 76 66<-139.922 -97.6667> 173 68<186.376 218.488> 335 87<248 306.622> 515 53<368.704 385.852>
LayerCount: 2
Fore
SplineSet
568 344 m 0x427c
 568 330 563.833333333 318.333333333 555.5 309 c 0
 547.166666667 299.666666667 536 295 522 295 c 0
 509.333333333 295 498.666666667 298.5 490 305.5 c 0
 481.333333333 312.5 477 321.666666667 477 333 c 0
 477 338.333333333 478.166666667 344.333333333 480.5 351 c 0
 482.833333333 357.666666667 485.833333333 362.666666667 489.5 366 c 0
 493.166666667 369.333333333 498 371.666666667 504 373 c 0
 510 374.333333333 513.666666667 376 515 378 c 0
 515 381.333333333 512.833333333 383.5 508.5 384.5 c 0
 504.166666667 385.5 500.666666667 386 498 386 c 0
 485.333333333 386 474.333333333 380.833333333 465 370.5 c 0
 455.666666667 360.166666667 448 347.166666667 442 331.5 c 0
 436 315.833333333 431.5 300.333333333 428.5 285 c 0
 425.5 269.666666667 423.333333333 257.333333333 422 248 c 1
 486 248 l 1
 486 218 l 1
 416 218 l 1
 399.333333333 147.333333333 376 79.6666666667 346 15 c 0
 338 -2.33333333333 326.333333333 -21 311 -41 c 0
 295.666666667 -61 278.166666667 -79.8333333333 258.5 -97.5 c 0
 238.833333333 -115.166666667 218.333333333 -129.666666667 197 -141 c 0
 175.666666667 -152.333333333 155.666666667 -158 137 -158 c 0
 135 -158 135 -158 134 -158 c 0
 119.333333333 -158 106 -153.333333333 94 -144 c 0
 82 -134.666666667 76 -121.666666667 76 -105 c 0
 76 -90.3333333333 80.3333333333 -78.3333333333 89 -69 c 0
 97.6666666667 -59.6666666667 109.666666667 -55 125 -55 c 0x827c
 136.333333333 -55 146.833333333 -59.3333333333 156.5 -68 c 0
 166.166666667 -76.6666666667 171 -86.6666666667 171 -98 c 0
 171 -103.333333333 170 -108.5 168 -113.5 c 0
 166 -118.5 163 -122.666666667 159 -126 c 0
 157 -127.333333333 153.666666667 -128.833333333 149 -130.5 c 0
 144.333333333 -132.166666667 142 -134 142 -136 c 256
 142 -138 143 -139.166666667 145 -139.5 c 0
 147 -139.833333333 148.666666667 -140 150 -140 c 0
 163.333333333 -140 176.333333333 -133.666666667 189 -121 c 0
 201.666666667 -108.333333333 213.666666667 -91.8333333333 225 -71.5 c 0
 236.333333333 -51.1666666667 246.833333333 -28.6666666667 256.5 -4 c 0
 266.166666667 20.6666666667 275.166666667 45.6666666667 283.5 71 c 0
 291.833333333 96.3333333333 299.166666667 120.333333333 305.5 143 c 0
 311.833333333 165.666666667 317 184.666666667 321 200 c 0
 323.666666667 209.333333333 325.333333333 215.333333333 326 218 c 1
 257 218 l 1
 257 248 l 1
 335 248 l 1
 341.666666667 268.666666667 348.666666667 287.666666667 356 305 c 0
 363.333333333 322.333333333 372.666666667 338.5 384 353.5 c 0
 395.333333333 368.5 409 380.666666667 425 390 c 0
 441 399.333333333 460 404 482 404 c 0
 491.333333333 404 501.166666667 403 511.5 401 c 0
 521.833333333 399 531 395.833333333 539 391.5 c 0
 547 387.166666667 553.833333333 381 559.5 373 c 0
 565.166666667 365 568 355.333333333 568 344 c 0x427c
679 246 m 0
 679 244.666666667 678.666666667 243 678 241 c 1
 678 240 678 240 678 240 c 257
 677 239 677 239 677 239 c 257
 677 239 677 239 677 238 c 2
 677 238 677 238 677 237 c 1
 677 237 677 237 676 236 c 1
 676 236 676 236 676 235 c 1
 672.666666667 225 668 215.833333333 662 207.5 c 0
 656 199.166666667 649.666666667 190.666666667 643 182 c 0
 637 174 629.5 165.666666667 620.5 157 c 0
 611.5 148.333333333 601.833333333 140 591.5 132 c 0
 581.166666667 124 571.833333333 116.333333333 563.5 109 c 0
 555.166666667 101.666666667 548 94.6666666667 542 88 c 1
 543.333333333 88.6666666667 545.333333333 89 548 89 c 0x187c
 553.333333333 89 558.5 87 563.5 83 c 0
 568.5 79 573.333333333 74.6666666667 578 70 c 1
 581 67 l 1
 583 65 l 1
 583 65 583 65 584 64 c 2
 588 60 l 2
 589 59 589 59 589 59 c 1
 591 57 l 1
 595 53 599 51 603 51 c 0
 609 51 614.5 53.1666666667 619.5 57.5 c 0
 624.5 61.8333333333 629 66.8333333333 633 72.5 c 0
 637 78.1666666667 640.666666667 83 644 87 c 0
 647.333333333 91 650.666666667 93 654 93 c 0
 658.666666667 92.3333333333 661 90.3333333333 661 87 c 2
 661 86 l 2
 660.333333333 80.6666666667 656.833333333 72.5 650.5 61.5 c 0
 644.166666667 50.5 636.666666667 39.8333333333 628 29.5 c 0
 619.333333333 19.1666666667 610.5 10 601.5 2 c 0
 592.5 -6 584.666666667 -10 578 -10 c 0x207c
 572.666666667 -10 567.166666667 -7.66666666667 561.5 -3 c 0
 555.833333333 1.66666666667 550.166666667 7 544.5 13 c 0
 538.833333333 19 533.5 24.3333333333 528.5 29 c 0
 523.5 33.6666666667 519 36 515 36 c 0
 507.666666667 36 501.5 34 496.5 30 c 0
 491.5 26 486.833333333 21.5 482.5 16.5 c 0
 478.166666667 11.5 473.666666667 7 469 3 c 0
 464.333333333 -1 459.333333333 -3 454 -3 c 256
 448.666666667 -3 445.666666667 0 445 6 c 2
 446 13 l 2
 449.333333333 27 456 41.1666666667 466 55.5 c 0
 476 69.8333333333 489.333333333 86 506 104 c 0
 516 114.666666667 526.166666667 124 536.5 132 c 0
 546.833333333 140 556.833333333 147.333333333 566.5 154 c 0
 576.166666667 160.666666667 584.833333333 166.833333333 592.5 172.5 c 0
 600.166666667 178.166666667 605.666666667 183.666666667 609 189 c 1
 605 187.666666667 601.666666667 187 599 187 c 0x187c
 593.666666667 187 588.5 188.166666667 583.5 190.5 c 0
 578.5 192.833333333 573.833333333 195.5 569.5 198.5 c 0
 565.166666667 201.5 560.666666667 204.333333333 556 207 c 0
 551.333333333 209.666666667 547.333333333 211 544 211 c 2
 543 211 l 2
 539 210.333333333 534.666666667 208.166666667 530 204.5 c 0
 525.333333333 200.833333333 520.666666667 196.666666667 516 192 c 2
 502 178 l 2
 497.333333333 173.333333333 492.333333333 170 487 168 c 0
 483 168.666666667 481 170.666666667 481 174 c 0
 481 180 484.5 187.833333333 491.5 197.5 c 0
 498.5 207.166666667 506.833333333 216.833333333 516.5 226.5 c 0
 526.166666667 236.166666667 536 244.333333333 546 251 c 0
 556 257.666666667 564 261 570 261 c 0x047c
 576.666666667 261 582.5 259.833333333 587.5 257.5 c 0
 592.5 255.166666667 597.166666667 252.5 601.5 249.5 c 0
 605.833333333 246.5 610.166666667 243.833333333 614.5 241.5 c 0
 618.833333333 239.166666667 623.666666667 238 629 238 c 0x087c
 633.666666667 238 637.5 239 640.5 241 c 0
 643.5 243 646.333333333 245.333333333 649 248 c 0
 651.666666667 250.666666667 654.166666667 252.833333333 656.5 254.5 c 0
 658.833333333 256.166666667 662 257 666 257 c 0
 669.333333333 257 672.333333333 256.166666667 675 254.5 c 0
 677.666666667 252.833333333 679 250 679 246 c 0
241 215 m 0
 241 203.666666667 237.833333333 194 231.5 186 c 0
 225.166666667 178 216 174 204 174 c 0
 193.333333333 174 185.833333333 176.333333333 181.5 181 c 0
 177.166666667 185.666666667 174.333333333 190.833333333 173 196.5 c 0
 171.666666667 202.166666667 170.666666667 207.333333333 170 212 c 0
 169.333333333 216.666666667 167.666666667 219 165 219 c 0x017c
 161 219 155.666666667 215.833333333 149 209.5 c 0
 142.333333333 203.166666667 136 195.833333333 130 187.5 c 0
 124 179.166666667 118.666666667 171.166666667 114 163.5 c 0
 109.333333333 155.833333333 106 150 104 146 c 0
 94.6666666667 128 87.3333333333 109.666666667 82 91 c 0
 76.6666666667 72.3333333333 71.6666666667 53.3333333333 67 34 c 2
 64 21 l 1
 3 21 l 1
 47 164 l 1
 47 164 47 164 47 165 c 1
 47.6666666667 165.666666667 48 166.666666667 48 168 c 1
 49 169 49 169 49 169 c 1
 49 170 l 1
 49 170 49 170 49 171 c 0
 49.6666666667 171.666666667 50 172.333333333 50 173 c 0
 51.3333333333 177 52.6666666667 181.166666667 54 185.5 c 0
 55.3333333333 189.833333333 56.5 194 57.5 198 c 0
 58.5 202 59 205 59 207 c 0
 59 215 56.5 220 51.5 222 c 0
 46.5 224 40.6666666667 225 34 225 c 2
 20 225 l 1
 26 245 l 1x00fc
 123 251 l 1
 107 189 l 1
 108 188 l 1
 117.333333333 204.666666667 129.333333333 219.833333333 144 233.5 c 0
 158.666666667 247.166666667 176 254.333333333 196 255 c 0x017c
 207.333333333 255 217.666666667 251.5 227 244.5 c 0
 236.333333333 237.5 241 227.666666667 241 215 c 0
EndSplineSet
Validated: 5
EndChar

StartChar: dynamicForzando
Encoding: 58677 58677 71
Width: 433
Flags: W
HStem: -158 103<-161.723 -107.093> -158 18<-106 -73.0531> -10 61<326.617 362.621> 36 53<248.85 309.803> 187 51<331.429 396.645> 211 50<281.788 337.792> 218 30<9 78 174 238> 386 18<225.348 266.282>
VStem: -172 66<-139.718 -101.508> 78 90<141.764 218> 87 87<248 306.137> 267 53<367.691 385.166>
LayerCount: 2
Fore
SplineSet
234 404 m 0x43b0
 272.61487606 404 320 389.395645203 320 344 c 0
 320 318.31211937 304.401289132 295 274 295 c 0
 250.212699037 295 229 308.760799244 229 333 c 0
 229 373.29380992 263.775279701 373.162919552 267 378 c 0
 267 385.711064051 252.217338622 386 250 386 c 0
 222.94828101 386 190.010609783 360.074268481 174 248 c 1x43b0
 238 248 l 1
 238 218 l 1
 168 218 l 1
 157.901619484 175.182866613 121.738735227 35.615741601 63 -41 c 0
 58.8796807235 -46.3743294911 -27.7027569327 -158 -111 -158 c 2
 -114 -158 l 2
 -134.986468754 -158 -172 -145.203523713 -172 -105 c 0
 -172 -98.0151748113 -170.088355044 -55 -123 -55 c 0x83d0
 -101.044633709 -55 -77 -74.1238803607 -77 -98 c 0
 -77 -130.980216304 -106 -129.504458025 -106 -136 c 256
 -106 -137.444444444 -106 -140 -98 -140 c 0
 -21.0090265321 -140 48.3535783521 99.4143134082 78 218 c 1x43d0
 9 218 l 1
 9 248 l 1
 87 248 l 1
 110.256456534 320.095015254 144.248856883 404 234 404 c 0x43b0
417 257 m 0
 420.311198771 257 430 256.13413633 430 246 c 0
 430 244.666666667 429.666666667 243 429 241 c 2
 429 240 l 1
 428 239 l 257
 428 237 l 257
 427 236 l 257
 427 235 l 1
 421.128881598 217.386644795 395.502913161 173.034513415 342.5 132 c 0
 320.088888242 114.649461865 304.109563026 100.343958918 293 88 c 1
 294.333333333 88.6666666667 296.333333333 89 299 89 c 0x1990
 320.605465367 89 338.81997323 51 354 51 c 0
 379.525701687 51 390.403531117 93 405 93 c 0
 409.666666667 92.3333333333 412 90.3333333333 412 87 c 2
 412 86 l 1
 409.144439472 63.1555157746 354.456357248 -10 329 -10 c 0x2190
 306.876513297 -10 282.749090568 36 266 36 c 0
 236.543052169 36 228.612930737 -3 205 -3 c 256
 199.666666667 -3 196.666666667 0 196 6 c 1
 200.42198748 36.9539123622 233.667186265 96.1842663894 317.5 154 c 0
 349.913093217 176.353857391 355.286901081 181.45904173 360 189 c 1
 356 187.666666667 352.666666667 187 350 187 c 0x1990
 327.352682484 187 309.904261961 211 295 211 c 2
 294 211 l 1
 284.4 209.4 274.130555556 199.130555556 261 186 c 2
 253 178 l 2
 248.333333333 173.333333333 243.333333333 170 238 168 c 0
 234 168.666666667 232 170.666666667 232 174 c 0
 232 197.054648734 295.850020266 261 321 261 c 0x0590
 348.926560631 261 357.447835505 238 380 238 c 0x0990
 399.444066027 238 399.953594792 257 417 257 c 0
EndSplineSet
Validated: 1
EndChar

StartChar: uniE532
Encoding: 58674 58674 72
Width: 1240
Flags: W
HStem: -158 103<-161.723 -107.093 68.2767 122.907 298.277 352.907 528.277 582.907 758.277 812.907> -158 18<-106 -73.0531 124 156.947 354 386.947 584 616.947 814 846.854> 218 30<9 78 174 308 404 538 634 768 864 998 1094 1158> 386 18<225.348 266.282 455.348 496.282 685.348 726.282 915.348 956.282 1145.36 1186.28>
VStem: -172 66<-139.718 -101.508> 58 66<-139.718 -101.508> 78 90<141.764 218> 87 87<248 306.137> 229 9<218 248> 267 53<367.691 385.166> 288 66<-139.718 -101.508> 308 90<141.764 218> 317 87<248 306.137> 459 9<218 248> 497 53<367.691 385.166> 518 66<-139.718 -101.508> 538 90<141.764 218> 547 87<248 306.137> 689 9<218 248> 727 53<367.691 385.166> 748 66<-139.718 -101.508> 768 90<141.764 218> 777 87<248 306.137> 919 9<218 248> 957 53<367.691 385.166> 1007 87<248 306.156> 1187 53<367.692 385.168>
LayerCount: 2
Fore
SplineSet
814 -136 m 260xb8842960
 814 -137.444308798 814 -140 822 -140 c 4x78842960
 889.352578546 -140 949.086338218 40.7108175841 977.5 143 c 4
 985 170 994 205 998 218 c 5
 919 218 l 5
 919 248 l 5
 1007 248 l 5
 1030.25640698 320.092477073 1064.24692323 404 1154 404 c 4
 1192.6070357 404 1240 389.399982999 1240 344 c 4
 1240 318.31249278 1224.40135513 295 1194 295 c 4
 1170.21264193 295 1149 308.760748834 1149 333 c 4
 1149 373.293943046 1183.77651463 373.16359118 1187 378 c 4
 1187 385.710815816 1172.21776679 386 1170 386 c 4
 1142.99183092 386 1110.01764655 360.146994956 1094 248 c 5
 1158 248 l 5
 1158 218 l 5
 1088 218 l 5
 1077.89970818 175.175401846 1041.73815497 35.6166112786 983 -41 c 4
 978.884416773 -46.3682660014 892.299578247 -158 809 -158 c 6
 806 -158 l 6
 785.016880617 -158 748 -145.205888737 748 -105 c 4
 748 -98.0151947429 749.911643382 -55 797 -55 c 4
 818.955437241 -55 843 -74.1239030077 843 -98 c 4
 843 -130.980228696 814 -129.504396994 814 -136 c 260xb8842960
459 218 m 5
 459 248 l 1029
924 404 m 4
 962.61487606 404 1010 389.395645203 1010 344 c 4
 1010 318.31211937 994.401289132 295 964 295 c 4
 940.212699037 295 919 308.760799244 919 333 c 4
 919 373.29380992 953.775279701 373.162919552 957 378 c 4
 957 385.711064051 942.217338622 386 940 386 c 4
 912.94828101 386 880.010609783 360.074268481 864 248 c 5x788423a0
 928 248 l 5
 928 218 l 5
 858 218 l 5
 847.901619484 175.182866613 811.738735227 35.615741601 753 -41 c 4
 748.879680723 -46.3743294911 662.297243067 -158 579 -158 c 6
 576 -158 l 6
 555.013531246 -158 518 -145.203523713 518 -105 c 4
 518 -98.0151748113 519.911644956 -55 567 -55 c 4xb8852520
 588.955366291 -55 613 -74.1238803607 613 -98 c 4
 613 -130.980216304 584 -129.504458025 584 -136 c 260
 584 -137.444444444 584 -140 592 -140 c 4
 668.990973468 -140 738.353578352 99.4143134082 768 218 c 5x78852520
 689 218 l 5
 689 248 l 5
 777 248 l 5x78842320
 800.256456534 320.095015254 834.248856883 404 924 404 c 4
694 404 m 4
 732.61487606 404 780 389.395645203 780 344 c 4
 780 318.31211937 764.401289132 295 734 295 c 4
 710.212699037 295 689 308.760799244 689 333 c 4
 689 373.29380992 723.775279701 373.162919552 727 378 c 4
 727 385.711064051 712.217338622 386 710 386 c 4
 682.94828101 386 650.010609783 360.074268481 634 248 c 5x78847120
 698 248 l 5
 698 218 l 5
 628 218 l 5
 617.901619484 175.182866613 581.738735227 35.615741601 523 -41 c 4
 518.879680723 -46.3743294911 432.297243067 -158 349 -158 c 6
 346 -158 l 6
 325.013531246 -158 288 -145.203523713 288 -105 c 4
 288 -98.0151748113 289.911644956 -55 337 -55 c 4xb8a4a120
 358.955366291 -55 383 -74.1238803607 383 -98 c 4
 383 -130.980216304 354 -129.504458025 354 -136 c 260
 354 -137.444444444 354 -140 362 -140 c 4
 438.990973468 -140 508.353578352 99.4143134082 538 218 c 5x78a4a120
 459 218 l 5
 459 248 l 5
 547 248 l 5x78846120
 570.256456534 320.095015254 604.248856883 404 694 404 c 4
464 404 m 4
 502.61487606 404 550 389.395645203 550 344 c 4
 550 318.31211937 534.401289132 295 504 295 c 4
 480.212699037 295 459 308.760799244 459 333 c 4
 459 373.29380992 493.775279701 373.162919552 497 378 c 4
 497 385.711064051 482.217338622 386 480 386 c 4
 452.94828101 386 420.010609783 360.074268481 404 248 c 5x788e2120
 468 248 l 5
 468 218 l 5
 398 218 l 5
 387.901619484 175.182866613 351.738735227 35.615741601 293 -41 c 4
 288.879680723 -46.3743294911 202.297243067 -158 119 -158 c 6
 116 -158 l 6
 95.0135312461 -158 58 -145.203523713 58 -105 c 4
 58 -98.0151748113 59.9116449564 -55 107 -55 c 4xbc942120
 128.955366291 -55 153 -74.1238803607 153 -98 c 4
 153 -130.980216304 124 -129.504458025 124 -136 c 260
 124 -137.444444444 124 -140 132 -140 c 4
 208.990973468 -140 278.353578352 99.4143134083 308 218 c 5x7c942120
 229 218 l 5
 229 248 l 5
 317 248 l 5x788c2120
 340.256456534 320.095015254 374.248856883 404 464 404 c 4
234 404 m 4
 272.61487606 404 320 389.395645203 320 344 c 4
 320 318.31211937 304.401289132 295 274 295 c 4
 250.212699037 295 229 308.760799244 229 333 c 4
 229 373.29380992 263.775279701 373.162919552 267 378 c 4
 267 385.711064051 252.217338622 386 250 386 c 4
 222.94828101 386 190.010609783 360.074268481 174 248 c 5x79c42120
 238 248 l 5
 238 218 l 5
 168 218 l 5
 157.901619484 175.182866613 121.738735227 35.615741601 63 -41 c 4
 58.8796807235 -46.3743294911 -27.7027569327 -158 -111 -158 c 6
 -114 -158 l 6
 -134.986468754 -158 -172 -145.203523713 -172 -105 c 4
 -172 -98.0151748113 -170.088355044 -55 -123 -55 c 4xba842120
 -101.044633709 -55 -77 -74.1238803607 -77 -98 c 4
 -77 -130.980216304 -106 -129.504458025 -106 -136 c 260
 -106 -137.444444444 -106 -140 -98 -140 c 4
 -21.0090265321 -140 48.3535783521 99.4143134082 78 218 c 5x7a842120
 9 218 l 5
 9 248 l 5
 87 248 l 5x79842120
 110.256456534 320.095015254 144.248856883 404 234 404 c 4
EndSplineSet
Validated: 11
EndChar

StartChar: uniE533
Encoding: 58675 58675 73
Width: 1460
Flags: W
HStem: -158 103<-161.723 -107.093 68.2767 122.907 298.277 352.907 528.277 582.907 758.277 812.907 978.277 1032.91> -158 18<-106 -73.0531 124 156.947 354 386.947 584 616.947 814 846.854 1034 1066.95> 218 30<9 78 174 308 404 538 634 768 864 998 1094 1218 1314 1378> 386 18<225.348 266.282 455.348 496.282 685.348 726.282 915.348 956.282 1145.36 1186.28 1365.35 1406.28>
VStem: -172 66<-139.718 -101.508> 58 66<-139.718 -101.508> 78 90<141.764 218> 87 87<248 306.137> 267 53<367.691 385.166> 288 66<-139.718 -101.508> 308 90<141.764 218> 317 87<248 306.137> 497 53<367.691 385.166> 518 66<-139.718 -101.508> 538 90<141.764 218> 547 87<248 306.137> 727 53<367.691 385.166> 748 66<-139.718 -101.508> 768 90<141.764 218> 777 87<248 306.137> 957 53<367.691 385.166> 968 66<-139.718 -101.508> 1007 87<248 306.156> 1187 53<367.692 385.168> 1218 90<141.764 218> 1227 87<248 306.137> 1407 53<367.691 385.166>
LayerCount: 2
Fore
SplineSet
459 218 m 5
 459 248 l 1029x38000020
234 404 m 0
 272.61487606 404 320 389.395645203 320 344 c 0
 320 318.31211937 304.401289132 295 274 295 c 0
 250.212699037 295 229 308.760799244 229 333 c 0
 229 373.29380992 263.775279701 373.162919552 267 378 c 0x79800020
 267 385.711064051 252.217338622 386 250 386 c 0
 222.94828101 386 190.010609783 360.074268481 174 248 c 1
 317 248 l 1
 340.256456534 320.095015254 374.248856883 404 464 404 c 0
 502.61487606 404 550 389.395645203 550 344 c 0
 550 318.31211937 534.401289132 295 504 295 c 0
 480.212699037 295 459 308.760799244 459 333 c 0
 459 373.29380992 493.775279701 373.162919552 497 378 c 0x79180020
 497 385.711064051 482.217338622 386 480 386 c 0
 452.94828101 386 420.010609783 360.074268481 404 248 c 1
 547 248 l 1
 570.256456534 320.095015254 604.248856883 404 694 404 c 0
 732.61487606 404 780 389.395645203 780 344 c 0
 780 318.31211937 764.401289132 295 734 295 c 0
 710.212699037 295 689 308.760799244 689 333 c 0
 689 373.29380992 723.775279701 373.162919552 727 378 c 0x78118020
 727 385.711064051 712.217338622 386 710 386 c 0
 682.94828101 386 650.010609783 360.074268481 634 248 c 1
 777 248 l 1
 800.256456534 320.095015254 834.248856883 404 924 404 c 0
 962.61487606 404 1010 389.395645203 1010 344 c 0
 1010 318.31211937 994.401289132 295 964 295 c 0
 940.212699037 295 919 308.760799244 919 333 c 0
 919 373.29380992 953.775279701 373.162919552 957 378 c 0x78011820
 957 385.711064051 942.217338622 386 940 386 c 0
 912.94828101 386 880.010609783 360.074268481 864 248 c 1
 1007 248 l 1
 1030.25640698 320.092477073 1064.24692323 404 1154 404 c 0
 1192.6070357 404 1240 389.399982999 1240 344 c 0
 1240 318.31249278 1224.40135513 295 1194 295 c 0
 1170.21264193 295 1149 308.760748834 1149 333 c 0
 1149 373.293943046 1183.77651463 373.16359118 1187 378 c 0x78001320
 1187 385.710815816 1172.21776679 386 1170 386 c 0
 1142.99183092 386 1110.01764655 360.146994956 1094 248 c 1
 1227 248 l 1
 1250.25683594 320.094726562 1284.24902344 404 1374 404 c 0
 1412.61523438 404 1460 389.395507812 1460 344 c 0
 1460 318.3125 1444.40136719 295 1414 295 c 0
 1390.21289062 295 1369 308.760742188 1369 333 c 0
 1369 373.293945312 1403.77539062 373.163085938 1407 378 c 0
 1407 385.7109375 1392.21777344 386 1390 386 c 0
 1362.94824219 386 1330.01074219 360.07421875 1314 248 c 1x78000260
 1378 248 l 1
 1378 218 l 1
 1308 218 l 1
 1297.90136719 175.182617188 1261.73828125 35.6162109375 1203 -41 c 0
 1198.87988281 -46.3740234375 1112.296875 -158 1029 -158 c 2
 1026 -158 l 2
 1005.01367188 -158 968 -145.203125 968 -105 c 0
 968 -98.015625 969.912109375 -55 1017 -55 c 0xb80004a0
 1038.95507812 -55 1063 -74.1240234375 1063 -98 c 0
 1063 -130.98046875 1034 -129.504882812 1034 -136 c 0
 1034 -137.444335938 1034 -140 1042 -140 c 0x780004a0
 1118.99121094 -140 1188.35351562 99.4140625 1218 218 c 1
 1088 218 l 1
 1077.89970818 175.175401846 1041.73815497 35.6166112786 983 -41 c 0
 978.884416773 -46.3682660014 892.299578247 -158 809 -158 c 2
 806 -158 l 2
 785.016880617 -158 748 -145.205888737 748 -105 c 0
 748 -98.0151947429 749.911643382 -55 797 -55 c 0xb80044a0
 818.955437241 -55 843 -74.1239030077 843 -98 c 0
 843 -130.980228696 814 -129.504396994 814 -136 c 0
 814 -137.444308798 814 -140 822 -140 c 0x780044a0
 889.352578546 -140 949.086338218 40.7108175841 977.5 143 c 0
 985 170 994 205 998 218 c 1
 858 218 l 1
 847.901619484 175.182866613 811.738735227 35.615741601 753 -41 c 0
 748.879680723 -46.3743294911 662.297243067 -158 579 -158 c 2
 576 -158 l 2
 555.013531246 -158 518 -145.203523713 518 -105 c 0
 518 -98.0151748113 519.911644956 -55 567 -55 c 0xb8042020
 588.955366291 -55 613 -74.1238803607 613 -98 c 0
 613 -130.980216304 584 -129.504458025 584 -136 c 0
 584 -137.444444444 584 -140 592 -140 c 0x78042020
 668.990973468 -140 738.353578352 99.4143134082 768 218 c 1
 628 218 l 1
 617.901619484 175.182866613 581.738735227 35.615741601 523 -41 c 0
 518.879680723 -46.3743294911 432.297243067 -158 349 -158 c 2
 346 -158 l 2
 325.013531246 -158 288 -145.203523713 288 -105 c 0
 288 -98.0151748113 289.911644956 -55 337 -55 c 0xb8422020
 358.955366291 -55 383 -74.1238803607 383 -98 c 0
 383 -130.980216304 354 -129.504458025 354 -136 c 0
 354 -137.444444444 354 -140 362 -140 c 0x78422020
 438.990973468 -140 508.353578352 99.4143134082 538 218 c 1
 398 218 l 1
 387.901619484 175.182866613 351.738735227 35.615741601 293 -41 c 0
 288.879680723 -46.3743294911 202.297243067 -158 119 -158 c 2
 116 -158 l 2
 95.0135312461 -158 58 -145.203523713 58 -105 c 0
 58 -98.0151748113 59.9116449564 -55 107 -55 c 0xbc220020
 128.955366291 -55 153 -74.1238803607 153 -98 c 0
 153 -130.980216304 124 -129.504458025 124 -136 c 0
 124 -137.444444444 124 -140 132 -140 c 0x7c220020
 208.990973468 -140 278.353578352 99.4143134083 308 218 c 1
 168 218 l 1
 157.901619484 175.182866613 121.738735227 35.615741601 63 -41 c 0
 58.8796807235 -46.3743294911 -27.7027569327 -158 -111 -158 c 2
 -114 -158 l 2
 -134.986468754 -158 -172 -145.203523713 -172 -105 c 0
 -172 -98.0151748113 -170.088355044 -55 -123 -55 c 0xba200020
 -101.044633709 -55 -77 -74.1238803607 -77 -98 c 0
 -77 -130.980216304 -106 -129.504458025 -106 -136 c 0
 -106 -137.444444444 -106 -140 -98 -140 c 0
 -21.0090265321 -140 48.3535783521 99.4143134082 78 218 c 1x7a200020
 9 218 l 1
 9 248 l 1
 87 248 l 1x79000020
 110.256456534 320.095015254 144.248856883 404 234 404 c 0
EndSplineSet
Validated: 3
EndChar

StartChar: articMarcatoAbove
Encoding: 58540 58540 74
Width: 342
Flags: W
HStem: 0 21G<0 47.5283 234.094 342>
LayerCount: 2
Fore
SplineSet
342 0 m 1
 244 0 l 1
 139 212 l 1
 38 0 l 1
 0 0 l 1
 175 363 l 1
 342 0 l 1
EndSplineSet
Validated: 1
EndChar

StartChar: articMarcatoBelow
Encoding: 58541 58541 75
Width: 342
Flags: W
HStem: -20 20G<0 107.906 294.472 342>
LayerCount: 2
Fore
SplineSet
0 0 m 5
 98 0 l 5
 203 -212 l 5
 304 0 l 5
 342 0 l 5
 167 -363 l 5
 0 0 l 5
EndSplineSet
Validated: 1
EndChar

StartChar: articMarcatoStaccatoAbove
Encoding: 58542 58542 76
Width: 342
Flags: W
HStem: -6 74<118.86 170.171>
VStem: 107 74<5.34473 56.6553>
LayerCount: 2
Fore
SplineSet
342 28 m 5
 244 28 l 5
 139 240 l 5
 38 28 l 5
 0 28 l 5
 175 391 l 5
 342 28 l 5
181 31 m 256
 181 21 177.5 12.3333333333 170.5 5 c 0
 163.5 -2.33333333333 155 -6 145 -6 c 256
 135 -6 126.166666667 -2.33333333333 118.5 5 c 0
 110.833333333 12.3333333333 107 21 107 31 c 0
 107 41.6666666667 110.833333333 50.5 118.5 57.5 c 0
 126.166666667 64.5 135 68 145 68 c 256
 155 68 163.5 64.3333333333 170.5 57 c 0
 177.5 49.6666666667 181 41 181 31 c 256
EndSplineSet
Validated: 1
EndChar

StartChar: articMarcatoStaccatoBelow
Encoding: 58543 58543 77
Width: 342
Flags: W
HStem: -74 74<171.829 223.14>
VStem: 161 74<-62.6553 -11.3447>
LayerCount: 2
Fore
SplineSet
0 -34 m 5
 98 -34 l 5
 203 -246 l 5
 304 -34 l 5
 342 -34 l 5
 167 -397 l 5
 0 -34 l 5
161 -37 m 260
 161 -27 164.5 -18.3330078125 171.5 -11 c 4
 178.5 -3.6669921875 187 0 197 0 c 260
 207 0 215.833007812 -3.6669921875 223.5 -11 c 4
 231.166992188 -18.3330078125 235 -27 235 -37 c 4
 235 -47.6669921875 231.166992188 -56.5 223.5 -63.5 c 4
 215.833007812 -70.5 207 -74 197 -74 c 260
 187 -74 178.5 -70.3330078125 171.5 -63 c 4
 164.5 -55.6669921875 161 -47 161 -37 c 260
EndSplineSet
Validated: 1
EndChar

StartChar: fermataAbove
Encoding: 58560 58560 78
Width: 543
Flags: W
HStem: 16 125<223.117 318.943> 266 85<170.564 374.556>
VStem: 0 20<3.14739 55.1839> 208 126<31.7542 125.608> 523 20<3.14739 56.8802>
LayerCount: 2
Fore
SplineSet
543 56 m 0
 543 3 535.742138365 3 531 3 c 0
 524.241010831 3 523 7.12987675796 523 12 c 0
 512.624181112 82.5555684379 466.906834735 266 272 266 c 256
 168.125817616 266 48.2130354236 206.669944423 20 12 c 0
 18.5012760122 4.5063800612 16.6396360251 3 12 3 c 0
 6.88050314465 3 0 3 0 56 c 0
 0 192.941852556 90.7471583563 351 272 351 c 0
 448.316093679 351 543 199.192593512 543 56 c 0
276 141 m 1
 305.319715995 138.556690334 334 115.714916875 334 78 c 2
 334 73 l 1
 331.36381451 41.3657741239 305.273289468 16 271 16 c 2
 266 16 l 1
 234.110549432 18.657454214 208 45.2841205444 208 78 c 2
 208 83 l 1
 210.79145036 119.28885468 237.847919635 141 270 141 c 2
 276 141 l 1
EndSplineSet
Validated: 1
EndChar

StartChar: fermataBelow
Encoding: 58561 58561 79
Width: 543
Flags: W
HStem: -348 85<170.562 374.522> -138 125<223.185 270 271 318.835>
VStem: 0 20<-52.2496 -0.263977> 208 126<-122.904 -28.8047> 523 20<-54.0303 -0.202179>
LayerCount: 2
Fore
SplineSet
543 -53 m 0
 543 0 535 0 531 0 c 0
 527 0 524 -2 523 -9 c 0
 512.859980276 -79.9801380669 467 -263 272 -263 c 256
 168 -263 48 -204 20 -9 c 0
 19 -2 16 0 12 0 c 0
 8 0 0 -1 0 -53 c 0
 0 -190 91 -348 272 -348 c 0
 448 -348 543 -196 543 -53 c 0
276 -138 m 1
 305 -136 334 -113 334 -75 c 2
 334 -70 l 1
 331 -38 305 -13 271 -13 c 2
 266 -13 l 1
 234 -16 208 -42 208 -75 c 2
 208 -80 l 1
 211 -116 238 -138 270 -138 c 2
 276 -138 l 1
EndSplineSet
Validated: 9
EndChar

StartChar: dynamicPF
Encoding: 58670 58670 80
Width: 686
Flags: W
HStem: -158 103<204.277 258.907> -158 18<260 292.947> -3 25<170.78 213.98> 218 30<375 444 540 604> 220 41<98.014 130.997> 229 26<214.424 262.9> 386 18<591.348 632.282>
VStem: 55 10<147.459 157> 194 66<-139.718 -101.508> 268 57<99.3539 222.621> 444 90<141.764 218> 453 87<248 306.137> 633 53<367.691 385.166>
LayerCount: 2
Fore
SplineSet
600 404 m 4x73d8
 638.615234375 404 686 389.395507812 686 344 c 4
 686 318.3125 670.401367188 295 640 295 c 4
 616.212890625 295 595 308.760742188 595 333 c 4
 595 373.293945312 629.775390625 373.163085938 633 378 c 4
 633 385.7109375 618.217773438 386 616 386 c 4
 588.948242188 386 556.010742188 360.07421875 540 248 c 5x73d8
 604 248 l 5
 604 218 l 5
 534 218 l 5
 523.901367188 175.182617188 487.73828125 35.6162109375 429 -41 c 4
 424.879882812 -46.3740234375 338.296875 -158 255 -158 c 6
 252 -158 l 6
 231.013671875 -158 194 -145.203125 194 -105 c 4
 194 -98.015625 195.912109375 -55 243 -55 c 4xb3e8
 264.955078125 -55 289 -74.1240234375 289 -98 c 4
 289 -130.98046875 260 -129.504882812 260 -136 c 260
 260 -137.444335938 260 -140 268 -140 c 4
 344.991210938 -140 414.353515625 99.4140625 444 218 c 5x73e8
 375 218 l 5
 375 248 l 5
 453 248 l 5
 476.256835938 320.094726562 510.249023438 404 600 404 c 4x73d8
253 255 m 6x27c8
 288.154296875 255 325 207.030273438 325 154 c 6
 325 148 l 6
 325 64.046875 274.797851562 -3 211 -3 c 6
 209 -3 l 6
 188.825195312 -2.2236328125 155.055664062 3.3603515625 144 31 c 5
 114 -67 l 5
 114 -68 l 6
 114 -82.4521484375 154 -67.8466796875 154 -93 c 5
 0 -93 l 5
 8.3759765625 -67.87109375 25.6015625 -84.3984375 43 -67 c 5
 43.83203125 -64.2255859375 131 202.634765625 131 209 c 4
 131 215 127.333007812 218.666992188 120 220 c 5
 119 220 l 6
 99.23046875 220 66.482421875 149.9765625 65 148 c 4
 64.3330078125 147.333007812 63.3330078125 147 62 147 c 4
 61.908203125 147 55 147.7265625 55 153 c 4
 60.1826171875 178.915039062 90.5146484375 261 135 261 c 6
 136 261 l 6x2bc8
 146.497070312 260.596679688 178.736328125 259.356445312 189 226 c 5
 212.485351562 251.833984375 227.931640625 254.205078125 247 255 c 6
 253 255 l 6x27c8
195 22 m 4
 240.267578125 27.029296875 268 179.493164062 268 190 c 6
 268 197 l 6
 268 198.768554688 267.625 229 242 229 c 4x27c8
 181.25 229 162 69.7978515625 162 68 c 6
 162 61 l 5
 163.236328125 48.0146484375 167.143554688 22 195 22 c 4
EndSplineSet
Validated: 1
EndChar

StartChar: unpitchedPercussionClef2
Encoding: 57450 57450 81
Width: 254
Flags: W
HStem: -444 85<42 211> 359 85<42 211>
VStem: 0 42<-359 359> 211 43<-359 359>
LayerCount: 2
Fore
SplineSet
254 -444 m 1
 0 -444 l 1
 0 444 l 1
 254 444 l 1
 254 -444 l 1
211 -359 m 1
 211 359 l 1
 42 359 l 1
 42 -359 l 1
 211 -359 l 1
EndSplineSet
Validated: 1
EndChar

StartChar: sixStringTabClef
Encoding: 57453 57453 82
Width: 489
Flags: W
HStem: -769 18<23 68.0879 193.71 313.24> -517 18<177 295.472> -285 18<23 69.7003 194.081 302.202> -258 18<0 45.8556 138.088 186 265 310.75 453.094 489> -111 25<144 285> 254 18<122 175.355 312.604 366>
VStem: 48 21<569 622.603> 83 94<-739.682 -517 -499 -295.803> 197 94<283.834 738> 346 103<-444.706 -322.912> 362 104<-712.874 -569.543> 423 20<569 617>
LayerCount: 2
Fore
SplineSet
443 569 m 5xff90
 423 569 l 5
 421 585.666992188 418.333007812 599.666992188 415 611 c 4
 409 632.333007812 399.333007812 653.666992188 386 675 c 4
 370 699.666992188 353.333007812 716.666992188 336 726 c 4
 325.333007812 732 310.333007812 736 291 738 c 5
 291 328 l 6
 291 305.333007812 297 290.333007812 309 283 c 4
 319 276.333007812 338 272.666992188 366 272 c 5
 366 254 l 5
 122 254 l 5
 122 272 l 5
 150 272.666992188 169.5 276.5 180.5 283.5 c 4
 191.5 290.5 197 305.333007812 197 328 c 6
 197 738 l 5
 177.666992188 735.333007812 163 731.666992188 153 727 c 4
 135.666992188 717.666992188 119.333007812 701.333007812 104 678 c 4
 84.6669921875 647.333007812 73 611 69 569 c 5
 48 569 l 5
 58 756 l 5
 433 756 l 5
 443 569 l 5xff90
489 -258 m 5
 265 -258 l 5
 265 -240 l 5
 305.666992188 -238.666992188 326 -228.333007812 326 -209 c 4
 326 -203.666992188 325 -199 323 -195 c 6
 293 -111 l 5
 137 -111 l 5
 116 -168 l 6
 113.333007812 -178.666992188 112 -187 112 -193 c 4
 112 -223 136.666992188 -238.666992188 186 -240 c 5
 186 -258 l 5
 0 -258 l 5
 0 -240 l 5
 44.6669921875 -238.666992188 72 -223.333007812 82 -194 c 6
 234 248 l 5
 261 248 l 5
 417 -188 l 6
 428.333007812 -220.666992188 452.333007812 -238 489 -240 c 5
 489 -258 l 5
285 -86 m 5
 213 121 l 5
 144 -86 l 5
 285 -86 l 5
466 -639 m 4xffa0
 466 -725.666992188 404 -769 280 -769 c 6
 23 -769 l 5
 23 -751 l 5
 47 -750.333007812 63 -746.666992188 71 -740 c 4
 79 -733.333007812 83 -718.666992188 83 -696 c 6
 83 -341 l 6
 83 -317 79.3330078125 -301.833007812 72 -295.5 c 4
 64.6669921875 -289.166992188 48.3330078125 -285.666992188 23 -285 c 5
 23 -267 l 5
 280 -267 l 6
 328.666992188 -267 369 -277.833007812 401 -299.5 c 4
 433 -321.166992188 449 -349 449 -383 c 4xffc0
 449 -415.666992188 435.333007812 -443 408 -465 c 4
 383.333007812 -485 347 -499.666992188 299 -509 c 5
 347 -515.666992188 382.333007812 -525 405 -537 c 4
 445.666992188 -558.333007812 466 -592.333007812 466 -639 c 4xffa0
346 -393 m 4
 346 -349.666992188 336.666992188 -320 318 -304 c 4
 303.333007812 -291.333007812 287 -285 269 -285 c 6
 223 -285 l 6
 192.333007812 -285 177 -303.666992188 177 -341 c 6
 177 -499 l 5
 250 -499 l 6
 314 -499 346 -463.666992188 346 -393 c 4
362 -634 m 4xffa0
 362 -556 325.666992188 -517 253 -517 c 6
 177 -517 l 5
 177 -696 l 6
 177 -732.666992188 192 -751 222 -751 c 6
 278 -751 l 6
 304 -751 324.5 -740 339.5 -718 c 4
 354.5 -696 362 -668 362 -634 c 4xffa0
EndSplineSet
Validated: 1
EndChar

StartChar: unpitchedPercussionClef1
Encoding: 57449 57449 83
Width: 601
Flags: W
VStem: 0 129<-258 250> 194 129<-258 250>
LayerCount: 2
Fore
SplineSet
194 -258 m 1
 194 250 l 1
 323 250 l 1
 323 -258 l 1
 194 -258 l 1
0 -258 m 1
 0 250 l 1
 129 250 l 1
 129 -258 l 1
 0 -258 l 1
EndSplineSet
Validated: 1
EndChar

StartChar: bracketTop
Encoding: 57347 57347 84
Width: 344
Flags: W
HStem: 0 92<0 169.167>
VStem: 315 29<282.105 337.483>
LayerCount: 2
Fore
SplineSet
0 92 m 1
 78 92 l 2
 133.452324958 92 183.166342297 112.795405946 231 156 c 0
 269.249626586 190.54804982 302.234749282 262.408495693 315 339 c 1
 344 337 l 1
 338.290377484 236.130002221 316.70405282 151.583563953 284 102 c 0
 248.985148712 48.9129674017 172.738464233 0 125 0 c 2
 0 0 l 1
 0 92 l 1
EndSplineSet
Validated: 1
EndChar

StartChar: bracketBottom
Encoding: 57348 57348 85
Width: 344
Flags: W
HStem: -92 92<78 169.167>
VStem: 315 29<-337.483 -282.105>
LayerCount: 2
Fore
SplineSet
0 -92 m 5
 78 -92 l 6
 133.452148438 -92 183.166015625 -112.794921875 231 -156 c 4
 269.25 -190.547851562 302.234375 -262.408203125 315 -339 c 5
 344 -337 l 5
 338.290039062 -236.129882812 316.704101562 -151.583984375 284 -102 c 4
 248.985351562 -48.9130859375 172.73828125 0 125 0 c 6
 0 0 l 5
 0 -92 l 5
EndSplineSet
Validated: 9
EndChar

StartChar: uniE001
Encoding: 57345 57345 86
Width: 85
Flags: W
VStem: 3 23<306.762 405.58 594.42 693.238> 38 24<86.1865 206.968 793.032 913.814>
LayerCount: 2
Fore
SplineSet
2 1000 m 5
 0 998 l 5
 0 998 17 973 22 959 c 4
 26 948 38 922 38 888 c 4
 38 854 26 790 20 762 c 4
 14 734 3 688 3 665 c 4
 3 642 7 609 20 579 c 4
 34 546 61 525 78 500 c 5
 61 475 34 454 20 421 c 4
 7 391 3 358 3 335 c 4
 3 312 14 266 20 238 c 4
 26 210 38 146 38 112 c 4
 38 78 26 52 22 41 c 4
 17 27 0 2 0 2 c 5
 2 0 l 5
 2 0 23 27 39 58 c 4
 53 86 62 127 62 153 c 4
 62 179 50 254 45 275 c 4
 40 296 26 348 26 377 c 4
 26 406 32 425 43 442 c 4
 53 457 76 484 85 500 c 5
 76 516 53 543 43 558 c 4
 32 575 26 594 26 623 c 4
 26 652 40 704 45 725 c 4
 50 746 62 821 62 847 c 4
 62 873 53 914 39 942 c 4
 23 973 2 1000 2 1000 c 5
EndSplineSet
Validated: 9
EndChar

StartChar: tremolo1
Encoding: 57888 57888 87
Width: 341
Flags: W
HStem: -100 200
LayerCount: 2
Fore
SplineSet
341 10 m 1
 0 -100 l 1
 0 -10 l 1
 341 100 l 1
 341 10 l 1
EndSplineSet
Validated: 1
EndChar

StartChar: tremolo2
Encoding: 57889 57889 88
Width: 341
Flags: W
LayerCount: 2
Fore
SplineSet
341 83 m 1
 0 -27 l 1
 0 63 l 1
 341 172 l 1
 341 83 l 1
341 -63 m 1
 0 -173 l 1
 0 -83 l 1
 341 27 l 1
 341 -63 l 1
EndSplineSet
Validated: 1
EndChar

StartChar: tremolo3
Encoding: 57890 57890 89
Width: 341
Flags: W
LayerCount: 2
Fore
SplineSet
341 155 m 1
 0 45 l 1
 0 135 l 1
 341 245 l 1
 341 155 l 1
341 10 m 1
 0 -100 l 1
 0 -10 l 1
 341 99 l 1
 341 10 l 1
341 -136 m 1
 0 -246 l 1
 0 -156 l 1
 341 -46 l 1
 341 -136 l 1
EndSplineSet
Validated: 1
EndChar

StartChar: tremolo4
Encoding: 57891 57891 90
Width: 341
Flags: W
LayerCount: 2
Fore
SplineSet
341 228 m 1
 0 118 l 1
 0 208 l 1
 341 318 l 1
 341 228 l 1
341 83 m 1
 0 -27 l 1
 0 63 l 1
 341 172 l 1
 341 83 l 1
341 -62 m 1
 0 -172 l 1
 0 -82 l 1
 341 27 l 1
 341 -62 l 1
341 -208 m 1
 0 -318 l 1
 0 -228 l 1
 341 -118 l 1
 341 -208 l 1
EndSplineSet
Validated: 1
EndChar

StartChar: timeSigCommon
Encoding: 57482 57482 91
Width: 422
Flags: W
HStem: -260 42<183.352 297.012> 234 26<189.925 296.26>
VStem: 0 107<-115.443 114.631> 311 98<90.3333 206> 382 23<-109.387 -32>
LayerCount: 2
Fore
SplineSet
409 101 m 0xf0
 409 79.6666666667 401.666666667 61 387 45 c 0
 372.333333333 29 354.333333333 21 333 21 c 0
 312.333333333 21 293.666666667 28.1666666667 277 42.5 c 0
 260.333333333 56.8333333333 252 74 252 94 c 0
 252 117.333333333 257.333333333 135.333333333 268 148 c 0
 272 152.666666667 281.333333333 159.666666667 296 169 c 0
 306 175.666666667 311 183.333333333 311 192 c 0xf0
 311 220 288 234 242 234 c 0
 192.666666667 234 156.333333333 207.333333333 133 154 c 0
 115.666666667 114.666666667 107 66.6666666667 107 10 c 0
 107 -44.6666666667 117 -93.3333333333 137 -136 c 0
 162.333333333 -190.666666667 198.666666667 -218 246 -218 c 0
 247 -218 247 -218 248 -218 c 0
 291.333333333 -217.333333333 325.333333333 -197 350 -157 c 0
 370.666666667 -122.333333333 381.333333333 -80.6666666667 382 -32 c 1
 405 -32 l 1xe8
 403.666666667 -102 386 -157 352 -197 c 0
 316.666666667 -239 266.333333333 -260 201 -260 c 0
 137 -260 86.3333333333 -232 49 -176 c 0
 16.3333333333 -128 0 -70.3333333333 0 -3 c 0
 0 67.6666666667 19.6666666667 128 59 178 c 0
 102.333333333 232.666666667 158.333333333 260 227 260 c 0
 281 260 324 247.333333333 356 222 c 0
 391.333333333 194 409 153.666666667 409 101 c 0xf0
EndSplineSet
Validated: 1
EndChar

StartChar: timeSigCutCommon
Encoding: 57483 57483 92
Width: 422
Flags: W
HStem: -258 40<231.25 298.622> 234 26<231 296.724>
VStem: 0 107<-115.983 113.29> 203 28<-384 -260 -209 228 260 376> 311 98<90.3333 206> 382 23<-109.387 -32>
LayerCount: 2
Fore
SplineSet
409 101 m 0xf8
 409 79.6666666667 401.666666667 61 387 45 c 0
 372.333333333 29 354.333333333 21 333 21 c 0
 312.333333333 21 293.666666667 28.1666666667 277 42.5 c 0
 260.333333333 56.8333333333 252 74 252 94 c 0
 252 117.333333333 257.333333333 135.333333333 268 148 c 0
 272 152.666666667 281.333333333 159.666666667 296 169 c 0
 306 175.666666667 311 183.333333333 311 192 c 0xf8
 311 220 288 234 242 234 c 0
 241 234 241 234 241 234 c 257
 241 234 241 234 240 234 c 2
 239 234 l 1
 239 234 239 234 238 234 c 1
 237 234 l 1
 237 234 237 234 236 234 c 2
 233 234 l 2
 232 234 232 234 232 234 c 257
 232 234 232 234 231 234 c 1
 231 -217 l 1
 236.333333333 -217.666666667 242 -218 248 -218 c 0
 291.333333333 -217.333333333 325.333333333 -197 350 -157 c 0
 370.666666667 -122.333333333 381.333333333 -80.6666666667 382 -32 c 1
 405 -32 l 1xf4
 403.666666667 -96.6666666667 388.666666667 -148.333333333 360 -187 c 0
 329.333333333 -228.333333333 286.333333333 -252 231 -258 c 1
 231 -384 l 1
 203 -384 l 1
 203 -260 l 1
 201 -260 l 2
 137 -260 86.3333333333 -232.333333333 49 -177 c 0
 16.3333333333 -128.333333333 0 -70.3333333333 0 -3 c 0
 0 63 17.6666666667 120.666666667 53 170 c 0
 91 222.666666667 141 252.333333333 203 259 c 1
 203 376 l 1
 231 376 l 1
 231 260 l 1
 284.333333333 259.333333333 326.666666667 246.333333333 358 221 c 0
 392 193 409 153 409 101 c 0xf8
203 -209 m 1
 203 228 l 1
 168.333333333 215.333333333 142.666666667 184.666666667 126 136 c 0
 113.333333333 99.3333333333 107 57.3333333333 107 10 c 0
 107 -34 114 -75.3333333333 128 -114 c 0
 145.333333333 -162.666666667 170.333333333 -194.333333333 203 -209 c 1
EndSplineSet
Validated: 5
EndChar

StartChar: stringsDownBow
Encoding: 58896 58896 93
Width: 280
Flags: W
HStem: 0 21G<0 33 248 280> 274 100<33 248>
VStem: 0 33<0 274> 248 32<0 274>
LayerCount: 2
Fore
SplineSet
280 0 m 1
 248 0 l 1
 248 274 l 1
 33 274 l 1
 33 0 l 1
 0 0 l 1
 0 374 l 1
 280 374 l 1
 280 0 l 1
EndSplineSet
Validated: 1
EndChar

StartChar: stringsDownBowTurned
Encoding: 58897 58897 94
Width: 280
Flags: W
VStem: 0 280
LayerCount: 2
Fore
SplineSet
280 0 m 5
 248 0 l 5
 248 -274 l 5
 33 -274 l 5
 33 0 l 5
 0 0 l 5
 0 -374 l 5
 280 -374 l 5
 280 0 l 5
EndSplineSet
Validated: 9
EndChar

StartChar: stringsUpBow
Encoding: 58898 58898 95
Width: 270
Flags: W
HStem: 0 21G<132.333 137.667>
VStem: 0 270
LayerCount: 2
Fore
SplineSet
270 374 m 1
 147 12 l 2
 144.333333333 4 140.333333333 0 135 0 c 256
 129.666666667 0 125.666666667 4 123 12 c 2
 0 374 l 1
 37 374 l 1
 135 86 l 1
 233 374 l 1
 270 374 l 1
EndSplineSet
Validated: 1
EndChar

StartChar: stringsUpBowTurned
Encoding: 58899 58899 96
Width: 270
Flags: W
LayerCount: 2
Fore
SplineSet
270 -374 m 5
 147 -12 l 6
 144.333007812 -4 140.333007812 0 135 0 c 260
 129.666992188 0 125.666992188 -4 123 -12 c 6
 0 -374 l 5
 37 -374 l 5
 135 -86 l 5
 233 -374 l 5
 270 -374 l 5
EndSplineSet
Validated: 9
EndChar

StartChar: stringsHarmonic
Encoding: 58900 58900 97
Width: 210
Flags: W
HStem: 0 23<63.4116 146.47> 187 23<63.4116 146.47>
VStem: 0 23<63.0954 146.905> 186 24<61.8445 148.156>
LayerCount: 2
Fore
SplineSet
210 105 m 260
 210 76.3330078125 199.666992188 51.6669921875 179 31 c 4
 158.333007812 10.3330078125 133.666992188 0 105 0 c 260
 76.3330078125 0 51.6669921875 10.1669921875 31 30.5 c 4
 10.3330078125 50.8330078125 0 75.6669921875 0 105 c 260
 0 134.333007812 10.3330078125 159.166992188 31 179.5 c 4
 51.6669921875 199.833007812 76.3330078125 210 105 210 c 260
 133.666992188 210 158.333007812 199.666992188 179 179 c 4
 199.666992188 158.333007812 210 133.666992188 210 105 c 260
186 105 m 260
 186 127.666992188 178.166992188 147 162.5 163 c 4
 146.833007812 179 127.666992188 187 105 187 c 260
 82.3330078125 187 63 179 47 163 c 4
 31 147 23 127.666992188 23 105 c 260
 23 82.3330078125 31 63 47 47 c 4
 63 31 82.3330078125 23 105 23 c 260
 127.666992188 23 146.833007812 31 162.5 47 c 4
 178.166992188 63 186 82.3330078125 186 105 c 260
EndSplineSet
Validated: 1
EndChar

StartChar: stringsHalfHarmonic
Encoding: 58901 58901 98
Width: 210
Flags: W
HStem: 0 23<105 146.153> 187 23<105 146.153>
VStem: 0 105<41.3831 168.617> 186 24<61.8445 148.156>
LayerCount: 2
Fore
SplineSet
210 105 m 256
 210 76.3330078125 199.666992188 51.6669921875 179 31 c 0
 158.333007812 10.3330078125 133.666992188 0 105 0 c 256
 76.3330078125 0 51.6669921875 10.1669921875 31 30.5 c 0
 10.3330078125 50.8330078125 0 75.6669921875 0 105 c 256
 0 134.333007812 10.3330078125 159.166992188 31 179.5 c 0
 51.6669921875 199.833007812 76.3330078125 210 105 210 c 256
 133.666992188 210 158.333007812 199.666992188 179 179 c 0
 199.666992188 158.333007812 210 133.666992188 210 105 c 256
186 105 m 256
 186 127.666992188 178.166992188 147 162.5 163 c 0
 146.833007812 179 127.666992188 187 105 187 c 260
 105 23 l 260
 127.666992188 23 146.833007812 31 162.5 47 c 0
 178.166992188 63 186 82.3330078125 186 105 c 256
EndSplineSet
Validated: 1
EndChar

StartChar: ottava
Encoding: 58640 58640 99
Width: 330
Flags: W
HStem: 1 20<76.9913 167.01> 232 12<218 225.949> 393 19<177.951 262.462>
VStem: 0 29<60.361 150.493> 71 52<291.699 353.742> 233 55<65.212 138.288> 293 37<289.823 374.994>
LayerCount: 2
Fore
SplineSet
225 412 m 0
 270.305144847 412 330 389.839854226 330 333 c 0
 330 288.467351201 258.600783155 232 218 232 c 1
 244.001585491 213.089756007 288 175.157126884 288 135 c 0
 288 33.698653546 185.138378066 1 111 1 c 0
 52.3570573672 1 0 46.3992926981 0 108 c 0
 0 164.510564692 65.0228516154 210.793081834 117 219 c 1
 104.465074195 229.322880075 71 256.882352941 71 293 c 0
 71 373.84712825 164.233435901 412 225 412 c 0
203 244 m 0
 239.872019873 244 293 295.230482817 293 332 c 0
 293 342.245847072 289.444840894 393 219 393 c 0
 184.308627803 393 123 364.102369233 123 325 c 0
 125.807353268 296.926467321 201.861536123 244 203 244 c 0
119 21 m 0
 153.499499392 21 233 44.9848194299 233 94 c 0
 233 131.062728752 169.488110455 183.715268901 133 205 c 1
 89.8872580082 202.463956353 29 159.1949984 29 108 c 0
 29 57.9066937396 68.219097273 21 119 21 c 0
EndSplineSet
Validated: 1
EndChar

StartChar: ottavaAlta
Encoding: 58641 58641 100
Width: 834
Flags: W
HStem: 1 20<79.0598 169.01> 163 28<415.822 476.667 630.265 695.814 744.333 790.698> 232 12<220 227.949> 378 27<673.379 734.013> 378 20<363 397> 393 19<180.403 263.285>
VStem: 2 29<59.0475 150.493> 73 52<291.432 354.226> 235 55<65.212 138.288> 295 37<289.823 375.54> 367 42<193.772 317.598> 538 31<282.197 361.84> 573 48<192.724 325.117>
LayerCount: 2
Fore
SplineSet
227 412 m 0xe7f8
 279.771320438 412 332 383.99379419 332 333 c 0
 332 288.467351201 260.600783155 232 220 232 c 1
 246.001585491 213.089756007 290 175.157126884 290 135 c 0
 290 33.698653546 187.138378066 1 113 1 c 0
 51.1577287278 1 2 48.5174676442 2 108 c 0
 2 164.510564692 67.0228516154 210.793081834 119 219 c 1
 74.7740518609 258.022895417 73 274.738123572 73 293 c 0
 73 373.84712825 166.233435901 412 227 412 c 0xe7f8
537 406 m 0
 565.108306203 406 569 376.396001734 569 360 c 0
 569 287.86074014 513.721883045 163 434 163 c 0
 409.490539898 163 367 172.199897082 367 236 c 0
 367 284.722200091 397 320.38891102 397 368 c 0
 397 370.661835749 397 379 374 379 c 0
 365.792745194 379 362.04058814 378 358 378 c 1
 363 398 l 1xebf8
 456 406 l 1
 416.936936937 288.810810811 409 265 409 228 c 0
 409 212.479649742 416.436414678 191 444 191 c 0
 498.289561125 191 538 288.83881241 538 329 c 0
 538 360.739660926 512 360.88640745 512 383 c 0
 512 387.024827624 513.258908774 406 537 406 c 0
767 191 m 0
 792.563097894 191 815.143050794 241.000451853 819 250 c 1
 836 241 l 1
 814.561529434 198.123058868 793.296470493 163 756 163 c 0
 732.666666667 163 721 175.333333333 721 200 c 1
 702.333333333 175.333333333 677.666666667 163 647 163 c 0
 592.685784808 163 573 207.489214609 573 244 c 0
 573 314.986834025 624.753950532 405 697 405 c 0xf3f8
 721.734969613 405 750.589944841 389.604242699 758 357 c 1
 773 398 l 1
 816 398 l 1
 815.507458878 396.399241354 783.699151662 299.916945983 766.5 238 c 0
 761.5 220 759 207.666666667 759 201 c 256
 759 194.333333333 761.666666667 191 767 191 c 0
205 244 m 0
 241.872019873 244 295 295.230482817 295 332 c 0
 295 389.660089036 234.922171381 393 221 393 c 0xe7f8
 188.343441483 393 125 366.356073971 125 325 c 0
 125 299.570713483 203.861536123 244 205 244 c 0
664 188 m 0
 717.835438642 188 743 288.697252656 743 334 c 0
 743 342.001966594 741.104623995 378 707 378 c 0xf3f8
 647.659797329 378 621 280.924401409 621 238 c 0
 621 224.761904995 624.551408583 188 664 188 c 0
121 21 m 0
 155.499499392 21 235 44.9848194299 235 94 c 0
 235 131.062728752 171.488110455 183.715268901 135 205 c 1
 91.8872580082 202.463956353 31 159.1949984 31 108 c 0
 31 55.1371092813 71.8067829054 21 121 21 c 0
EndSplineSet
Validated: 1
EndChar

StartChar: ottavaBassa
Encoding: 58642 58642 101
Width: 834
Flags: W
HStem: 1 28<387.822 450.284 602.265 667.814 717.834 762.698> 1 20<79.0598 169.01> 216 20<335 369> 232 12<220 227.949> 393 19<180.403 263.285>
VStem: 2 29<59.0475 150.493> 73 52<291.432 354.226> 235 55<65.212 138.288> 295 37<289.823 375.54> 339 42<31.7722 155.598> 510 31<120.197 199.84> 545 48<30.7239 163.117>
LayerCount: 2
Fore
SplineSet
227 412 m 0x5ff0
 279.771320438 412 332 383.99379419 332 333 c 0
 332 288.467351201 260.600783155 232 220 232 c 1
 246.001585491 213.089756007 290 175.157126884 290 135 c 0
 290 33.698653546 187.138378066 1 113 1 c 0
 51.1577287278 1 2 48.5174676442 2 108 c 0
 2 164.510564692 67.0228516154 210.793081834 119 219 c 1
 74.7740518609 258.022895417 73 274.738123572 73 293 c 0
 73 373.84712825 166.233435901 412 227 412 c 0x5ff0
509 244 m 0
 537.108398438 244 541 214.396484375 541 198 c 0
 541 125.860351562 485.721679688 1 406 1 c 0
 381.490234375 1 339 10.2001953125 339 74 c 0
 339 122.72265625 369 158.388671875 369 206 c 0
 369 208.662109375 369 217 346 217 c 0
 337.79296875 217 334.041015625 216 330 216 c 1
 335 236 l 1xaff0
 428 244 l 1
 388.936523438 126.810546875 381 103 381 66 c 0
 381 50.4794921875 388.436523438 29 416 29 c 0x9ff0
 470.290039062 29 510 126.838867188 510 167 c 0
 510 198.739257812 484 198.88671875 484 221 c 0
 484 225.024414062 485.258789062 244 509 244 c 0
739 29 m 4
 764.563476562 29 787.142578125 79 791 88 c 5
 808 79 l 5
 786.561523438 36.123046875 765.296875 1 728 1 c 4
 704.666992188 1 693 13.3330078125 693 38 c 5
 674.333007812 13.3330078125 649.666992188 1 619 1 c 4
 564.685546875 1 545 45.4892578125 545 82 c 4
 545 152.987304688 596.75390625 243 669 243 c 4
 693.735351562 243 722.58984375 227.604492188 730 195 c 5
 745 236 l 5
 788 236 l 5
 787.5078125 234.399414062 755.69921875 137.916992188 738.5 76 c 4
 733.5 58 731 45.6669921875 731 39 c 260
 731 32.3330078125 733.666992188 29 739 29 c 4
205 244 m 0x1ff0
 241.872019873 244 295 295.230482817 295 332 c 0
 295 389.660089036 234.922171381 393 221 393 c 0
 188.343441483 393 125 366.356073971 125 325 c 0
 125 299.570713483 203.861536123 244 205 244 c 0x1ff0
636 26 m 4
 689.834960938 26 715 126.697265625 715 172 c 4
 715 180.001953125 713.104492188 216 679 216 c 4x2ff0
 619.66015625 216 593 118.924804688 593 76 c 4
 593 62.76171875 596.551757812 26 636 26 c 4
121 21 m 0x4ff0
 155.499499392 21 235 44.9848194299 235 94 c 0
 235 131.062728752 171.488110455 183.715268901 135 205 c 1
 91.8872580082 202.463956353 31 159.1949984 31 108 c 0
 31 55.1371092813 71.8067829054 21 121 21 c 0x4ff0
EndSplineSet
Validated: 1
EndChar

StartChar: ottavaBassaBa
Encoding: 58643 58643 102
Width: 790
Flags: W
HStem: 1 28<632.265 697.814 747.834 792.698> 1 20<76.3782 167.01 389.71 455.339> 216 27<441.613 495.98 675.379 736.013> 232 12<218 225.949> 349 20<366 377.618> 393 19<178.403 260.87>
VStem: 0 29<59.7482 150.493> 71 52<291.432 354.226> 233 55<65.212 138.288> 293 37<289.823 375.133> 331 45<24.5032 151.437> 512 48<77.2439 206.16> 575 48<30.7239 163.117>
LayerCount: 2
Fore
SplineSet
769 29 m 4xaff8
 794.563476562 29 817.142578125 79 821 88 c 5
 838 79 l 5
 816.561523438 36.123046875 795.296875 1 758 1 c 4
 734.666992188 1 723 13.3330078125 723 38 c 5
 704.333007812 13.3330078125 679.666992188 1 649 1 c 4
 594.685546875 1 575 45.4892578125 575 82 c 4
 575 152.987304688 626.75390625 243 699 243 c 4
 723.735351562 243 752.58984375 227.604492188 760 195 c 5
 775 236 l 5
 818 236 l 5
 817.5078125 234.399414062 785.69921875 137.916992188 768.5 76 c 4
 763.5 58 761 45.6669921875 761 39 c 260
 761 32.3330078125 763.666992188 29 769 29 c 4xaff8
666 26 m 4
 719.834960938 26 745 126.697265625 745 172 c 4
 745 180.001953125 743.104492188 216 709 216 c 4
 649.66015625 216 623 118.924804688 623 76 c 4
 623 62.76171875 626.551757812 26 666 26 c 4
485 241 m 4
 503.809570312 241 560 234.28125 560 154 c 4
 560 76.5390625 497.91796875 -1 413 -1 c 4
 389.001953125 -1 331 6.03125 331 74 c 4
 331 114.620117188 399.362304688 299.53515625 405 339 c 4
 404.522460938 342.34375 403.428710938 350 378 350 c 4
 369.79296875 350 365.041015625 349 361 349 c 5
 366 369 l 5
 464 377 l 5
 412 205 l 5
 421.947265625 217.078125 446.505859375 241 485 241 c 4
225 412 m 0
 270.305144847 412 330 389.839854226 330 333 c 0
 330 288.467351201 258.600783155 232 218 232 c 1
 244.001585491 213.089756007 288 175.157126884 288 135 c 0
 288 33.698653546 185.138378066 1 111 1 c 0x5ff8
 52.3570573672 1 0 46.3992926981 0 108 c 0
 0 164.510564692 65.0228516154 210.793081834 117 219 c 1
 72.7740518609 258.022895417 71 274.738123572 71 293 c 0
 71 373.84712825 164.233435901 412 225 412 c 0
203 244 m 0
 239.872019873 244 293 295.230482817 293 332 c 0
 293 389.660089036 232.922171381 393 219 393 c 0
 186.343441483 393 123 366.356073971 123 325 c 0
 123 299.570713483 201.861536123 244 203 244 c 0
420 19 m 260
 482.001953125 19 512 112.866210938 512 159 c 4
 512 176.198242188 507.491210938 211 471 211 c 4
 409.80859375 211 376 117.2890625 376 69 c 4
 376 54.595703125 380.041992188 19 420 19 c 260
119 21 m 0
 153.499499392 21 233 44.9848194299 233 94 c 0
 233 131.062728752 169.488110455 183.715268901 133 205 c 1
 89.8872580082 202.463956353 29 159.1949984 29 108 c 0
 29 55.1371092813 69.8067829054 21 119 21 c 0
EndSplineSet
Validated: 1
EndChar

StartChar: ottavaBassaVb
Encoding: 58652 58652 103
Width: 790
Flags: W
HStem: 1 20<76.3782 167.01> 163 28<402.774 465.104> 164 20<621.424 681.248> 232 12<218 225.949> 376 30<666.353 731.951> 378 20<350 361.618> 393 19<178.403 260.87> 514 20<596 607.618>
VStem: 0 29<59.7482 150.493> 71 52<291.432 354.226> 233 55<65.212 138.288> 293 37<289.823 375.133> 353 43<193.903 319.456> 525 30<284.92 370.418> 561 45<189.503 316.437> 742 48<242.244 371.16>
LayerCount: 2
Fore
SplineSet
715 406 m 0xb9ff
 733.809722552 406 790 399.281164739 790 319 c 0
 790 241.538580963 727.917610227 164 643 164 c 0
 619.001635631 164 561 171.03078766 561 239 c 0
 561 279.620091311 629.362129086 464.5349036 635 504 c 0
 634.522382736 507.343320849 633.428571429 515 608 515 c 0
 599.792658993 515 595.04067434 514 591 514 c 1
 596 534 l 1
 694 542 l 1
 642 370 l 1
 651.946828484 382.078291731 676.505938103 406 715 406 c 0xb9ff
225 412 m 0x93ff
 270.305144847 412 330 389.839854226 330 333 c 0
 330 288.467351201 258.600783155 232 218 232 c 1
 244.001585491 213.089756007 288 175.157126884 288 135 c 0
 288 33.698653546 185.138378066 1 111 1 c 0
 52.3570573672 1 0 46.3992926981 0 108 c 0
 0 164.510564692 65.0228516154 210.793081834 117 219 c 1
 72.7740518609 258.022895417 71 274.738123572 71 293 c 0
 71 373.84712825 164.233435901 412 225 412 c 0x93ff
524 406 m 0xd9ff
 550.422982529 406 555 379.418207942 555 361 c 0
 555 293.685675278 503.526616066 163 421 163 c 0
 396.404330276 163 353 172.182483714 353 237 c 0
 353 280.265435124 384 324.654815772 384 369 c 0
 384 377.193764088 372.307824039 379 362 379 c 0
 353.792658993 379 349.04067434 378 345 378 c 1
 350 398 l 1xd5ff
 443 406 l 1
 403.550925926 287.652777778 396 265 396 229 c 0
 396 220.078746582 398.49324679 191 431 191 c 0
 484.685577871 191 525 287.306906065 525 330 c 0
 525 359.665337145 499 361.37953465 499 383 c 0
 499 387.024827624 500.258908774 406 524 406 c 0xd9ff
203 244 m 0
 239.872019873 244 293 295.230482817 293 332 c 0
 293 389.660089036 232.922171381 393 219 393 c 0x93ff
 186.343441483 393 123 366.356073971 123 325 c 0
 123 299.570713483 201.861536123 244 203 244 c 0
650 184 m 256xb9ff
 712.002263182 184 742 277.865904855 742 324 c 0
 742 341.19787017 737.491644042 376 701 376 c 0
 639.808992237 376 606 282.289230594 606 234 c 0
 606 219.595925886 610.042265793 184 650 184 c 256xb9ff
119 21 m 0
 153.499499392 21 233 44.9848194299 233 94 c 0
 233 131.062728752 169.488110455 183.715268901 133 205 c 1
 89.8872580082 202.463956353 29 159.1949984 29 108 c 0
 29 55.1371092813 69.8067829054 21 119 21 c 0
EndSplineSet
Validated: 1
EndChar

StartChar: quindicesima
Encoding: 58644 58644 104
Width: 536
Flags: W
HStem: 0 18<4 44.0332 140 169 271.565 348.224> 230 33<327.048 411.027> 338 51<327.443 497.406>
VStem: 213 97<71.8253 129.609> 432 69<86.6637 215.313>
LayerCount: 2
Fore
SplineSet
371 230 m 2
 350.977777778 230 314.222222222 230 292 205 c 1
 265 205 l 1
 319 408 l 1
 337 404.666666667 355 400.666666667 373 396 c 0
 391 391.333333333 409.333333333 389 428 389 c 0
 450.266403455 389 467.708117828 390.389427165 519 406 c 2
 536 411 l 1
 505.95993414 350.91986828 474.105528091 338 426 338 c 0
 401.679952934 338 342.132329043 349.920602574 332 356 c 1
 298 225 l 1
 322.666666667 249.666666667 353.666666667 262.333333333 391 263 c 0
 444.292909889 263 501 224.04870134 501 163 c 0
 501 59.5205344576 405.382783616 0 307 0 c 0
 274.327948516 0 216.32307331 9.20007046221 213 74 c 0
 213 95.9715458533 219.396682896 142 273 142 c 0
 277.529118642 142 310 140.786966688 310 106 c 0
 310 54.7670714061 255.787454131 78.8745413069 253 51 c 0
 253 30.3536895378 284.971199936 18 307 18 c 0
 372.006911364 18 432 82.8692166442 432 150 c 0
 432 180.625729735 416.907834129 230 380 230 c 2
 371 230 l 2
55 280 m 1
 60.221531998 283.961162205 118.448460632 329.164658875 157 404 c 1
 229 404 l 1
 145 94 l 1
 131 48.5 131 48.5 131 41 c 0
 131 24.4 156.732262383 19.2535475234 173 16 c 1
 169 0 l 1
 0 0 l 1
 4 16 l 1
 41.2224064846 19.383855135 56.0513655094 28.6413713963 63.5 59.5 c 0
 65.8333333333 69.1666666667 68.6666666667 80 72 92 c 2
 134 321 l 1
 112.666666667 299.666666667 89.6666666667 281.333333333 65 266 c 1
 55 280 l 1
EndSplineSet
Validated: 1
EndChar

StartChar: quindicesimaAlta
Encoding: 58645 58645 105
Width: 1234
Flags: W
HStem: 0 18<4 44.7563 139.742 169 271.189 348.563> 69 73<253.375 299.686> 162 26<871 919.454 1030.36 1092.67 1142.33 1186.03> 230 33<326.321 412.443> 338 51<327.267 498.577> 371 27<695.966 743.184 834.404 880.58> 371 20<572 609.666> 377 28<1068.38 1132.82>
VStem: 213 40<26.1408 85.6667> 432 69<85.285 216.203> 746 38<338.125 363.781> 840 42<185.548 221.5> 884 43<326.5 364.812> 971 48<197.951 325.653>
LayerCount: 2
Fore
SplineSet
536 411 m 1xf8fc
 523.333333333 385.666666667 509.166666667 367.166666667 493.5 355.5 c 0
 477.833333333 343.833333333 455.333333333 338 426 338 c 0
 422 338 415.333333333 338.5 406 339.5 c 0
 396.666666667 340.5 387.166666667 342 377.5 344 c 0
 367.833333333 346 358.666666667 348 350 350 c 0
 341.333333333 352 335.333333333 354 332 356 c 1
 298 225 l 1
 323.333333333 250.333333333 354.333333333 263 391 263 c 0
 405 263 418.666666667 260.5 432 255.5 c 0
 445.333333333 250.5 457 243.666666667 467 235 c 0
 477 226.333333333 485.166666667 215.833333333 491.5 203.5 c 0
 497.833333333 191.166666667 501 177.666666667 501 163 c 0
 501 137 495.333333333 113.833333333 484 93.5 c 0
 472.666666667 73.1666666667 458 56 440 42 c 0
 422 28 401.333333333 17.5 378 10.5 c 0
 354.666666667 3.5 331 0 307 0 c 0
 282.333333333 0 260.5 5.83333333333 241.5 17.5 c 0
 222.5 29.1666666667 213 48.6666666667 213 76 c 0
 213 95.3333333333 218 111.166666667 228 123.5 c 0
 238 135.833333333 253 142 273 142 c 0
 284.333333333 142 293.333333333 138.833333333 300 132.5 c 0
 306.666666667 126.166666667 310 117.333333333 310 106 c 0
 310 93.3333333333 307 84.5 301 79.5 c 0
 295 74.5 288.5 71 281.5 69 c 0
 274.5 67 268 65.1666666667 262 63.5 c 0
 256 61.8333333333 253 57.6666666667 253 51 c 0
 253 45.6666666667 255 40.8333333333 259 36.5 c 0
 263 32.1666666667 267.666666667 28.6666666667 273 26 c 0
 278.333333333 23.3333333333 284.166666667 21.3333333333 290.5 20 c 0
 296.833333333 18.6666666667 302.333333333 18 307 18 c 0
 323.666666667 18 339.5 21.8333333333 354.5 29.5 c 0
 369.5 37.1666666667 382.833333333 47.1666666667 394.5 59.5 c 0
 406.166666667 71.8333333333 415.333333333 86 422 102 c 0
 428.666666667 118 432 134 432 150 c 0
 432 158 431 166.666666667 429 176 c 0
 427 185.333333333 424 194 420 202 c 0
 416 210 410.666666667 216.666666667 404 222 c 0
 397.333333333 227.333333333 389.333333333 230 380 230 c 0
 364.666666667 230 348.833333333 229 332.5 227 c 0
 316.166666667 225 302.666666667 217.666666667 292 205 c 1
 265 205 l 1
 319 408 l 1
 337 404.666666667 355 400.666666667 373 396 c 0
 391 391.333333333 409.333333333 389 428 389 c 0
 445.333333333 389 461 390.666666667 475 394 c 0
 489 397.333333333 503.666666667 401.333333333 519 406 c 2
 536 411 l 1xf8fc
1234 240 m 1
 1230 232 1225.5 223.5 1220.5 214.5 c 0
 1215.5 205.5 1209.83333333 197.166666667 1203.5 189.5 c 0
 1197.16666667 181.833333333 1189.83333333 175.333333333 1181.5 170 c 0
 1173.16666667 164.666666667 1164 162 1154 162 c 0
 1130.66666667 162 1119 174.333333333 1119 199 c 1
 1100.33333333 174.333333333 1075.66666667 162 1045 162 c 0
 1021.66666667 162 1003.5 170 990.5 186 c 0
 977.5 202 971 221.333333333 971 244 c 0
 971 260.666666667 973.833333333 278.333333333 979.5 297 c 0
 985.166666667 315.666666667 993.5 333 1004.5 349 c 0
 1015.5 365 1028.66666667 378.333333333 1044 389 c 0xf8fc
 1059.33333333 399.666666667 1076.33333333 405 1095 405 c 0xf1fc
 1109.66666667 405 1122.66666667 400.5 1134 391.5 c 0
 1145.33333333 382.5 1152.66666667 371 1156 357 c 1
 1171 397 l 1
 1214 397 l 1
 1211.33333333 388.333333333 1206.83333333 374.5 1200.5 355.5 c 0
 1194.16666667 336.5 1187.83333333 316.666666667 1181.5 296 c 0
 1175.16666667 275.333333333 1169.5 256 1164.5 238 c 0
 1159.5 220 1157 207.666666667 1157 201 c 0
 1157 198.333333333 1157.66666667 195.833333333 1159 193.5 c 0
 1160.33333333 191.166666667 1162.33333333 190 1165 190 c 0
 1170.33333333 190 1175.5 192 1180.5 196 c 0
 1185.5 200 1190.16666667 204.833333333 1194.5 210.5 c 0
 1198.83333333 216.166666667 1202.66666667 222.333333333 1206 229 c 0
 1209.33333333 235.666666667 1212.33333333 241.333333333 1215 246 c 2
 1217 250 l 1
 1234 240 l 1
145 94 m 2
 142.333333333 85.3333333333 139.333333333 76.6666666667 136 68 c 0
 132.666666667 59.3333333333 131 50.3333333333 131 41 c 0
 131 37 132.5 33.5 135.5 30.5 c 0
 138.5 27.5 142.333333333 25 147 23 c 0
 151.666666667 21 156.333333333 19.5 161 18.5 c 0
 165.666666667 17.5 169.666666667 16.6666666667 173 16 c 1
 169 0 l 1
 0 0 l 1
 4 16 l 1
 18.6666666667 17.3333333333 29.8333333333 19.6666666667 37.5 23 c 0
 45.1666666667 26.3333333333 51 31.1666666667 55 37.5 c 0
 59 43.8333333333 62 51.5 64 60.5 c 0
 66 69.5 68.6666666667 80 72 92 c 2
 134 321 l 1
 112.666666667 299.666666667 89.6666666667 281.333333333 65 266 c 1
 55 280 l 1
 74.3333333333 294.666666667 93.3333333333 313.5 112 336.5 c 0
 130.666666667 359.5 145.666666667 382 157 404 c 1
 229 404 l 1
 145 94 l 2
967 231 m 1
 962.333333333 223 956.833333333 214.666666667 950.5 206 c 0
 944.166666667 197.333333333 937.333333333 189.333333333 930 182 c 0
 922.666666667 174.666666667 914.5 168.5 905.5 163.5 c 0
 896.5 158.5 887 156 877 156 c 0
 865 156 855.833333333 159.833333333 849.5 167.5 c 0
 843.166666667 175.166666667 840 185 840 197 c 1
 884 351 l 2
 884 356.333333333 882.166666667 361 878.5 365 c 0
 874.833333333 369 870 371 864 371 c 0
 856 371 848 368.5 840 363.5 c 0
 832 358.5 824.5 352.5 817.5 345.5 c 0
 810.5 338.5 804 331 798 323 c 0
 792 315 787.333333333 307.666666667 784 301 c 0
 772.666666667 279.666666667 763.833333333 257.166666667 757.5 233.5 c 0
 751.166666667 209.833333333 745 186.333333333 739 163 c 1
 690 163 l 1
 693.333333333 170.333333333 698.166666667 182.833333333 704.5 200.5 c 0
 710.833333333 218.166666667 717 236.833333333 723 256.5 c 0
 729 276.166666667 734.333333333 294.833333333 739 312.5 c 0
 743.666666667 330.166666667 746 342.333333333 746 349 c 0
 746 354.333333333 744.666666667 359.333333333 742 364 c 0
 739.333333333 368.666666667 734.666666667 371 728 371 c 0xf4fc
 719.333333333 371 710.833333333 368.666666667 702.5 364 c 0
 694.166666667 359.333333333 686.5 353.5 679.5 346.5 c 0
 672.5 339.5 666 331.833333333 660 323.5 c 0
 654 315.166666667 649.333333333 307.666666667 646 301 c 0
 634.666666667 279.666666667 625.833333333 257.166666667 619.5 233.5 c 0
 613.166666667 209.833333333 607 186.333333333 601 163 c 1
 552 163 l 1
 555.333333333 173.666666667 560.166666667 188.166666667 566.5 206.5 c 0
 572.833333333 224.833333333 579.333333333 243.666666667 586 263 c 0
 592.666666667 282.333333333 598.333333333 300.833333333 603 318.5 c 0
 607.666666667 336.166666667 610 349.333333333 610 358 c 0
 610 364 606.833333333 367.666666667 600.5 369 c 0
 594.166666667 370.333333333 587.666666667 371 581 371 c 2
 566 371 l 1
 572 391 l 1xf2fc
 662 399 l 1
 648 336 l 1
 650 339 l 2
 655.333333333 345.666666667 661.166666667 352.5 667.5 359.5 c 0
 673.833333333 366.5 680.5 372.833333333 687.5 378.5 c 0
 694.5 384.166666667 702 388.833333333 710 392.5 c 0
 718 396.166666667 726.666666667 398 736 398 c 0
 753.333333333 398 765.666666667 393.333333333 773 384 c 0
 780.333333333 374.666666667 784 362.666666667 784 348 c 2
 784 347 l 1
 784 347 784 347 784 346 c 1
 784 342 l 2
 784 339.333333333 783.666666667 336.666666667 783 334 c 1
 795.666666667 349.333333333 809.666666667 363.833333333 825 377.5 c 0
 840.333333333 391.166666667 858.666666667 398 880 398 c 0xf4fc
 895.333333333 398 907 393.5 915 384.5 c 0
 923 375.5 927 363.666666667 927 349 c 0
 927 336.333333333 924.666666667 323.166666667 920 309.5 c 0
 915.333333333 295.833333333 910.166666667 282.333333333 904.5 269 c 0
 898.833333333 255.666666667 893.666666667 242.666666667 889 230 c 0
 884.333333333 217.333333333 882 205 882 193 c 0
 882 189 883 186.5 885 185.5 c 0
 887 184.5 889.666666667 184 893 184 c 0
 897.666666667 184 902.833333333 186.333333333 908.5 191 c 0
 914.166666667 195.666666667 919.833333333 201 925.5 207 c 0
 931.166666667 213 936.166666667 219.166666667 940.5 225.5 c 0
 944.833333333 231.833333333 948.333333333 237 951 241 c 1
 967 231 l 1
1142 333 m 0
 1142 344.333333333 1139 354.5 1133 363.5 c 0
 1127 372.5 1117.66666667 377 1105 377 c 0xf1fc
 1090.33333333 377 1077.66666667 372 1067 362 c 0
 1056.33333333 352 1047.5 339.666666667 1040.5 325 c 0
 1033.5 310.333333333 1028.16666667 295 1024.5 279 c 0
 1020.83333333 263 1019 249.333333333 1019 238 c 0
 1019 224 1022.33333333 212.166666667 1029 202.5 c 0
 1035.66666667 192.833333333 1046.66666667 188 1062 188 c 0
 1076 188 1088 193.5 1098 204.5 c 0
 1108 215.5 1116.16666667 228.833333333 1122.5 244.5 c 0
 1128.83333333 260.166666667 1133.66666667 276.166666667 1137 292.5 c 0
 1140.33333333 308.833333333 1142 322.333333333 1142 333 c 0
EndSplineSet
Validated: 1
EndChar

StartChar: quindicesimaBassa
Encoding: 58646 58646 106
Width: 1234
Flags: W
HStem: -1 26<843.209 888.991 1000.36 1061.95 1112.33 1155.96> 0 18<4 44.4641 140 169 272.052 346.866> 208 27<667.234 714.831 805.633 852.716> 208 20<542 579.757> 214 28<1039.1 1103.19> 230 33<326.123 412.116> 338 51<327.443 497.406>
VStem: 213 40<26.833 84.7186> 432 69<85.9585 216.316> 660 49<0 57.537> 716 38<171.125 207.295> 810 42<21.0029 58.5> 854 43<163.5 207.27> 941 48<29.6712 161.89>
LayerCount: 2
Fore
SplineSet
380 230 m 0x47fc
 314.267328341 230 302.783103743 217.804935695 292 205 c 1
 265 205 l 1
 319 408 l 1
 337 404.666666667 355 400.666666667 373 396 c 0
 391 391.333333333 409.333333333 389 428 389 c 0
 450.266403455 389 467.708117828 390.389427165 519 406 c 2
 536 411 l 1
 505.95993414 350.91986828 474.105528091 338 426 338 c 0
 401.679952934 338 342.132329043 349.920602574 332 356 c 1
 298 225 l 1
 323.333333333 250.333333333 354.333333333 263 391 263 c 0
 447.232618987 263 501 221.261015847 501 163 c 0
 501 64.4893843038 411.596299512 0 307 0 c 0
 282.437901939 0 213 6.17460139365 213 76 c 0
 213 93.4372127446 217.94255402 142 273 142 c 0
 281.409937254 142 310 139.53380719 310 106 c 0
 310 54.19277629 253 77.7048845287 253 51 c 0
 253 30.3536895378 284.971199936 18 307 18 c 0
 372.006911364 18 432 82.8692166442 432 150 c 0
 432 174.757275206 420.870705683 230 380 230 c 0x47fc
1135 27 m 4
 1155.21484375 27 1171.78125 56.5625 1187 87 c 5
 1204 77 l 5
 1187.94238281 44.884765625 1163.99414062 -1 1124 -1 c 4
 1100.66699219 -1 1089 11.3330078125 1089 36 c 5
 1070.33300781 11.3330078125 1045.66699219 -1 1015 -1 c 4
 960.346679688 -1 941 45.07421875 941 81 c 4
 941 151.987304688 992.75390625 242 1065 242 c 4x8bfc
 1095.078125 242 1119.41210938 221.66796875 1126 194 c 5
 1141 234 l 5
 1184 234 l 5
 1183.51074219 232.408203125 1152.70605469 140.54296875 1134.5 75 c 4
 1129.5 57 1127 44.6669921875 1127 38 c 4
 1127 37.8642578125 1127.0703125 27 1135 27 c 4
55 280 m 1
 60.221531998 283.961162205 118.448460632 329.164658875 157 404 c 1
 229 404 l 1
 145 94 l 2
 142.333333333 85.3333333333 139.333333333 76.6666666667 136 68 c 0
 132.666666667 59.3333333333 131 50.3333333333 131 41 c 0
 131 24.4 156.732262383 19.2535475234 173 16 c 1
 169 0 l 1
 0 0 l 1x43fc
 4 16 l 1
 39.3615155463 19.2146832315 56.5427920885 26.9425643981 64 60.5 c 0
 66 69.5 68.6666666667 80 72 92 c 2
 134 321 l 1
 112.666666667 299.666666667 89.6666666667 281.333333333 65 266 c 1
 55 280 l 1
863 21 m 4
 879.91796875 21 904.954101562 53.931640625 921 78 c 5
 937 68 l 5
 920.086914062 39.0068359375 886.955078125 -7 847 -7 c 4
 839.418945312 -7 810 -4.5185546875 810 34 c 5
 854 188 l 5
 854 197.306640625 847.4296875 208 834 208 c 4
 805.477539062 208 752.569335938 164.178710938 727.5 70.5 c 4
 721.166992188 46.8330078125 715 23.3330078125 709 0 c 5
 660 0 l 5
 676.34375 35.9560546875 716 161.2265625 716 186 c 4
 716 190.923828125 714.790039062 208 698 208 c 4x63fc
 658.079101562 208 611.188476562 151.546875 589.5 70.5 c 4
 583.166992188 46.8330078125 577 23.3330078125 571 0 c 5
 522 0 l 5
 522.48828125 1.5615234375 564.377929688 122.859375 573 155.5 c 4
 577.666992188 173.166992188 580 186.333007812 580 195 c 4
 580 199.555664062 580 208 551 208 c 6
 536 208 l 5
 542 228 l 5x53fc
 632 236 l 5
 618 173 l 5
 619.3515625 175.02734375 659.723632812 235 706 235 c 4
 729.458007812 235 754 225.356445312 754 185 c 6
 754 179 l 6
 754 176.333007812 753.666992188 173.666992188 753 171 c 5
 775.9140625 198.73828125 805.869140625 235 850 235 c 4x23fc
 862.077148438 235 897 231.100585938 897 186 c 4
 897 133.041992188 852 78.0908203125 852 30 c 4
 852 24.966796875 852.90234375 21 863 21 c 4
1032 25 m 4x8bfc
 1092.20019531 25 1112 140.282226562 1112 170 c 4
 1112 175.350585938 1110.76269531 214 1075 214 c 4
 1012.1484375 214 989 110.50390625 989 75 c 4
 989 57.6396484375 994.045898438 25 1032 25 c 4x8bfc
EndSplineSet
Validated: 1
EndChar

